<svg class="img-fluid" id="outputsvg" xmlns="http://www.w3.org/2000/svg" style="transform: matrix(1, 0, 0, 1, 0, 0); transform-origin: 50% 50% 0px; cursor: move; transition: none 0s ease 0s;" width="375" height="118" viewBox="0 0 3750 1180"><g id="l2hqW1W3057DMXhYJzTMaXf" fill="rgb(255,255,255)" style="transform: none;"><g style="transform: none;"></g></g><g id="l5akU2WXl4l3WIY3du4apGQ" fill="rgb(170,170,170)" style="transform: none;"><g style="transform: none;"></g></g><g id="l15nuIRHW0LCNtCGyKgFDwQ" fill="rgb(85,85,85)" style="transform: none;"><g style="transform: none;"></g></g><g id="l2kXP2FyHOS20BbH2IsRpbM" fill="rgb(0,0,0)" style="transform: none;"><g style="transform: none;"><path id="pWKWtZ87u" d="M 170 1116 c -19 -24 -63 -375 -49 -392 9 -12 75 -14 369 -14 294 0 360 2 369 14 14 17 -30 368 -49 392 -18 21 -622 21 -640 0 z  m 352 -163 c 36 -32 17 -83 -32 -83 -48 0 -67 45 -33 82 20 22 41 23 65 1 z "></path><path id="pC1JoZ0Xw" d="M 1082 988 c -21 -21 -14 -47 15 -54 33 -9 57 6 61 37 2 21 -2 24 -31 26 -18 2 -39 -3 -45 -9 z  m 38 -9 c 0 -5 5 -7 11 -3 7 4 10 -1 7 -12 -4 -22 -35 -31 -51 -15 -7 7 -6 15 3 26 14 17 30 20 30 4 z "></path><path id="piQWrAXQv" d="M 1283 993 c -7 -2 -12 -19 -12 -36 l 1 -32 7 30 c 8 41 45 42 49 3 4 -34 22 -37 22 -5 0 38 -29 56 -67 40 z "></path><path id="p11wbOsySK" d="M 1460 966 c 0 -20 5 -36 10 -36 6 0 10 13 10 29 0 17 -4 33 -10 36 -6 4 -10 -8 -10 -29 z "></path><path id="p1HsCfjDVB" d="M 1602 991 c -8 -4 -12 -19 -10 -32 2 -20 9 -24 38 -26 34 -1 34 -1 5 5 -35 8 -45 37 -16 47 12 3 26 3 32 -1 8 -4 9 -3 5 4 -8 14 -35 15 -54 3 z "></path><path id="pfMCbIqPE" d="M 1777 994 c -10 -11 -9 -64 2 -64 5 0 11 6 14 13 4 10 7 10 18 0 7 -7 18 -13 24 -13 5 0 1 7 -10 16 -20 15 -20 15 5 34 14 11 21 20 15 19 -5 0 -19 -6 -30 -15 -17 -13 -20 -13 -25 1 -3 9 -9 13 -13 9 z "></path><path id="p19EZFX8rJ" d="M 2082 993 c 35 -73 40 -77 63 -33 20 38 19 43 -5 28 -16 -10 -24 -10 -41 0 -12 8 -19 10 -17 5 z  m 48 -33 c 0 -5 -2 -10 -4 -10 -3 0 -8 5 -11 10 -3 6 -1 10 4 10 6 0 11 -4 11 -10 z "></path><path id="p9DToL4V2" d="M 2270 966 c 0 -43 8 -45 41 -10 l 24 26 6 -29 c 6 -25 7 -24 8 11 l 1 40 -30 -29 c -28 -27 -30 -28 -30 -7 0 11 -4 24 -10 27 -6 4 -10 -8 -10 -29 z "></path><path id="p1BzXQD6JF" d="M 2470 965 c 0 -30 3 -35 24 -35 37 0 56 10 56 31 0 20 -28 39 -59 39 -17 0 -21 -6 -21 -35 z  m 57 14 c 17 -17 4 -39 -23 -39 -17 0 -24 6 -24 18 0 32 25 43 47 21 z "></path><path id="p17rkR3hlc" d="M 2791 968 c -1 -37 0 -38 32 -37 30 2 30 2 5 6 -16 2 -28 8 -28 13 0 5 12 11 28 13 l 27 4 -27 2 c -16 0 -28 8 -31 19 -3 9 -5 0 -6 -20 z "></path><path id="pdjm7ccET" d="M 2963 965 c 0 -22 2 -30 4 -17 2 12 2 30 0 40 -3 9 -5 -1 -4 -23 z "></path><path id="pR2jx6RmE" d="M 3091 968 c -1 -43 8 -47 34 -18 23 26 33 25 38 -2 3 -14 5 -9 6 15 1 44 -7 46 -40 11 l -24 -26 -6 29 c -6 26 -7 25 -8 -9 z "></path><path id="pDosWnFez" d="M 3290 965 c 0 -33 2 -35 33 -34 30 2 30 2 5 6 -16 2 -28 8 -28 13 0 5 12 11 28 13 l 27 4 -27 2 c -16 0 -28 5 -28 10 0 5 12 12 28 14 25 4 25 4 -5 6 -31 1 -33 -1 -33 -34 z "></path><path id="pfu04PWAn" d="M 3466 992 c -3 -5 6 -7 19 -4 33 6 32 -14 -1 -22 -33 -9 -26 -30 12 -33 28 -2 28 -2 4 6 l -25 8 28 12 c 16 6 27 17 25 24 -5 14 -54 22 -62 9 z "></path><path id="pslskzHCE" d="M 3660 971 c 0 -20 -6 -31 -17 -34 -10 -3 2 -5 27 -5 25 0 37 2 28 5 -11 3 -18 14 -18 28 0 13 -4 27 -10 30 -6 4 -10 -6 -10 -24 z "></path><path id="ppbaOz9mr" d="M 1020 545 l 0 -286 58 3 57 3 31 120 31 120 16 -55 c 9 -30 24 -85 33 -122 l 16 -68 59 0 59 0 0 285 0 285 -55 0 -55 0 -1 -132 -1 -133 -32 97 c -17 53 -34 99 -37 102 -3 3 -18 -37 -34 -89 -15 -53 -32 -98 -36 -101 -5 -3 -9 54 -9 125 l 0 131 -50 0 -50 0 0 -285 z "></path><path id="pTOgGEgjd" d="M 1430 714 c 0 -63 4 -124 10 -134 5 -10 39 -41 75 -69 64 -51 65 -52 65 -101 l 0 -50 -70 0 c -77 0 -77 -1 -64 -69 l 7 -31 94 0 c 87 0 96 2 119 25 23 24 25 30 22 122 l -3 98 -73 60 -73 60 3 50 3 50 66 3 66 3 -10 49 -10 50 -113 0 -114 0 0 -116 z "></path><path id="p1AMBnmJeM" d="M 1840 545 l 0 -285 119 0 c 169 0 165 -5 169 188 3 153 -3 192 -33 192 -20 0 -19 15 10 100 14 40 25 77 25 82 0 4 -24 8 -53 8 l -54 0 -27 -90 c -15 -49 -31 -92 -36 -95 -6 -4 -10 31 -10 89 l 0 96 -55 0 -55 0 0 -285 z  m 178 -87 l 3 -98 -36 0 -35 0 0 101 0 100 33 -3 32 -3 3 -97 z "></path><path id="p1BT5RIRGM" d="M 2180 545 l 0 -285 109 0 109 0 6 31 c 13 67 12 69 -54 69 l -60 0 0 70 0 70 50 0 50 0 0 50 0 50 -50 0 -51 0 3 63 3 62 58 3 58 3 -6 32 c -14 71 -7 67 -121 67 l -104 0 0 -285 z "></path><path id="pCXYjzmDi" d="M 2460 545 l 0 -285 59 0 59 0 28 115 c 15 63 31 115 35 115 4 0 20 -52 35 -115 l 28 -115 58 0 58 0 0 285 0 285 -50 0 -50 0 0 -131 c 0 -71 -4 -128 -9 -125 -4 3 -21 48 -37 100 -15 53 -31 93 -34 90 -3 -3 -19 -49 -36 -102 l -32 -97 -1 133 -1 132 -55 0 -55 0 0 -285 z "></path><path id="pJGGGnfsr" d="M 2918 818 c -44 -15 -50 -56 -46 -301 4 -268 -3 -257 147 -257 151 0 141 -19 141 278 0 136 -4 252 -8 259 -4 6 -20 17 -35 22 -35 14 -162 13 -199 -1 z  m 132 -273 l 0 -185 -35 0 -35 0 0 178 c 0 98 3 182 7 185 3 4 19 7 35 7 l 28 0 0 -185 z "></path><path id="p1D0aGuKfY" d="M 3280 596 l 0 -235 -38 -3 -38 -3 14 -48 13 -47 103 0 104 0 11 44 c 6 25 11 47 11 50 0 3 -16 6 -35 6 l -35 0 0 235 0 235 -55 0 -55 0 0 -234 z "></path><path id="pLGzpjo0Q" d="M 3500 545 l 0 -285 109 0 108 0 10 50 10 49 -61 3 -61 3 -3 68 -3 67 51 0 50 0 0 50 0 50 -50 0 -51 0 3 63 3 62 58 3 59 3 -7 42 c -4 23 -9 45 -12 50 -2 4 -51 7 -109 7 l -104 0 0 -285 z "></path><path id="p39O78xdW" d="M 180 648 c 0 -25 39 -77 69 -92 16 -9 47 -18 70 -22 59 -9 65 -40 18 -95 -20 -23 -39 -54 -42 -69 -3 -15 -15 -36 -26 -46 -14 -13 -19 -30 -19 -70 0 -29 5 -56 10 -59 6 -3 15 -27 22 -52 8 -32 26 -61 58 -95 l 46 -48 102 0 c 99 0 102 1 137 32 39 33 75 95 75 126 0 11 7 25 15 32 23 19 20 112 -4 134 -11 10 -23 31 -26 46 -3 15 -22 46 -42 69 -47 55 -41 86 18 95 23 4 54 13 70 22 30 15 69 67 69 92 0 9 -69 12 -310 12 -241 0 -310 -3 -310 -12 z  m 362 -78 c 42 -12 52 -22 44 -48 -5 -15 -19 -17 -93 -17 -49 0 -91 5 -95 10 -15 20 -7 36 25 50 39 17 70 18 119 5 z  m 47 -123 c 24 -16 47 -44 62 -74 12 -26 31 -59 41 -72 19 -25 24 -66 9 -75 -5 -3 -11 1 -15 9 -7 20 -36 19 -36 -1 0 -27 -25 -9 -30 22 -11 60 -110 51 -110 -11 0 -16 -6 -25 -15 -25 -8 0 -15 9 -15 20 0 26 -34 60 -62 60 -29 0 -58 -28 -58 -57 0 -14 -6 -23 -15 -23 -8 0 -15 7 -15 15 0 21 -27 19 -39 -2 -8 -15 -10 -10 -11 21 0 22 7 46 15 55 9 9 28 40 43 70 50 100 159 129 251 68 z  m 5 -253 c 44 -6 46 -8 46 -38 l 0 -32 -150 0 -150 0 0 32 c 0 29 3 33 33 37 56 7 172 7 221 1 z "></path><path id="p1A3pSDEmz" d="M 445 387 c -26 -20 -15 -30 19 -18 17 7 35 7 52 0 29 -10 44 -5 27 12 -18 18 -77 21 -98 6 z "></path></g></g></svg>