<?xml version="1.0" standalone="no"?>
<!DOCTYPE svg PUBLIC "-//W3C//DTD SVG 20010904//EN"
 "http://www.w3.org/TR/2001/REC-SVG-20010904/DTD/svg10.dtd">
<svg version="1.0" xmlns="http://www.w3.org/2000/svg"
 width="76.000000pt" height="116.000000pt" viewBox="0 0 76.000000 116.000000"
 preserveAspectRatio="xMidYMid meet">

<g transform="translate(0.000000,116.000000) scale(0.100000,-0.100000)"
fill="#000000" stroke="none">
<path d="M330 1151 c-80 -25 -127 -70 -156 -148 -9 -26 -22 -54 -28 -61 -5 -7
-10 -35 -10 -62 -1 -37 4 -54 21 -72 12 -13 25 -35 28 -50 4 -14 22 -45 42
-67 44 -52 39 -77 -20 -86 -23 -4 -55 -14 -70 -22 -28 -14 -67 -67 -67 -90 0
-10 69 -13 310 -13 241 0 310 3 310 13 0 23 -39 76 -67 90 -15 8 -47 18 -71
22 -57 9 -65 39 -24 83 16 17 35 46 42 64 7 18 23 43 34 56 26 29 28 94 4 143
-9 19 -22 49 -29 68 -27 74 -95 124 -179 135 -25 3 -56 1 -70 -3z m13 -145
c17 -2 64 -1 102 3 74 8 85 4 85 -35 0 -29 -22 -34 -150 -34 -134 0 -150 5
-150 39 0 36 5 40 46 35 19 -2 49 -6 67 -8z m-91 -126 c7 -58 103 -57 115 2 7
34 25 32 33 -3 3 -13 18 -30 33 -37 24 -12 32 -11 52 2 14 9 27 27 31 41 6 24
24 35 24 15 0 -14 37 -12 43 3 3 6 6 -4 6 -24 1 -23 -6 -42 -18 -53 -11 -10
-22 -30 -26 -44 -17 -70 -89 -122 -167 -122 -66 0 -118 34 -150 99 -15 30 -35
62 -43 71 -8 9 -15 32 -14 51 0 19 3 28 6 22 7 -18 42 -16 50 3 7 20 20 6 25
-26z m110 -257 c20 -3 50 -1 67 5 27 10 32 8 42 -10 9 -18 8 -24 -6 -35 -39
-28 -130 -29 -168 0 -22 16 -12 61 12 52 9 -4 33 -9 53 -12z"/>
<path d="M310 770 c0 -28 92 -41 125 -17 25 19 3 30 -29 16 -20 -9 -32 -9 -51
-1 -31 15 -45 15 -45 2z"/>
<path d="M10 415 c-19 -23 31 -384 56 -402 26 -19 602 -19 628 0 25 18 75 379
56 402 -11 13 -66 15 -370 15 -304 0 -359 -2 -370 -15z m402 -162 c22 -20 23
-41 1 -65 -20 -22 -41 -23 -65 -1 -22 20 -23 41 -1 65 20 22 41 23 65 1z"/>
</g>
</svg>
