<svg xmlns="http://www.w3.org/2000/svg" viewBox="0 0 729 596"><g fill="none" fill-rule="evenodd"><path fill="#002DFF" d="M135.719 366.801c45.68 0 71.34 27.634 77.26 62.88h-54.701c-3.102-9.304-10.997-15.226-22.56-15.226-19.736 0-30.733 17.764-30.733 41.732 0 23.685 10.997 41.731 30.734 41.731 11.562 0 19.457-5.92 22.559-15.507h54.7c-5.92 35.527-31.58 63.161-77.26 63.161C85.247 545.572 50 508.07 50 456.188c0-51.884 35.246-89.386 85.719-89.386M254.43 542.752h54.703V369.621H254.43zM512.664 542.752H467.83l-63.161-86.566v86.566h-52.73v-173.13h51.037l56.959 80.643v-80.644h52.729zM630.247 542.752h-54.984l45.115-126.606h-67.39v-46.525h125.758v35.247z"/><path fill="#7F96FF" d="m318.723 290.002 24.05 11.582 7 3.371-36.855-161.457h-27.633zM256.624 260.097l31.051 14.953-30.026-131.552h-27.638zM385.508 219.385l-17.322-75.886h-27.633l31.138 136.424z"/><path fill="#002DFF" d="m418.234 286.048-26.932 12.969 51.501-225.642 18.64 23.363zM472.122 260.097l-26.955 12.98 34.914-152.968 18.654 23.392zM304.577 50l-18.641 23.375H394.86l-5.335 23.374H267.295l-18.64 23.375H384.19l-5.335 23.375H230.01l5.335 23.374H373.52l-30.747 134.71 21.598 10.402L424.17 50z"/></g></svg>