<svg xmlns="http://www.w3.org/2000/svg" id="Layer_1" x="0" y="0" style="enable-background:new 0 0 1000 1000" version="1.1" viewBox="0 0 1000 1000" xml:space="preserve"><style>.st1{fill:#fff}</style><path d="M-.26 0h1000.41v1000.41H-.26z" style="fill:#5830c5"/><path d="M339.4 697.2c-5.4-5.33-11.78-9.54-19.07-12.55-7.32-3.02-15.34-4.53-23.92-4.53h-33.23c-8.58 0-16.63 1.51-24.01 4.53-7.29 3.02-13.81 7.23-19.14 12.55-5.33 5.33-9.63 11.75-12.62 19.14-3.02 7.41-4.62 15.5-4.62 24.17v25.82c0 8.67 1.51 16.85 4.62 24.17 3 7.29 7.29 13.74 12.62 19.14 5.42 5.4 11.84 9.63 19.14 12.55 7.34 2.95 15.44 4.46 23.94 4.46h33.2c8.58 0 16.62-1.51 23.92-4.46a57.774 57.774 0 0 0 19.16-12.55c5.31-5.4 9.6-11.85 12.65-19.14 3.02-7.32 4.51-15.5 4.51-24.17v-25.82c0-8.67-1.49-16.76-4.51-24.08-3.03-7.39-7.24-13.9-12.64-19.23M352.34 363.36c0-23.21 18.75-41.96 41.96-41.96h402.9V173.35H397.78c-106.88 0-193.51 86.62-193.51 193.51v64.28c0 106.88 86.62 193.51 193.51 193.51H608.3V476.6H394.31c-23.21 0-41.96-18.75-41.96-41.96v-71.28z" class="st1"/></svg>