<svg xmlns="http://www.w3.org/2000/svg" viewBox="0 0 800 800"><defs><style>.cls-1{fill:none;}.cls-2{fill:#cf152d;}</style></defs><g id="Transparent_BG" data-name="Transparent BG"><rect class="cls-1" width="800" height="800"/></g><g id="HL_Logo" data-name="HL Logo"><polygon class="cls-2" points="147.76 341.72 147.76 386.99 105 386.99 105 341.72 80.72 341.72 80.72 454.98 105 454.98 105 405.32 148.08 405.32 148.08 454.98 172.36 454.98 172.36 341.72 147.76 341.72"/><path class="cls-2" d="M204.05,406.73c.47-9.25,4.7-17.71,14.88-17.71,13.47,0,13.79,14.1,13.79,17.71Zm52.32,14.57c.31-6.58.63-18.18-4.7-29-7.2-14.72-20.68-19.11-31.95-19.11a39.69,39.69,0,0,0-22.25,6.58C184.15,389,181,404.38,181,417.22c0,12.69,3,23.34,10.19,30.86,8.3,8.62,21.14,9.87,27.88,9.87,11.59,0,21.93-3.13,27.73-9.24a26.46,26.46,0,0,0,7.51-17.23H233.19c-2.2,8.77-8,11-13.79,11-16.13,0-16.13-16-16.13-21.14Z"/><path class="cls-2" d="M311,417.69c0,8.46-.32,14.57-4.39,19.58a13.12,13.12,0,0,1-9.87,4.55c-7.68,0-11.28-6-11.28-11.28,0-9.4,10.65-14.1,25.54-12.85m24,37.29a95.64,95.64,0,0,1-1.88-20.06l-.15-31.8c0-3.6-.16-13-5.49-19.42-7.83-9.09-21.61-10.18-28.19-10.18-7.52,0-16.77,1.25-24,6.42-8.3,5.95-8.77,14.41-8.93,18.64H289a11.89,11.89,0,0,1,1.73-7.05,10.55,10.55,0,0,1,8.77-4.38c2.19,0,8.3.78,10.34,6.58.94,2.82,1.1,5.32,1.1,10.49-7.68,0-21.62,0-31.33,4.39-14.57,6.73-16.77,18.33-16.77,24.59a24.51,24.51,0,0,0,6.9,17.39c3.13,3,8.3,6.27,19.73,6.27,4.39,0,14.89,0,23.66-12.69A63.61,63.61,0,0,0,314,455Z"/><path class="cls-2" d="M344.1,455h23.18V416c0-9.87,1.41-21.93,24.91-19.74V375.4c-18.8-.94-24,8.61-26.94,15.35l-.47-15.2H343c.47,4.55,1.1,16,1.1,19.74Z"/><path class="cls-2" d="M440.41,438.68a57.45,57.45,0,0,1-7.84.47c-10.33,0-10.33-4.54-10.49-11.74V391.69h18.8V376.34h-18.8v-24l-23,8.46v74.25c0,6.58,0,21.31,23.34,21.31a71.77,71.77,0,0,0,18-2.51Z"/><rect class="cls-2" x="448.61" y="341.72" width="23.18" height="113.26"/><path class="cls-2" d="M527.58,417.69c0,8.46-.32,14.57-4.39,19.58a13.12,13.12,0,0,1-9.87,4.55c-7.67,0-11.28-6-11.28-11.28,0-9.4,10.65-14.1,25.54-12.85m24,37.29a95.65,95.65,0,0,1-1.89-20.06l-.15-31.8c0-3.6-.16-13-5.48-19.42-7.84-9.09-21.62-10.18-28.2-10.18-7.52,0-16.76,1.25-24,6.42-8.3,5.95-8.77,14.41-8.93,18.64h22.72a11.94,11.94,0,0,1,1.72-7.05,10.56,10.56,0,0,1,8.77-4.38c2.19,0,8.3.78,10.34,6.58.94,2.82,1.1,5.32,1.1,10.49-7.68,0-21.62,0-31.33,4.39-14.57,6.73-16.76,18.33-16.76,24.59a24.5,24.5,0,0,0,6.89,17.39c3.13,3,8.3,6.27,19.74,6.27,4.38,0,14.88,0,23.65-12.69a63.61,63.61,0,0,0,.78,10.81Z"/><path class="cls-2" d="M559.23,455h23.34V408.61c0-6.11,1.41-10,2.82-12.06a14.4,14.4,0,0,1,12.07-6.11,12.07,12.07,0,0,1,11.27,6.73c1.26,2.51,1.26,5.33,1.26,8.62V455h23.65V412.21c0-14.73-.47-18.8-2.19-23.65-2-5.49-8.62-14.89-24.13-14.89-17.23,0-23.49,10.19-25.69,13.79L581,375.55H558.76c.47,5.49.47,14.1.47,14.42Z"/><path class="cls-2" d="M665.44,416.6c0-8,1.72-26.64,17.23-26.64,10.49,0,17.23,8.46,17.23,24,0,3.92-.31,12.07-3.76,18.64a16.73,16.73,0,0,1-14.72,8.93c-11.6,0-16-11.75-16-24.9m33.68-31c-2-2.82-8-10.81-22.25-10.81-20.68,0-34.93,16.29-34.93,42.45,0,24.75,12.53,39.32,33.68,39.32A27.65,27.65,0,0,0,691,452.47a21.27,21.27,0,0,0,8-8.93l.63,11.44h23.49c-.31-3-.62-8.15-.62-12.85V341.87H699.12Z"/></g></svg>