<svg xmlns="http://www.w3.org/2000/svg" style="enable-background:new 0 0 800 800" viewBox="0 0 800 800" xml:space="preserve"><path d="M0 0h800v800H0z" style="fill:none"/><path d="m400 126 25.2 44c5.2 9.1 5.2 20.2 0 29.3L275.4 460.7 346.1 584c16.8 29.8 54.6 40.2 84.4 23.4 9.8-5.5 17.9-13.6 23.4-23.4l70.7-123.3-19.1-33.3-80.2 139.9c-8 14-25.9 18.7-39.8 10.7-4.4-2.6-8.1-6.3-10.7-10.7l-61-106.6 139-242.7 25.2 44c5.2 9.1 5.2 20.3 0 29.4l-97.1 169.3L400 494l105.5-184 69.2 120.6c10.6 18.6 10.6 41.4 0 60l-70.4 122.6c-10.8 18.8-44 60.7-104.5 60.7s-93.5-41.9-104.3-60.7l-70.3-122.6c-10.6-18.6-10.6-41.5 0-60.1L400 126" style="fill-rule:evenodd;clip-rule:evenodd;fill:#e81c1c"/></svg>