<svg xmlns="http://www.w3.org/2000/svg" viewBox="0 0 459.4 82.66"><g data-name="Layer 2"><path d="M67 82.66a10.18 10.18 0 0 1-8.1-4l-42.8-54.8a1.1 1.1 0 0 0-1.5-.2.91.91 0 0 0-.4.8V80a1.79 1.79 0 0 1-1.8 1.8A12.4 12.4 0 0 1 0 69.36v-58.7a10.47 10.47 0 0 1 5.4-9.4A10.36 10.36 0 0 1 18.5 4l42.8 54.8a1.1 1.1 0 0 0 1.5.2.91.91 0 0 0 .4-.8V2.76A1.79 1.79 0 0 1 65 1a12.4 12.4 0 0 1 12.4 12.4v58.7a10.61 10.61 0 0 1-5.1 9.2 10.76 10.76 0 0 1-5.3 1.36zm223.8-63.4a31.1 31.1 0 1 0 31.1 31.1 31.13 31.13 0 0 0-31.1-31.1zm0 48.2a17 17 0 1 1 17-17 17 17 0 0 1-17 17zm39.5 13.4h10.6a1.79 1.79 0 0 0 1.8-1.8v-28.3a17.27 17.27 0 0 1 16.3-17.4 17 17 0 0 1 17.7 16.3v29.4a1.79 1.79 0 0 0 1.8 1.8h10.6a1.79 1.79 0 0 0 1.8-1.8V51c0-17-13.4-31.3-30.4-31.7a31.18 31.18 0 0 0-31.9 30.5v29.4a1.63 1.63 0 0 0 1.7 1.66zm-109.1-61.6a31.26 31.26 0 0 0-14.3 3.9 1.25 1.25 0 0 1-1.8-.5 1.45 1.45 0 0 1-.2-.7v-8.8A12.38 12.38 0 0 0 192.6.76a1.79 1.79 0 0 0-1.8 1.8V79a1.79 1.79 0 0 0 1.8 1.8h10.6A1.79 1.79 0 0 0 205 79V50.26a17 17 0 0 1 17-17h.7a17.42 17.42 0 0 1 16.4 17.4V79a1.79 1.79 0 0 0 1.8 1.8h10.6a1.79 1.79 0 0 0 1.8-1.8V50.26a31.09 31.09 0 0 0-31.2-31.1 3.87 3.87 0 0 1-.9.1zm-38.7 0h-8.8a1.32 1.32 0 0 1-1.3-1.3V2.76A1.79 1.79 0 0 0 170.6 1H160a1.79 1.79 0 0 0-1.8 1.8v65.8A12.38 12.38 0 0 0 170.5 81a1.79 1.79 0 0 0 1.8-1.8V34.76a1.49 1.49 0 0 1 1.3-1.4h8.8a1.79 1.79 0 0 0 1.8-1.8V21a1.75 1.75 0 0 0-1.7-1.74zm-61.7.2a31.16 31.16 0 0 0-6.4 62 31.75 31.75 0 0 0 20.1-4.8 1.81 1.81 0 0 0 .5-2.6.1.1 0 0 0-.1-.1l-6.6-8.2a1.85 1.85 0 0 0-2.4-.4 16.22 16.22 0 0 1-9.9 2.1 17 17 0 1 1 17.1-23.8 1.07 1.07 0 0 1-.6 1.4.6.6 0 0 1-.4.1h-16.3A1.79 1.79 0 0 0 114 47a1.5 1.5 0 0 0 .4 1.1l7.4 9.3a2.81 2.81 0 0 0 2.1 1h14.7a10 10 0 0 0 10-9.9v-1.2a31.1 31.1 0 0 0-27.8-27.84zm310.9 0a31.16 31.16 0 1 0-6.4 62 31.75 31.75 0 0 0 20.1-4.8 1.81 1.81 0 0 0 .5-2.6.1.1 0 0 0-.1-.1l-6.6-8.2a1.85 1.85 0 0 0-2.4-.4 16.22 16.22 0 0 1-9.9 2.1 17 17 0 1 1 17.1-23.8 1.07 1.07 0 0 1-.6 1.4.6.6 0 0 1-.4.1h-16.4a1.79 1.79 0 0 0-1.8 1.8 1.5 1.5 0 0 0 .4 1.1l7.4 9.3a2.81 2.81 0 0 0 2.1 1h14.7a10 10 0 0 0 10-9.9v-1.2a31 31 0 0 0-27.7-27.8z" data-name="Layer 1" style="fill:#4c3d89"/></g></svg>