<svg xmlns="http://www.w3.org/2000/svg" id="Layer_1" x="0" y="0" version="1.1" viewBox="0 0 500 500" xml:space="preserve"><style>.st4{display:none}.st7{fill:#fff}</style><path fill="#875a7b" fill-rule="evenodd" d="M-1-1h501v501H-1V-1z" clip-rule="evenodd"/><path fill="#fff" fill-opacity=".383" fill-rule="evenodd" d="M27.6 7.2h436.6c19.1 0 31 4.8 35.8 14.3V0H-1v21.5C3.8 11.9 13.3 7.2 27.6 7.2z" clip-rule="evenodd"/><path fill-opacity=".383" fill-rule="evenodd" d="M27.6 493.8h436.6c19.1 0 31-7.2 35.8-21.5V501H-1v-28.6c4.8 14.3 14.3 21.4 28.6 21.4z" clip-rule="evenodd"/><g class="st4"><path id="d_1_" d="M378.3 164.6v236.2c0 9.5-4.8 14.3-14.3 14.3H142.1c-9.5 0-14.3-4.8-14.3-14.3V114.5c0-9.5 4.8-14.3 14.3-14.3h144.3l91.9 64.4zm-93-50.1v57.3H364l-78.7-57.3zM364 400.8V186.1l-77.5.7c-8.4 0-15.5-7.2-15.5-15v-57.3H142.1v286.3H364zM235.9 260.4c0 18 58.3 13.4 58.3 47.7 0 16.4-12.8 30.4-33.5 33.3V355c0 1.9-1.7 3.4-3.8 3.4h-12.6c-2.1 0-3.8-1.5-3.8-3.4v-13.8c-12.5-1.9-23.6-7.1-31.2-13.7-1.4-1.1-1.6-3.1-.4-4.5l9.6-11.6c1.4-1.6 3.7-1.8 5.4-.6 7.9 5.7 18 10.3 27.7 10.3 11.3 0 16.4-6.1 16.4-11.8 0-16.8-58.3-13.1-58.3-48.5 0-15.1 12.2-27.3 30.7-31.1v-14.2c0-1.9 1.7-3.4 3.8-3.4h12.6c2.1 0 3.8 1.5 3.8 3.4V229c10.1 1.1 21.1 4.7 28.8 10.8 1.3 1.1 1.6 2.8.8 4.2l-7.4 12.5c-1.1 1.8-3.7 2.4-5.5 1.2-7.1-4.6-15.7-8.1-24.1-8.1-10.6-.2-17.3 4.1-17.3 10.8z" display="inline"/></g><g class="st4"><path id="e_1_" fill="#fff" d="M378.3 150.3v236.2c0 9.5-4.8 14.3-14.3 14.3H142.1c-9.5 0-14.3-4.8-14.3-14.3V100.2c0-9.5 4.8-14.3 14.3-14.3h143.1c14.4 7.1 71.7 50.1 93.1 64.4zm-93-42.9v50.1h71.6l-71.6-50.1zm71.6 271.9V178.9h-71.6c-14.3 0-21.5-7.2-21.5-21.5v-50.1H149.3v272h207.6zm-121-133.2c0 18 58.3 13.4 58.3 47.7 0 16.4-12.8 30.4-33.5 33.3v13.6c0 1.9-1.7 3.4-3.8 3.4h-12.6c-2.1 0-3.8-1.5-3.8-3.4v-13.8c-12.5-1.9-23.6-7.1-31.2-13.7-1.4-1.1-1.6-3.1-.4-4.5l9.6-11.6c1.4-1.6 3.7-1.8 5.4-.6 7.9 5.7 18 10.3 27.7 10.3 11.3 0 16.4-6.1 16.4-11.8 0-16.8-58.3-13.1-58.3-48.5 0-15.1 12.2-27.3 30.7-31.1v-14.2c0-1.9 1.7-3.4 3.8-3.4h12.6c2.1 0 3.8 1.5 3.8 3.4v13.5c10.1 1.1 21.1 4.7 28.8 10.8 1.3 1.1 1.6 2.8.8 4.2l-7.4 12.5c-1.1 1.8-3.7 2.4-5.5 1.2-7.1-4.6-15.7-8.1-24.1-8.1-10.6-.2-17.3 4.1-17.3 10.8z" display="inline"/></g><g><path d="M430.9 325.3c-31.8 0-57.6-25.8-57.6-57.6s25.8-57.6 57.6-57.6 57.6 25.8 57.6 57.6-25.8 57.6-57.6 57.6zm0-23.8c18.7 0 33.8-15.1 33.8-33.8 0-18.7-15.1-33.8-33.8-33.8-18.7 0-33.8 15.1-33.8 33.8s15.1 33.8 33.8 33.8zm-120.6 23.8c-31.8 0-57.6-25.8-57.6-57.6s25.8-57.6 57.6-57.6 57.6 25.8 57.6 57.6-25.8 57.6-57.6 57.6zm0-23.8c18.7 0 33.8-15.1 33.8-33.8 0-18.7-15.1-33.8-33.8-33.8-18.7 0-33.8 15.1-33.8 33.8s15.1 33.8 33.8 33.8zm-63-34.6c0 32.2-25.8 58.4-57.6 58.4s-57.6-26.1-57.6-58.3c0-32.2 23.4-56.9 57.6-56.9 12.6 0 24.3 2.7 33.8 9.7v-33.4c0-6.4 5.6-11.6 11.9-11.6 6.3 0 11.9 5.2 11.9 11.6v80.5zm-57.6 34.6c18.7 0 33.8-15.1 33.8-33.8 0-18.7-15.1-33.8-33.8-33.8s-33.8 15.1-33.8 33.8 15.1 33.8 33.8 33.8zM69.1 325.3c-31.8 0-57.6-25.8-57.6-57.6s25.8-57.6 57.6-57.6 57.6 25.8 57.6 57.6-25.8 57.6-57.6 57.6zm0-23.8c18.7 0 33.8-15.1 33.8-33.8 0-18.7-15.1-33.8-33.8-33.8S35.3 249 35.3 267.7s15.1 33.8 33.8 33.8z" class="st7"/></g></svg>