<svg xmlns="http://www.w3.org/2000/svg" id="iQmetrix_Logo" x="0" y="0" enable-background="new 0 0 24 24" version="1.1" viewBox="0 0 24 24" xml:space="preserve"><style>.st0{fill-rule:evenodd;clip-rule:evenodd;fill:#1A1A1A;} .st1{fill-rule:evenodd;clip-rule:evenodd;fill:none;} .st2{fill:#1A1A1A;} .st3{font-family:&apos;MyriadPro-Regular&apos;;} .st4{font-size:2.3044px;}</style><path d="M21.3 17.2H21l-.4.6.7 1.2h-.9l-.3-.5v-.1s0 .1-.1.1l-.2.5h-.9l.7-1.2-.8-1.2h.9l.3.5c0 .1.1.1.1.1s0-.1.1-.1l.3-.5h.8v.6zM10.6 8.7c.2-.2.5-.3.8-.3.3 0 .6.1.8.3.2.2.3.5.3.8 0 .3-.1.6-.3.8-.2.2-.5.3-.8.3-.3 0-.6-.1-.8-.3-.2-.2-.3-.5-.3-.8 0-.3.1-.6.3-.8zm-1.3-1c-.5.5-.7 1.1-.7 1.8s.2 1.3.7 1.8c0 .1.1.1.2.2.6.6 1.2.8 2 .8.6 0 1.1-.1 1.5-.4l-.6-.6 1.2-1.2.5.5c.2-.4.2-.7.2-1.1 0-.8-.3-1.5-.8-2-.6-.6-1.2-.8-2-.8s-1.5.3-2 .8c-.1.1-.2.1-.2.2zm-1 4.9C7.4 11.7 7 10.7 7 9.5c0-1.2.4-2.2 1.3-3.1.3-.3.6-.5.9-.7.6-.4 1.4-.6 2.2-.6 1.2 0 2.3.4 3.1 1.3.9.9 1.3 1.9 1.3 3.1 0 .9-.2 1.6-.6 2.3l1 1L15 14l-.9-.9c-.8.6-1.6.9-2.6.9-.8 0-1.5-.2-2.2-.6-.4-.2-.7-.5-1-.8zm-4.9 4.3c.1-.3.2-.5.4-.7.3-.3.7-.5 1.2-.5s.9.2 1.2.5c.3.3.5.7.5 1.2 0 .4-.1.7-.3 1l.3.3-.5.5-.2-.4c-.3.2-.6.3-1 .3-.5 0-.9-.2-1.2-.5-.2-.2-.3-.5-.4-.7 0-.1-.1-.3-.1-.5s0-.3.1-.5zm-1.6-.3h1.1V19h-.8v-1.8h-.3v-.6zm1.1-.9v.6h-.8v-.6h.8zm14.5 1.7h-.2c-.1 0-.2 0-.3.1-.1 0-.2.2-.3.3V19h-.8v-2.3h.8V17.3c0-.2.1-.3.3-.4.1-.1.3-.2.5-.2h.1v.7zm1.2-.7V19h-.8v-2.3h.8zm-.1-.9v.6h-.8v-.6h.8zm-3.2.9v.6h-.5v.7c0 .2.1.3.4.3h.1v.7h-.2c-.7 0-1.1-.3-1.1-.9v-.8h-.3v-.6h.3V16h.8v.7h.5zm-2.9.5c-.1 0-.2 0-.3.1-.1.1-.1.1-.1.2h.7c0-.1-.1-.2-.3-.3zm0-.6c.3 0 .6.1.8.3.2.2.3.5.3.8v.2H12c0 .1.1.2.2.3.1.1.2.1.3.1.2 0 .3 0 .5-.1.1-.1.2-.1.2-.1l.3.6s-.1.1-.3.2c-.2.1-.4.2-.7.2-.4 0-.7-.1-1-.4-.2-.2-.3-.5-.3-.8 0-.4.1-.6.3-.9.2-.2.5-.4.9-.4zm-1.6.9V19H10v-1.4c0-.2 0-.3-.2-.3s-.4.2-.4.4V19h-.8v-1.4c0-.2 0-.3-.2-.3s-.4.2-.4.4V19h-.8v-2.3H8V17c0-.1.1-.2.2-.3.1-.1.3-.1.4-.1.3 0 .5.1.7.4l.3-.3c.1-.1.3-.1.4-.1.2 0 .4.1.5.2.3.2.3.4.3.7zm-5.2-.8c-.2-.2-.4-.3-.6-.3-.2 0-.4.1-.6.3-.2.2-.3.4-.3.7 0 .3.1.5.3.7.2.2.4.3.6.3.1 0 .2 0 .4-.1L5 18l.4-.5.3.3c.1-.1.1-.3.1-.4.1-.3 0-.5-.2-.7z" class="st0"/><path d="M21.5 16.4H23.2V18.2H21.5z" class="st1"/><text class="st2 st3 st4" transform="translate(21.492 18.054)">®</text></svg>