<svg xmlns="http://www.w3.org/2000/svg" id="POS" viewBox="0 0 100 100"><defs><style>.cls-1{fill:#2e3b4e}</style></defs><g id="Square"><path d="M83.3 0H16.7A16.7 16.7 0 0 0 0 16.7v66.6A16.7 16.7 0 0 0 16.7 100h66.6A16.7 16.7 0 0 0 100 83.3V16.7A16.7 16.7 0 0 0 83.3 0zm-1.5 76.6a5.3 5.3 0 0 1-5.3 5.3h-53a5.3 5.3 0 0 1-5.3-5.3V23.5a5.3 5.3 0 0 1 5.3-5.3h53a5.3 5.3 0 0 1 5.3 5.3v53.1z" class="cls-1"/><path d="M39.4 63.6a3 3 0 0 1-3-3V39.4a3 3 0 0 1 3-3h21.2a3 3 0 0 1 3 3v21.2a3 3 0 0 1-3 3H39.4z" class="cls-1"/></g></svg>