<svg xmlns="http://www.w3.org/2000/svg" data-name="Layer 1" viewBox="0 0 360 360"><path d="M-7.85-10.37h381.37v381.85H-7.85z" style="fill:#1655aa"/><path d="M261 226.71c0 21.88-6.05 41.06-17.16 55.52-12.79 16.16-31.63 24.92-53.51 24.92H119a16.55 16.55 0 0 1-16.51-16.5V54.4A16.54 16.54 0 0 1 119 37.9h62.94c19.17 0 36 7.75 47.78 21.87 10.77 12.8 16.83 30 16.83 48.81s-6.06 36.34-16.83 49.14a.32.32 0 0 1-.33.33 68.2 68.2 0 0 1 14.47 13.46C254.94 186 261 204.83 261 226.71M135.45 70.89v75.38h47.12c22.89 0 31-20.19 31-37.69 0-17.17-8.43-37.69-31.64-37.69ZM228 226.71c0-22.89-9.76-47.13-37.69-47.46h-54.86v94.91h54.87c27.93 0 37.69-24.57 37.69-47.45" style="fill:#fff"/></svg>