<svg xmlns="http://www.w3.org/2000/svg" id="Layer_1" x="0" y="0" style="enable-background:new 0 0 612 792" version="1.1" viewBox="0 0 612 792" xml:space="preserve"><style>.st0{fill:#fff}</style><path d="M568.67 338.48v331.24H49.26V471.07c.14 0 .28 0 .42-.01 40.54 0 81.08 0 121.63.01 67.57 0 135.14 0 202.71.01.03.88.08 1.75.08 2.63 0 63.92 0 127.84.01 191.76 0 .88.03 1.76.05 2.63l-.06.94c.08.03.16.05.24.08.18-.32.36-.64.53-.97.26-.39.54-.77.78-1.18 3.57-6.08 7.14-12.17 10.71-18.26 2.82-4.82 5.62-9.64 8.44-14.45 2.4-4.1 4.78-8.2 7.2-12.29 1.5-2.53 3.08-5.02 4.57-7.56 4.45-7.57 8.89-15.15 13.3-22.75 3.44-5.92 6.79-11.89 10.25-17.8 2.16-3.7 4.46-7.31 6.66-10.99 2.27-3.8 4.49-7.63 6.75-11.44 3.11-5.26 6.25-10.52 9.34-15.79 2.39-4.07 4.73-8.16 7.11-12.23 1.35-2.31 2.72-4.61 4.07-6.93 4.03-6.92 8.03-13.86 12.1-20.75 3.55-6.02 7.21-11.98 10.74-18.01 6.03-10.31 11.98-20.67 18.01-30.99 2.28-3.91 4.69-7.76 7-11.66 4.09-6.91 8.14-13.84 12.21-20.75 3-5.09 6.04-10.17 9.03-15.27 4.46-7.6 8.89-15.22 13.34-22.83 3.46-5.92 6.93-11.83 10.41-17.74 2.63-4.47 5.3-8.92 7.9-13.42 1.24-2.15 2.36-4.36 3.53-6.55l.18.02.17-.05zM243.89 139.4h324.78v198.68H247.19c-.94 0-1.89-.06-2.83-.1V142.19c0-.54.03-1.09-.04-1.62-.03-.23-.25-.43-.39-.64-.01-.18-.02-.36-.04-.53z" class="st0"/><path d="M243.89 139.4c.02.18.03.35.05.53-.14.3-.24.62-.41.91-2.78 4.78-5.56 9.57-8.35 14.34-5.8 9.9-11.62 19.78-17.43 29.67-5.67 9.66-11.34 19.32-17.02 28.98-3.95 6.72-7.91 13.44-11.86 20.16-1.9 3.24-3.8 6.47-5.7 9.71-1.87 3.18-3.74 6.36-5.6 9.54-3.79 6.44-7.57 12.89-11.36 19.33l-11.76 20.01c-1.97 3.36-3.95 6.72-5.92 10.08l-10.86 18.51c-5.84 9.95-11.69 19.9-17.54 29.84-3.81 6.49-7.63 12.98-11.44 19.47-2.04 3.47-4.09 6.93-6.13 10.4-3.59 6.11-7.16 12.23-10.75 18.33l-18.03 30.66-5.31 9.03c-2.12 3.61-4.23 7.22-6.36 10.82-4.05 6.86-8.1 13.71-12.15 20.56-.09.26-.17.51-.26.77-.14 0-.28 0-.42.01V139.39c64.86.01 129.73.01 194.61.01z" class="st0"/><path d="M244.36 337.98c.94.03 1.89.1 2.83.1h321.48v.41l-.18.02-.18-.02c-1.01 0-2.03-.01-3.04-.01H247.19c-.68 0-1.36.04-2.02-.03-.29-.03-.54-.31-.81-.47z" style="fill:#3f6cff"/><path d="M244.36 337.98c.27.17.52.44.8.47.67.07 1.35.03 2.02.03h318.08c1.01 0 2.03 0 3.04.01-1.17 2.19-2.29 4.4-3.53 6.55-2.6 4.49-5.27 8.94-7.9 13.42-3.48 5.91-6.95 11.82-10.41 17.74-4.45 7.61-8.88 15.23-13.34 22.83-2.99 5.1-6.03 10.18-9.03 15.27-4.08 6.91-8.12 13.84-12.21 20.75-2.31 3.9-4.71 7.75-7 11.66-6.02 10.32-11.97 20.68-18.01 30.99-3.53 6.03-7.19 11.99-10.74 18.01-4.06 6.9-8.06 13.84-12.1 20.75-1.35 2.31-2.72 4.61-4.07 6.93-2.37 4.07-4.72 8.17-7.11 12.23-3.1 5.27-6.23 10.52-9.34 15.79-2.25 3.81-4.47 7.64-6.75 11.44-2.2 3.68-4.5 7.29-6.66 10.99-3.46 5.91-6.81 11.88-10.25 17.8-4.41 7.6-8.85 15.18-13.3 22.75-1.49 2.54-3.07 5.03-4.57 7.56-2.42 4.09-4.8 8.19-7.2 12.29-2.81 4.82-5.62 9.64-8.44 14.45-3.56 6.09-7.13 12.17-10.71 18.26-.24.41-.52.79-.78 1.18-.24-.02-.48-.03-.72-.05-.02-.88-.05-1.76-.05-2.63 0-63.92 0-127.84-.01-191.76 0-.88-.05-1.75-.08-2.63-.69-.83-1.62-.39-2.42-.39-106.25-.02-212.5-.02-318.76-.02-.68 0-1.35.03-2.03-.02-.3-.02-.59-.23-.88-.35 4.05-6.85 8.1-13.71 12.15-20.56 2.13-3.6 4.24-7.21 6.36-10.82l5.31-9.03 18.03-30.66c3.59-6.11 7.17-12.22 10.75-18.33 2.04-3.47 4.09-6.93 6.13-10.4 3.82-6.49 7.63-12.98 11.44-19.47 5.85-9.95 11.69-19.89 17.54-29.84l10.86-18.51c1.97-3.36 3.95-6.72 5.92-10.08l11.76-20.01c3.79-6.44 7.57-12.89 11.36-19.33 1.87-3.18 3.74-6.36 5.6-9.54 1.9-3.24 3.8-6.47 5.7-9.71 3.95-6.72 7.91-13.44 11.86-20.16 5.68-9.66 11.35-19.32 17.02-28.98 5.81-9.89 11.63-19.78 17.43-29.67 2.8-4.77 5.57-9.56 8.35-14.34.17-.29.28-.61.41-.91.14.21.36.42.39.64.06.53.04 1.08.04 1.62.05 65.26.05 130.52.05 195.79z" style="fill:#006cff"/><path d="M49.94 470.29c.29.12.58.33.88.35.67.05 1.35.02 2.03.02 106.25 0 212.5 0 318.76.02.8 0 1.73-.44 2.42.39-67.57 0-135.14 0-202.71-.01-40.54 0-81.08 0-121.63-.01.08-.24.17-.5.25-.76z" style="fill:#bfffff"/><path d="M374.16 668.1c.24.02.48.03.72.05-.18.32-.36.64-.53.97-.08-.03-.16-.05-.24-.08.01-.32.03-.63.05-.94z" style="fill:#4091ff"/></svg>