<svg xmlns="http://www.w3.org/2000/svg" viewBox="0 0 703.52 433.83"><defs><clipPath id="clip-path" transform="translate(0 18.02)"><path d="m432.21 29.24-2.57 14.63H415l2.58-14.63Zm0 0 2.19-12.41C380.53 24 331.88 69.18 322.26 123.73c-6.34 36-40.77 65.23-76.74 65.23s-60.08-29.26-53.73-65.23 40.77-65.24 76.74-65.24c16.79 0 31 6.38 40.73 16.85a164 164 0 0 1 27.56-38c-15.64-13.5-36.58-21.49-60.77-21.49-59.5 0-116.44 48.4-126.94 107.91S178.49 231.64 238 231.64s116.45-48.41 126.93-107.91c5.46-30.95 31.7-56.91 61.83-63.57l.3-1.67 2.58-14.62Z" style="fill:none"/></clipPath><style>.cls-2{fill:#088bcc}.cls-3{fill:#34beb9}.cls-10{fill:#138dc9}.cls-11{fill:#168ec9}.cls-12{fill:#158ec9}.cls-14{fill:#198fc8}.cls-16{fill:#188fc8}.cls-17{fill:#1b90c8}.cls-18{fill:#1a90c8}.cls-20{fill:#1d91c8}.cls-22{fill:#1c92c8}.cls-24{fill:#1f92c7}.cls-26{fill:#2293c7}.cls-27{fill:#2194c7}.cls-28{fill:#2094c7}.cls-30{fill:#2295c7}.cls-31{fill:#2395c6}.cls-32{fill:#2595c6}.cls-33{fill:#2496c6}.cls-34{fill:#2797c6}.cls-35{fill:#2697c6}.cls-37{fill:#2898c6}.cls-39{fill:#2898c5}.cls-41{fill:#2a99c5}.cls-42{fill:#299ac5}.cls-45{fill:#2c9ac4}.cls-50{fill:#2d9bc4}.cls-51{fill:#2d9cc4}.cls-53{fill:#2f9dc4}.cls-55{fill:#319dc3}.cls-56{fill:#309ec3}.cls-59{fill:#339ec2}.cls-60{fill:#329fc3}.cls-63{fill:#34a0c2}.cls-64{fill:#35a1c2}.cls-65{fill:#36a1c2}.cls-66{fill:#35a1c1}.cls-67{fill:#37a2c1}.cls-68{fill:#37a3c1}.cls-69{fill:#39a3c1}.cls-71{fill:#38a4c1}.cls-73{fill:#3aa4c0}.cls-76{fill:#3ba6c0}.cls-78{fill:#3da6bf}.cls-80{fill:#3da7bf}.cls-82{fill:#3ea8bf}.cls-83{fill:#3ea8be}.cls-84{fill:#40a9be}.cls-85{fill:#3fa9be}.cls-87{fill:#41aabe}.cls-88{fill:#41aabd}.cls-90{fill:#42abbd}.cls-91{fill:#42acbd}.cls-94{fill:#44acbc}.cls-95{fill:#43adbc}.cls-97{fill:#45aebc}.cls-99{fill:#46aebb}.cls-100{fill:#46afbb}.cls-104{fill:#47b0ba}.cls-106{fill:#49b1ba}.cls-109{fill:#4ab2b9}.cls-110{fill:#4ab3b9}.cls-112{fill:#4bb3b8}.cls-113{fill:#4bb4b8}.cls-114{fill:#4db4b8}.cls-115{fill:#4db5b7}.cls-117{fill:#4eb6b7}.cls-119{fill:#4fb6b6}.cls-120{fill:#4fb7b6}.cls-123{fill:#50b8b5}.cls-125{fill:#52b9b5}.cls-127{fill:#52b9b4}.cls-129{fill:#53bab4}.cls-130{fill:#53bbb4}.cls-131{fill:#54bbb3}.cls-132{fill:#54bcb3}.cls-133{fill:#54bcb2}.cls-134{fill:#55bdb3}.cls-135{fill:#55bdb2}.cls-136{fill:#56beb2}.cls-137{fill:#56beb1}.cls-138{fill:#56bfb2}.cls-139{fill:#56bfb1}.cls-140{fill:#57bfb1}.cls-141{fill:#57c0b2}.cls-142{fill:#57c0b1}.cls-143{fill:#56c1b1}.cls-144{fill:#57c1b1}.cls-145{fill:#58c1b1}.cls-146{fill:#58c2b1}</style></defs><g id="Layer_2" data-name="Layer 2"><g id="Layer_1-2" data-name="Layer 1"><path d="M69.85 378.17c-9.54 4-21.58 5.35-32.12 5.35-29.44 0-41.32-12.52-36.8-44.33 4.35-30.78 15.89-42.49 45.5-42.49 10 0 22.92 1.51 31.62 5.35l-3.35 15.06c-9.7-.17-18.9-.33-24.92-.33-14.89 0-20.75 4.35-23.09 23.58-2.51 19.91 1.17 23.09 15.39 23.09a197.4 197.4 0 0 0 26.1-1.51ZM133.25 314.94c-15.39 0-19.91 2.34-22.92 24.08-3 21.25-1.84 24.76 6.19 24.43 8.53-.17 16.4-6.19 24.76-15.56l4.72-32.95Zm8.7 66.57.17-14.88a43.15 43.15 0 0 1-33.8 16.89c-20.9.67-27.6-12.88-22.91-44.83 5.52-38.48 21.41-42 46-42 12.05 0 31.45 2.51 41 5l-11.2 79.79ZM246.5 319.62h-6c-7.53 0-15.06 3.68-27.6 10.21l-7 51.68h-24.8L192.64 299h19.23v15.57c12.38-11.68 24.43-17.87 35.13-17.87h5ZM301.87 314.1c-15.89 0-19.4 2.68-22.42 24.92-2.5 18.57-1.83 23.93 6.36 23.6 8.53-.17 15.22-4.52 24.26-12.55l5-36Zm28.61 67.41h-19.41v-15.05c-8.2 8.36-20.07 17.06-34.29 17.06-17.57 0-26.77-11.87-22.42-44.83 5-36.13 18.74-42 37.14-42a171 171 0 0 1 26.6 2.18 140 140 0 0 1 1.17-16.23l3-18.23H347ZM384.84 262.58c5.19 0 7.53 2.84 7 7.69l-1.17 9c-.67 4.68-3 6.69-8 6.69h-10.54c-5 0-7.36-2.68-6.69-7.69l1.17-8.87c.5-4.69 2.84-6.86 7.86-6.86Zm-33.62 118.93L362.76 299h24.59l-11.54 82.47ZM427.5 315.44c12.55-12.21 25.26-18.74 37.64-18.74 13.55 0 22.58 8 20.24 23.42l-8.7 61.39h-24.59l7.53-54c1-7.86-.17-10-5.52-9.87-7.53.17-14.89 4.52-25.76 13.05l-7 50.85h-24.79L408.1 299h19.4ZM530.55 262.58c5.18 0 7.52 2.84 7 7.69l-1.18 9c-.67 4.68-3 6.69-8 6.69h-10.54c-5 0-7.35-2.68-6.69-7.69l1.17-8.87c.5-4.69 2.85-6.86 7.87-6.86Zm-33.63 118.93L508.47 299h24.59l-11.55 82.47ZM578.06 355.09c-.84 6.19.33 7.86 7.19 7.86h11l1.17 17.39c-6.52 2.35-17.9 3.18-23.09 3.18-15.55 0-23.58-9.2-21.41-24.25l6.36-43.66h-14.85l2-15.73 15.22-.84L565 276h24.25l-3.17 23h22.75l-2.34 16.57h-22.91ZM703.52 299c-4.85 26.6-15.39 55-25.1 72.94-17.39 31.62-35.79 42-60.89 43.83l-3-15.23c12.55-3.34 22.92-6.52 32.79-19.07h-9.87a10.31 10.31 0 0 1-10.37-8.36L613.52 299h26.6l7.88 63.11a2.9 2.9 0 0 0 2.84 2.68h6.7l.66-1.51c9-18.74 14.72-36.63 19.24-64.24Z" class="cls-2" transform="translate(0 18.02)"/><path d="M451.99 18.02h-14.62l-2.58 14.62h14.62l2.58-14.62z" class="cls-3"/><path d="M478.66 32.64h-14.62l-2.58 14.62h14.62l2.58-14.62z" class="cls-2"/><path d="M490.7 47.26h-14.62l-2.58 14.62h14.62l2.58-14.62zM495.86 18.02h-14.63l-2.57 14.62h14.62l2.58-14.62z" class="cls-3"/><path d="M500.17 76.5h-14.62l-2.58 14.63h14.62l2.58-14.63h29.24l2.58-14.62h-14.62l2.58-14.62h14.62l2.58-14.62h-14.62l-2.58 14.62h-14.63l2.58-14.62h-14.62l-2.58 14.62-2.58 14.62h14.63l-2.58 14.62z" class="cls-2"/><path d="M529.41 76.5h-14.62l-2.58 14.63h14.62l2.58-14.63z" class="cls-3"/><path d="M544.03 76.5h-14.62l-2.58 14.63h14.63l2.57-14.63z" class="cls-2"/><path d="M507.06 120.37h-14.63l-2.58 14.62h14.63l2.58-14.62z" class="cls-3"/><path d="M509.63 105.75h-14.62l-2.58 14.62h14.63l2.57-14.62zM519.1 134.99h-14.62l-2.58 14.63h14.62l2.58-14.63z" class="cls-2"/><path d="M524.25 105.75h-14.62l-2.57 14.62h14.62l2.57-14.62z" class="cls-3"/><path d="M526.83 91.13h-14.62l-2.58 14.62h14.62l2.58-14.62zM556.08 91.13h-14.62l-2.58 14.62h14.62l2.58-14.62zM521.68 120.37l-2.58 14.62h14.62l2.58-14.62 2.58-14.62h-14.63l-2.57 14.62z" class="cls-2"/><path d="M550.92 120.37H536.3l-2.58 14.62h14.62l2.58-14.62z" class="cls-3"/><path d="M508.79 175.46h-14.63l-2.57 14.63H477l2.58-14.63h-14.66l-2.58 14.63h-14.62l-2.58 14.62h-9.48l-2.58 14.62h14.62l2.58-14.62h9.48l2.58-14.62H477l-2.57 14.62h29.24l2.58-14.62Zm-38.72-29.24h-14.62l-2.58 14.62h14.63Z" class="cls-2" transform="translate(0 18.02)"/><path d="M496.74 178.86h-14.62l-2.58 14.62h14.62l2.58-14.62z" class="cls-3"/><path d="M525.99 178.86h-14.62l2.57-14.62h-14.62l-2.58 14.62h14.63l-2.58 14.62h14.62l2.58-14.62h14.62l2.58-14.62h-14.62l-2.58 14.62z" class="cls-2"/><path d="M523.41 193.48h-14.62l-2.58 14.62h14.62l2.58-14.62zM531.14 149.62h-14.62l-2.58 14.62h14.63l2.57-14.62zM433.1 208.1h-14.62l-2.58 14.63h14.62l2.58-14.63z" class="cls-3"/><path d="M421.05 193.48h-14.62l-2.58 14.62h14.63l2.57-14.62z" class="cls-2"/><path d="M391.81 193.48h-14.62l-2.58 14.62h14.62l2.58-14.62z" class="cls-3"/><path d="M389.23 208.1h-14.62l-2.58 14.63h14.62l-2.58 14.62h14.62l-2.57 14.62h14.62l2.58-14.62h-14.63l2.59-14.62h-14.63l2.58-14.63z" class="cls-2"/><path d="M403.85 208.1h-14.62l-2.58 14.63h14.63l2.57-14.63zM409.01 178.86h-14.62l-2.58 14.62h14.62l2.58-14.62z" class="cls-3"/><g style="clip-path:url(#clip-path)"><path d="M295.53 138.29h245.71v.69H295.53z" style="fill:#0f8cca" transform="rotate(-82.7 428.636 147.638)"/><path d="M294.94 137.82h245.71v1.49H294.94z" style="fill:#0d8cca" transform="rotate(-82.68 428.032 147.569)"/><path d="M293.95 137.69h245.71v1.49H293.95z" style="fill:#138cca" transform="rotate(-82.68 427.058 147.438)"/><path d="M292.97 137.56h245.71v1.49H292.97z" style="fill:#148cc9" transform="rotate(-82.67 426.077 147.31)"/><path d="M291.98 137.44h245.71v1.49H291.98z" style="fill:#128dca" transform="rotate(-82.67 425.098 147.185)"/><path d="M290.99 137.31H536.7v1.49H290.99z" class="cls-10" transform="rotate(-82.68 424.084 147.07)"/><path d="M290.01 137.18h245.71v1.49H290.01z" class="cls-10" transform="rotate(-82.68 423.084 146.946)"/><path d="M289.02 137.06h245.71v1.49H289.02z" class="cls-11" transform="rotate(-82.68 422.11 146.816)"/><path d="M288.04 136.93h245.71v1.49H288.04z" class="cls-11" transform="rotate(-82.68 421.126 146.685)"/><path d="M287.05 136.8h245.71v1.49H287.05z" class="cls-12" transform="rotate(-82.67 420.149 146.552)"/><path d="M286.06 136.68h245.71v1.49H286.06z" class="cls-12" transform="rotate(-82.67 419.16 146.428)"/><path d="M285.08 136.55h245.71v1.49H285.08z" class="cls-11" transform="rotate(-82.68 418.168 146.3)"/><path d="M284.09 136.42H529.8v1.49H284.09z" style="fill:#188fc9" transform="rotate(-82.68 417.189 146.176)"/><path d="M283.11 136.29h245.71v1.49H283.11z" class="cls-14" transform="rotate(-82.68 416.204 146.046)"/><path d="M282.12 136.17h245.71v1.49H282.12z" class="cls-14" transform="rotate(-82.67 415.232 145.918)"/><path d="M281.13 136.04h245.71v1.49H281.13z" style="fill:#178fc9" transform="rotate(-82.67 414.232 145.794)"/><path d="M280.15 135.91h245.71v1.49H280.15z" class="cls-16" transform="rotate(-82.68 413.236 145.672)"/><path d="M279.16 135.79h245.71v1.49H279.16z" class="cls-16" transform="rotate(-82.68 412.246 145.548)"/><path d="M278.18 135.66h245.71v1.49H278.18z" class="cls-17" transform="rotate(-82.68 411.262 145.418)"/><path d="M277.19 135.53H522.9v1.49H277.19z" class="cls-17" transform="rotate(-82.5 411.207 145.454)"/><path d="M276.2 135.41h245.71v1.49H276.2z" class="cls-17" transform="rotate(-82.66 409.295 145.164)"/><path d="M275.22 135.28h245.71v1.49H275.22z" class="cls-18" transform="rotate(-82.65 408.327 145.032)"/><path d="M274.23 135.15h245.71v1.49H274.23z" class="cls-18" transform="rotate(-82.66 407.32 144.91)"/><path d="M273.25 135.03h245.71v1.49H273.25z" style="fill:#1e91c8" transform="rotate(-82.66 406.347 144.78)"/><path d="M272.26 134.9h245.71v1.49H272.26z" class="cls-20" transform="rotate(-82.66 405.362 144.65)"/><path d="M271.27 134.77h245.71v1.49H271.27z" class="cls-20" transform="rotate(-82.66 404.367 144.531)"/><path d="M270.29 134.65H516v1.49H270.29z" style="fill:#1e91c7" transform="rotate(-82.66 403.378 144.407)"/><path d="M269.3 134.52h245.71v1.49H269.3z" class="cls-22" transform="rotate(-82.65 402.398 144.275)"/><path d="M268.32 134.39h245.71v1.49H268.32z" class="cls-22" transform="rotate(-82.5 402.31 144.313)"/><path d="M267.33 134.26h245.71v1.49H267.33z" style="fill:#2092c7" transform="rotate(-82.66 400.419 144.023)"/><path d="M266.34 134.14h245.71v1.49H266.34z" class="cls-24" transform="rotate(-82.5 400.337 144.064)"/><path d="M265.36 134.01h245.71v1.49H265.36z" class="cls-24" transform="rotate(-82.66 398.444 143.768)"/><path d="M264.37 133.88h245.71v1.49H264.37z" class="cls-24" transform="rotate(-82.66 397.465 143.643)"/><path d="M263.39 133.76H509.1v1.49H263.39z" style="fill:#1e93c7" transform="rotate(-82.65 396.501 143.506)"/><path d="M262.4 133.63h245.71v1.49H262.4z" class="cls-26" transform="rotate(-82.66 395.506 143.383)"/><path d="M261.41 133.5h245.71v1.49H261.41z" class="cls-26" transform="rotate(-82.5 395.514 143.38)"/><path d="M260.43 133.38h245.71v1.49H260.43z" class="cls-27" transform="rotate(-82.68 393.523 143.13)"/><path d="M259.44 133.25h245.71v1.49H259.44z" class="cls-27" transform="rotate(-82.68 392.534 143.006)"/><path d="M258.46 133.12h245.71v1.49H258.46z" class="cls-28" transform="rotate(-82.68 391.533 142.882)"/><path d="M257.47 133h245.71v1.49H257.47z" class="cls-28" transform="rotate(-82.67 390.574 142.75)"/><path d="M256.48 132.87h245.71v1.49H256.48z" style="fill:#2494c7" transform="rotate(-82.68 389.575 142.621)"/><path d="M255.5 132.74h245.71v1.49H255.5z" class="cls-30" transform="rotate(-82.68 388.58 142.503)"/><path d="M254.51 132.62h245.71v1.49H254.51z" class="cls-31" transform="rotate(-82.68 387.607 142.372)"/><path d="M253.53 132.49h245.71v1.49H253.53z" class="cls-31" transform="rotate(-82.68 386.622 142.242)"/><path d="M252.54 132.36h245.71v1.49H252.54z" class="cls-30" transform="rotate(-82.67 385.652 142.11)"/><path d="M251.55 132.23h245.71v1.49H251.55z" class="cls-32" transform="rotate(-82.67 384.668 141.98)"/><path d="M250.57 132.11h245.71v1.49H250.57z" class="cls-32" transform="rotate(-82.68 383.659 141.863)"/><path d="M249.58 131.98h245.71v1.49H249.58z" class="cls-33" transform="rotate(-82.68 382.67 141.738)"/><path d="M248.6 131.85h245.71v1.49H248.6z" class="cls-33" transform="rotate(-82.68 381.68 141.614)"/><path d="M247.61 131.73h245.71v1.49H247.61z" class="cls-33" transform="rotate(-82.68 380.69 141.49)"/><path d="M246.62 131.6h245.71v1.49H246.62z" class="cls-34" transform="rotate(-82.67 379.74 141.347)"/><path d="M245.64 131.47h245.71v1.49H245.64z" class="cls-34" transform="rotate(-82.67 378.74 141.223)"/><path d="M244.65 131.35h245.71v1.49H244.65z" class="cls-34" transform="rotate(-82.68 377.743 141.104)"/><path d="M243.67 131.22h245.71v1.49H243.67z" class="cls-35" transform="rotate(-82.68 376.758 140.974)"/><path d="M242.68 131.09h245.71v1.49H242.68z" class="cls-35" transform="rotate(-82.66 375.774 140.85)"/><path d="M241.69 130.97H487.4v1.49H241.69z" style="fill:#2697c5" transform="rotate(-82.66 374.8 140.72)"/><path d="M240.71 130.84h245.71v1.49H240.71z" class="cls-37" transform="rotate(-82.66 373.8 140.596)"/><path d="M239.72 130.71h245.71v1.49H239.72z" class="cls-37" transform="rotate(-82.65 372.832 140.46)"/><path d="M238.74 130.59h245.71v1.49H238.74z" style="fill:#2998c5" transform="rotate(-82.5 372.678 140.505)"/><path d="M237.75 130.46h245.71v1.49H237.75z" class="cls-39" transform="rotate(-82.5 371.68 140.386)"/><path d="M236.77 130.33h245.71v1.49H236.77z" class="cls-39" transform="rotate(-82.66 369.856 140.092)"/><path d="M235.78 130.2h245.71v1.49H235.78z" style="fill:#2b99c5" transform="rotate(-82.66 368.871 139.962)"/><path d="M234.79 130.08H480.5v1.49H234.79z" class="cls-41" transform="rotate(-82.5 368.715 140.002)"/><path d="M233.81 129.95h245.71v1.49H233.81z" class="cls-41" transform="rotate(-82.66 366.897 139.708)"/><path d="M232.82 129.82h245.71v1.49H232.82z" class="cls-42" transform="rotate(-82.5 366.763 139.741)"/><path d="M231.84 129.7h245.71v1.49H231.84z" class="cls-42" transform="rotate(-82.66 364.923 139.454)"/><path d="M230.85 129.57h245.71v1.49H230.85z" style="fill:#2a9ac4" transform="rotate(-82.5 364.784 139.487)"/><path d="M229.86 129.44h245.71v1.49H229.86z" style="fill:#2b9ac5" transform="rotate(-82.66 362.954 139.205)"/><path d="M228.88 129.32h245.71v1.49H228.88z" class="cls-45" transform="rotate(-82.65 361.975 139.07)"/><path d="M227.89 129.19H473.6v1.49H227.89z" class="cls-45" transform="rotate(-82.66 360.984 138.945)"/><path d="M226.91 129.06h245.71v1.49H226.91z" style="fill:#2b9bc5" transform="rotate(-82.68 359.988 138.823)"/><path d="M225.92 128.94h245.71v1.49H225.92z" style="fill:#2b9bc4" transform="rotate(-82.68 359.009 138.687)"/><path d="M224.93 128.81h245.71v1.49H224.93z" style="fill:#2e9bc4" transform="rotate(-82.68 358.014 138.569)"/><path d="M223.95 128.68h245.71v1.49H223.95z" style="fill:#2d9bc5" transform="rotate(-82.68 357.04 138.438)"/><path d="M222.96 128.56h245.71v1.49H222.96z" class="cls-50" transform="rotate(-82.67 356.056 138.31)"/><path d="M221.98 128.43h245.71v1.49H221.98z" class="cls-50" transform="rotate(-82.5 355.95 138.32)"/><path d="M220.99 128.3H466.7v1.49H220.99z" class="cls-51" transform="rotate(-82.68 354.093 138.053)"/><path d="M220 128.18h245.71v1.49H220z" class="cls-51" transform="rotate(-82.68 353.093 137.929)"/><path d="M219.02 128.05h245.71v1.49H219.02z" style="fill:#2f9cc4" transform="rotate(-82.68 352.114 137.804)"/><path d="M218.03 127.92h245.71v1.49H218.03z" class="cls-53" transform="rotate(-82.68 351.124 137.68)"/><path d="M217.05 127.79h245.71v1.49H217.05z" class="cls-53" transform="rotate(-82.67 350.144 137.546)"/><path d="M216.06 127.67h245.71v1.49H216.06z" class="cls-53" transform="rotate(-82.67 349.155 137.421)"/><path d="M215.07 127.54h245.71v1.49H215.07z" style="fill:#2e9dc3" transform="rotate(-82.68 348.166 137.295)"/><path d="M214.09 127.41H459.8v1.49H214.09z" class="cls-55" transform="rotate(-82.68 347.166 137.17)"/><path d="M213.1 127.29h245.71v1.49H213.1z" class="cls-55" transform="rotate(-82.68 346.192 137.04)"/><path d="M212.12 127.16h245.71v1.49H212.12z" class="cls-56" transform="rotate(-82.68 345.213 136.915)"/><path d="M211.13 127.03h245.71v1.49H211.13z" class="cls-56" transform="rotate(-82.5 345.082 136.93)"/><path d="M210.14 126.91h245.71v1.49H210.14z" style="fill:#319ec3" transform="rotate(-82.67 343.259 136.651)"/><path d="M209.16 126.78h245.71v1.49H209.16z" style="fill:#329ec3" transform="rotate(-82.68 342.25 136.536)"/><path d="M208.17 126.65h245.71v1.49H208.17z" class="cls-59" transform="rotate(-82.5 342.048 136.578)"/><path d="M207.19 126.53H452.9v1.49H207.19z" class="cls-59" transform="rotate(-82.5 341.061 136.448)"/><path d="M206.2 126.4h245.71v1.49H206.2z" class="cls-60" transform="rotate(-82.66 339.277 136.158)"/><path d="M205.21 126.27h245.71v1.49H205.21z" style="fill:#329fc2" transform="rotate(-82.65 338.317 136.024)"/><path d="M204.23 126.15h245.71v1.49H204.23z" class="cls-60" transform="rotate(-82.5 338.09 136.07)"/><path d="M203.24 126.02h245.71v1.49H203.24z" style="fill:#34a0c3" transform="rotate(-82.5 337.099 135.945)"/><path d="M202.26 125.89h245.71v1.49H202.26z" class="cls-63" transform="rotate(-82.5 336.122 135.815)"/><path d="M201.27 125.76h245.71v1.49H201.27z" class="cls-63" transform="rotate(-82.66 334.365 135.518)"/><path d="M200.28 125.64h245.71v1.49H200.28z" class="cls-63" transform="rotate(-82.5 334.154 135.56)"/><path d="M199.3 125.51h245.71V127H199.3z" class="cls-63" transform="rotate(-82.65 332.404 135.261)"/><path d="M198.31 125.38h245.71v1.49H198.31z" class="cls-64" transform="rotate(-82.66 331.401 135.14)"/><path d="M197.33 125.26h245.71v1.49H197.33z" class="cls-65" transform="rotate(-82.5 331.178 135.177)"/><path d="M196.34 125.13h245.71v1.49H196.34z" class="cls-65" transform="rotate(-82.66 329.422 134.891)"/><path d="M195.35 125h245.71v1.49H195.35z" class="cls-64" transform="rotate(-82.5 329.205 134.928)"/><path d="M194.37 124.88h245.71v1.49H194.37z" class="cls-66" transform="rotate(-82.66 327.458 134.636)"/><path d="M193.38 124.75h245.71v1.49H193.38z" class="cls-66" transform="rotate(-82.67 326.482 134.507)"/><path d="M192.4 124.62h245.71v1.49H192.4z" class="cls-67" transform="rotate(-82.67 325.508 134.376)"/><path d="M191.41 124.5h245.71v1.49H191.41z" class="cls-67" transform="rotate(-82.68 324.495 134.255)"/><path d="M190.42 124.37h245.71v1.49H190.42z" class="cls-67" transform="rotate(-82.68 323.521 134.124)"/><path d="M189.44 124.24h245.71v1.49H189.44z" class="cls-68" transform="rotate(-82.68 322.537 133.994)"/><path d="M188.45 124.12h245.71v1.49H188.45z" class="cls-68" transform="rotate(-82.68 321.547 133.87)"/><path d="M187.47 123.99h245.71v1.49H187.47z" class="cls-69" transform="rotate(-82.67 320.564 133.738)"/><path d="M186.48 123.86h245.71v1.49H186.48z" class="cls-69" transform="rotate(-82.67 319.58 133.619)"/><path d="M185.49 123.73H431.2v1.49H185.49z" class="cls-69" transform="rotate(-82.68 318.573 133.491)"/><path d="M184.51 123.61h245.71v1.49H184.51z" style="fill:#39a3c0" transform="rotate(-82.68 317.6 133.36)"/><path d="M183.52 123.48h245.71v1.49H183.52z" class="cls-71" transform="rotate(-82.68 316.605 133.242)"/><path d="M182.54 123.35h245.71v1.49H182.54z" class="cls-71" transform="rotate(-82.67 315.637 133.105)"/><path d="M181.55 123.23h245.71v1.49H181.55z" style="fill:#3ba4c0" transform="rotate(-82.67 314.658 132.98)"/><path d="M180.56 123.1h245.71v1.49H180.56z" class="cls-73" transform="rotate(-82.68 313.657 132.857)"/><path d="M179.58 122.97h245.71v1.49H179.58z" class="cls-73" transform="rotate(-82.68 312.673 132.726)"/><path d="M178.59 122.85H424.3v1.49H178.59z" class="cls-73" transform="rotate(-82.5 312.5 132.742)"/><path d="M177.61 122.72h245.71v1.49H177.61z" style="fill:#3aa5c0" transform="rotate(-82.68 310.699 132.472)"/><path d="M176.62 122.59h245.71v1.49H176.62z" style="fill:#3ca5c0" transform="rotate(-82.67 309.72 132.346)"/><path d="M175.63 122.47h245.71v1.49H175.63z" class="cls-76" transform="rotate(-82.67 308.735 132.216)"/><path d="M174.65 122.34h245.71v1.49H174.65z" class="cls-76" transform="rotate(-82.66 307.73 132.098)"/><path d="M173.66 122.21h245.71v1.49H173.66z" style="fill:#3ca6bf" transform="rotate(-82.66 306.756 131.967)"/><path d="M172.68 122.09h245.71v1.49H172.68z" class="cls-76" transform="rotate(-82.66 305.766 131.843)"/><path d="M171.69 121.96H417.4v1.49H171.69z" class="cls-78" transform="rotate(-82.66 304.782 131.713)"/><path d="M170.7 121.83h245.71v1.49H170.7z" class="cls-78" transform="rotate(-82.66 303.787 131.594)"/><path d="M169.72 121.7h245.71v1.49H169.72z" style="fill:#3da7c0" transform="rotate(-82.65 302.828 131.457)"/><path d="M168.73 121.58h245.71v1.49H168.73z" class="cls-80" transform="rotate(-82.66 301.833 131.328)"/><path d="M167.75 121.45h245.71v1.49H167.75z" class="cls-80" transform="rotate(-82.66 300.839 131.21)"/><path d="M166.76 121.32h245.71v1.49H166.76z" style="fill:#3ca7bf" transform="rotate(-82.5 300.548 131.25)"/><path d="M165.77 121.2h245.71v1.49H165.77z" class="cls-82" transform="rotate(-82.5 299.556 131.125)"/><path d="M164.79 121.07H410.5v1.49H164.79z" class="cls-82" transform="rotate(-82.5 298.565 131.001)"/><path d="M163.8 120.94h245.71v1.49H163.8z" class="cls-83" transform="rotate(-82.65 296.91 130.7)"/><path d="M162.82 120.82h245.71v1.49H162.82z" class="cls-83" transform="rotate(-82.66 295.905 130.571)"/><path d="M161.83 120.69h245.71v1.49H161.83z" class="cls-83" transform="rotate(-82.5 295.599 130.617)"/><path d="M160.84 120.56h245.71v1.49H160.84z" class="cls-84" transform="rotate(-82.66 293.936 130.322)"/><path d="M159.86 120.44h245.71v1.49H159.86z" class="cls-84" transform="rotate(-82.66 292.952 130.192)"/><path d="M158.87 120.31h245.71v1.49H158.87z" class="cls-84" transform="rotate(-82.5 292.728 130.206)"/><path d="M157.89 120.18H403.6v1.49H157.89z" class="cls-85" transform="rotate(-82.67 290.995 129.93)"/><path d="M156.9 120.06h245.71v1.49H156.9z" class="cls-85" transform="rotate(-82.68 289.991 129.811)"/><path d="M155.91 119.93h245.71v1.49H155.91z" style="fill:#40a9bd" transform="rotate(-82.68 289.007 129.681)"/><path d="M154.93 119.8h245.71v1.49H154.93z" class="cls-87" transform="rotate(-82.68 288.012 129.562)"/><path d="M153.94 119.67h245.71v1.49H153.94z" class="cls-87" transform="rotate(-82.68 287.028 129.432)"/><path d="M152.96 119.55h245.71v1.49H152.96z" class="cls-88" transform="rotate(-82.67 286.062 129.302)"/><path d="M151.97 119.42h245.71v1.49H151.97z" class="cls-88" transform="rotate(-82.67 285.067 129.173)"/><path d="M150.98 119.29h245.71v1.49H150.98z" class="cls-88" transform="rotate(-82.68 284.065 129.053)"/><path d="M150 119.17h245.71v1.49H150z" style="fill:#43abbd" transform="rotate(-82.68 283.09 128.923)"/><path d="M149.01 119.04h245.71v1.49H149.01z" class="cls-90" transform="rotate(-82.68 282.106 128.792)"/><path d="M148.03 118.91h245.71v1.49H148.03z" class="cls-90" transform="rotate(-82.68 281.127 128.667)"/><path d="M147.04 118.79h245.71v1.49H147.04z" class="cls-91" transform="rotate(-82.67 280.15 128.538)"/><path d="M146.05 118.66h245.71v1.49H146.05z" class="cls-91" transform="rotate(-82.67 279.15 128.415)"/><path d="M145.07 118.53h245.71v1.49H145.07z" style="fill:#42acbc" transform="rotate(-82.68 278.164 128.288)"/><path d="M144.08 118.41h245.71v1.49H144.08z" style="fill:#43acbd" transform="rotate(-82.68 277.164 128.165)"/><path d="M143.1 118.28h245.71v1.49H143.1z" class="cls-94" transform="rotate(-82.68 276.19 128.034)"/><path d="M142.11 118.15h245.71v1.49H142.11z" class="cls-94" transform="rotate(-82.68 275.19 127.91)"/><path d="M141.12 118.03h245.71v1.49H141.12z" class="cls-95" transform="rotate(-82.67 274.223 127.78)"/><path d="M140.14 117.9h245.71v1.49H140.14z" class="cls-95" transform="rotate(-82.65 273.246 127.649)"/><path d="M139.15 117.77h245.71v1.49H139.15z" style="fill:#45adbc" transform="rotate(-82.66 272.245 127.529)"/><path d="M138.17 117.64h245.71v1.49H138.17z" class="cls-97" transform="rotate(-82.66 271.27 127.398)"/><path d="M137.18 117.52h245.71v1.49H137.18z" class="cls-97" transform="rotate(-82.66 270.281 127.274)"/><path d="M136.19 117.39H381.9v1.49H136.19z" class="cls-97" transform="rotate(-82.66 269.286 127.145)"/><path d="M135.21 117.26h245.71v1.49H135.21z" style="fill:#45aebb" transform="rotate(-82.66 268.296 127.02)"/><path d="M134.22 117.14h245.71v1.49H134.22z" class="cls-99" transform="rotate(-82.66 267.317 126.895)"/><path d="M133.24 117.01h245.71v1.49H133.24z" class="cls-99" transform="rotate(-82.5 266.942 126.94)"/><path d="M132.25 116.88h245.71v1.49H132.25z" class="cls-100" transform="rotate(-82.66 265.343 126.641)"/><path d="M131.27 116.76h245.71v1.49H131.27z" class="cls-100" transform="rotate(-82.5 264.964 126.685)"/><path d="M130.28 116.63h245.71v1.49H130.28z" style="fill:#46afba" transform="rotate(-82.66 263.368 126.387)"/><path d="M129.29 116.5H375v1.49H129.29z" class="cls-100" transform="rotate(-82.65 262.4 126.258)"/><path d="M128.31 116.38h245.71v1.49H128.31z" style="fill:#48b0bb" transform="rotate(-82.66 261.404 126.132)"/><path d="M127.32 116.25h245.71v1.49H127.32z" style="fill:#48afba" transform="rotate(-82.66 260.42 126.002)"/><path d="M126.34 116.12h245.71v1.49H126.34z" class="cls-104" transform="rotate(-82.5 260.04 126.046)"/><path d="M125.35 116h245.71v1.49H125.35z" class="cls-104" transform="rotate(-82.66 258.44 125.753)"/><path d="M124.36 115.87h245.71v1.49H124.36z" style="fill:#48b0ba" transform="rotate(-82.68 257.451 125.623)"/><path d="M123.38 115.74h245.71v1.49H123.38z" class="cls-106" transform="rotate(-82.67 256.472 125.496)"/><path d="M122.39 115.61H368.1v1.49H122.39z" class="cls-106" transform="rotate(-82.67 255.493 125.37)"/><path d="M121.41 115.49h245.71v1.49H121.41z" class="cls-106" transform="rotate(-82.68 254.498 125.243)"/><path d="M120.42 115.36h245.71v1.49H120.42z" class="cls-106" transform="rotate(-82.68 253.509 125.119)"/><path d="M119.43 115.23h245.71v1.49H119.43z" style="fill:#49b1b9" transform="rotate(-82.68 252.524 124.989)"/><path d="M118.45 115.11h245.71v1.49H118.45z" style="fill:#48b2ba" transform="rotate(-82.68 251.54 124.859)"/><path d="M117.46 114.98h245.71v1.49H117.46z" class="cls-109" transform="rotate(-82.67 250.57 124.731)"/><path d="M116.48 114.85h245.71v1.49H116.48z" class="cls-109" transform="rotate(-82.67 249.58 124.607)"/><path d="M115.49 114.73H361.2v1.49H115.49z" class="cls-110" transform="rotate(-82.68 248.582 124.485)"/><path d="M114.5 114.6h245.71v1.49H114.5z" class="cls-110" transform="rotate(-82.68 247.598 124.354)"/><path d="M113.52 114.47h245.71v1.49H113.52z" class="cls-110" transform="rotate(-82.68 246.597 124.23)"/><path d="M112.53 114.35h245.71v1.49H112.53z" style="fill:#4bb3b9" transform="rotate(-82.68 245.619 124.106)"/><path d="M111.55 114.22h245.71v1.49H111.55z" class="cls-112" transform="rotate(-82.67 244.654 123.973)"/><path d="M110.56 114.09h245.71v1.49H110.56z" class="cls-112" transform="rotate(-82.67 243.658 123.843)"/><path d="M109.57 113.97h245.71v1.49H109.57z" class="cls-113" transform="rotate(-82.68 242.66 123.72)"/><path d="M108.59 113.84H354.3v1.49H108.59z" class="cls-113" transform="rotate(-82.68 241.681 123.596)"/><path d="M107.6 113.71h245.71v1.49H107.6z" class="cls-113" transform="rotate(-82.68 240.697 123.466)"/><path d="M106.62 113.58h245.71v1.49H106.62z" class="cls-114" transform="rotate(-82.67 239.72 123.334)"/><path d="M105.63 113.46h245.71v1.49H105.63z" class="cls-114" transform="rotate(-82.65 238.736 123.207)"/><path d="M104.64 113.33h245.71v1.49H104.64z" class="cls-114" transform="rotate(-82.66 237.739 123.084)"/><path d="M103.66 113.2h245.71v1.49H103.66z" class="cls-115" transform="rotate(-82.66 236.749 122.96)"/><path d="M102.67 113.08h245.71v1.49H102.67z" class="cls-115" transform="rotate(-82.66 235.76 122.836)"/><path d="M101.69 112.95H347.4v1.49H101.69z" style="fill:#4eb5b7" transform="rotate(-82.66 234.78 122.71)"/><path d="M100.7 112.82h245.71v1.49H100.7z" class="cls-117" transform="rotate(-82.66 233.79 122.576)"/><path d="M99.71 112.7h245.71v1.49H99.71z" class="cls-117" transform="rotate(-82.65 232.813 122.456)"/><path d="M98.73 112.57h245.71v1.49H98.73z" style="fill:#4eb6b6" transform="rotate(-82.5 232.366 122.503)"/><path d="M97.74 112.44h245.71v1.49H97.74z" class="cls-117" transform="rotate(-82.66 230.842 122.202)"/><path d="M96.76 112.32h245.71v1.49H96.76z" class="cls-119" transform="rotate(-82.66 229.847 122.072)"/><path d="M95.77 112.19h245.71v1.49H95.77z" class="cls-119" transform="rotate(-82.5 229.41 122.119)"/><path d="M94.78 112.06h245.71v1.49H94.78z" class="cls-120" transform="rotate(-82.66 227.877 121.813)"/><path d="M93.8 111.94h245.71v1.49H93.8z" class="cls-120" transform="rotate(-82.65 226.894 121.688)"/><path d="M92.81 111.81h245.71v1.49H92.81z" class="cls-120" transform="rotate(-82.5 226.435 121.746)"/><path d="M91.83 111.68h245.71v1.49H91.83z" class="cls-120" transform="rotate(-82.66 224.908 121.44)"/><path d="M90.84 111.55h245.71v1.49H90.84z" style="fill:#51b8b6" transform="rotate(-82.5 224.461 121.486)"/><path d="M89.85 111.43h245.71v1.49H89.85z" style="fill:#50b8b6" transform="rotate(-82.68 222.942 121.185)"/><path d="M88.87 111.3h245.71v1.49H88.87z" class="cls-123" transform="rotate(-82.68 221.958 121.055)"/><path d="M87.88 111.17h245.71v1.49H87.88z" class="cls-123" transform="rotate(-82.67 220.98 120.924)"/><path d="M86.9 111.05h245.71v1.49H86.9z" style="fill:#50b9b5" transform="rotate(-82.67 220 120.8)"/><path d="M85.91 110.92h245.71v1.49H85.91z" class="cls-125" transform="rotate(-82.68 219.005 120.675)"/><path d="M84.92 110.79h245.71v1.49H84.92z" class="cls-125" transform="rotate(-82.68 218.016 120.55)"/><path d="M83.94 110.67h245.71v1.49H83.94z" style="fill:#51b9b5" transform="rotate(-82.68 217.031 120.42)"/><path d="M82.95 110.54h245.71v1.49H82.95z" class="cls-127" transform="rotate(-82.67 216.058 120.296)"/><path d="M81.97 110.41h245.71v1.49H81.97z" class="cls-127" transform="rotate(-82.67 215.063 120.166)"/><path d="M80.98 110.29h245.71v1.49H80.98z" style="fill:#51bab4" transform="rotate(-82.68 214.068 120.042)"/><path d="M79.99 110.16H325.7v1.49H79.99z" class="cls-129" transform="rotate(-82.68 213.083 119.911)"/><path d="M79.01 110.03h245.71v1.49H79.01z" class="cls-129" transform="rotate(-82.68 212.094 119.787)"/><path d="M78.02 109.91h245.71v1.49H78.02z" class="cls-130" transform="rotate(-82.68 211.115 119.662)"/><path d="M77.04 109.78h245.71v1.49H77.04z" class="cls-130" transform="rotate(-82.67 210.135 119.532)"/><path d="M76.05 109.65h245.71v1.49H76.05z" class="cls-130" transform="rotate(-82.5 209.683 119.58)"/><path d="M75.06 109.53h245.71v1.49H75.06z" class="cls-131" transform="rotate(-82.68 208.162 119.282)"/><path d="M74.08 109.4h245.71v1.49H74.08z" class="cls-131" transform="rotate(-82.68 207.167 119.153)"/><path d="M73.09 109.27H318.8v1.49H73.09z" class="cls-131" transform="rotate(-82.68 206.178 119.028)"/><path d="M72.11 109.14h245.71v1.49H72.11z" class="cls-132" transform="rotate(-82.5 205.688 119.08)"/><path d="M71.12 109.02h245.71v1.49H71.12z" class="cls-132" transform="rotate(-82.66 204.206 118.77)"/><path d="M70.13 108.89h245.71v1.49H70.13z" class="cls-133" transform="rotate(-82.65 203.242 118.646)"/><path d="M69.15 108.76h245.71v1.49H69.15z" class="cls-134" transform="rotate(-82.5 202.717 118.701)"/><path d="M68.16 108.64h245.71v1.49H68.16z" class="cls-135" transform="rotate(-82.5 201.725 118.577)"/><path d="M67.18 108.51h245.71V110H67.18z" class="cls-135" transform="rotate(-82.66 200.274 118.267)"/><path d="M66.19 108.38H311.9v1.49H66.19z" class="cls-135" transform="rotate(-82.66 199.284 118.142)"/><path d="M65.2 108.26h245.71v1.49H65.2z" class="cls-135" transform="rotate(-82.66 198.304 118.007)"/><path d="M64.22 108.13h245.71v1.49H64.22z" class="cls-136" transform="rotate(-82.65 197.329 117.883)"/><path d="M63.23 108h245.71v1.49H63.23z" class="cls-136" transform="rotate(-82.66 196.325 117.758)"/><path d="M62.25 107.88h245.71v1.49H62.25z" class="cls-137" transform="rotate(-82.66 195.34 117.628)"/><path d="M61.26 107.75h245.71v1.49H61.26z" class="cls-138" transform="rotate(-82.66 194.35 117.504)"/><path d="M60.27 107.62h245.71v1.49H60.27z" class="cls-139" transform="rotate(-82.66 193.366 117.374)"/><path d="M59.29 107.5H305v1.49H59.29z" class="cls-140" transform="rotate(-82.66 192.382 117.255)"/><path d="M58.3 107.37h245.71v1.49H58.3z" class="cls-141" transform="rotate(-82.66 191.397 117.125)"/><path d="M57.32 107.24h245.71v1.49H57.32z" class="cls-142" transform="rotate(-82.66 190.413 116.995)"/><path d="M56.33 107.11h245.71v1.49H56.33z" class="cls-142" transform="rotate(-82.68 189.413 116.872)"/><path d="M55.34 106.99h245.71v1.49H55.34z" class="cls-143" transform="rotate(-82.68 188.439 116.741)"/><path d="M54.36 106.86h245.71v1.49H54.36z" class="cls-144" transform="rotate(-82.68 187.46 116.616)"/><path d="M53.37 106.73h245.71v1.49H53.37z" class="cls-145" transform="rotate(-82.67 186.478 116.488)"/><path d="M52.39 106.61H298.1v1.49H52.39z" class="cls-146" transform="rotate(-82.67 185.483 116.359)"/><path d="M51.4 106.48h245.71v1.49H51.4z" class="cls-146" transform="rotate(-82.68 184.49 116.232)"/><path d="M50.41 106.35h245.71v1.49H50.41z" class="cls-146" transform="rotate(-82.68 183.501 116.108)"/><path d="M49.43 106.23h245.71v1.49H49.43z" class="cls-145" transform="rotate(-82.68 182.523 115.982)"/><path d="M48.44 106.1h245.71v1.49H48.44z" class="cls-144" transform="rotate(-82.68 181.533 115.858)"/><path d="M47.46 105.97h245.71v1.49H47.46z" class="cls-143" transform="rotate(-82.67 180.555 115.725)"/><path d="M46.47 105.85h245.71v1.49H46.47z" class="cls-142" transform="rotate(-82.67 179.576 115.6)"/><path d="M45.48 105.72h245.71v1.49H45.48z" class="cls-142" transform="rotate(-82.68 178.575 115.473)"/><path d="M44.5 105.59h245.71v1.49H44.5z" class="cls-141" transform="rotate(-82.68 177.59 115.343)"/><path d="M43.51 105.47h245.71v1.49H43.51z" class="cls-140" transform="rotate(-82.68 176.611 115.218)"/><path d="M42.53 105.34h245.71v1.49H42.53z" class="cls-139" transform="rotate(-82.68 175.622 115.094)"/><path d="M41.54 105.21h245.71v1.49H41.54z" class="cls-138" transform="rotate(-82.67 174.638 114.967)"/><path d="M40.55 105.08h245.71v1.49H40.55z" class="cls-137" transform="rotate(-82.67 173.654 114.837)"/><path d="M39.57 104.96h245.71v1.49H39.57z" class="cls-136" transform="rotate(-82.68 172.658 114.715)"/><path d="M38.58 104.83h245.71v1.49H38.58z" class="cls-136" transform="rotate(-82.68 171.674 114.585)"/><path d="M37.6 104.7h245.71v1.49H37.6z" class="cls-135" transform="rotate(-82.5 171.095 114.639)"/><path d="M36.61 104.58h245.71v1.49H36.61z" class="cls-135" transform="rotate(-82.5 170.114 114.514)"/><path d="M35.62 104.45h245.71v1.49H35.62z" class="cls-135" transform="rotate(-82.66 168.716 114.207)"/><path d="M34.64 104.32h245.71v1.49H34.64z" class="cls-135" transform="rotate(-82.66 167.731 114.077)"/><path d="M33.65 104.2h245.71v1.49H33.65z" class="cls-134" transform="rotate(-82.66 166.752 113.952)"/><path d="M32.67 104.07h245.71v1.49H32.67z" class="cls-133" transform="rotate(-82.66 165.768 113.822)"/><path d="M31.68 103.94h245.71v1.49H31.68z" class="cls-132" transform="rotate(-82.66 164.778 113.698)"/><path d="M30.69 103.82H276.4v1.49H30.69z" class="cls-132" transform="rotate(-82.66 163.788 113.574)"/><path d="M29.71 103.69h245.71v1.49H29.71z" class="cls-131" transform="rotate(-82.65 162.808 113.442)"/><path d="M28.72 103.56h245.71v1.49H28.72z" class="cls-131" transform="rotate(-82.5 162.204 113.503)"/><path d="M27.74 103.44h245.71v1.49H27.74z" class="cls-131" transform="rotate(-82.66 160.83 113.19)"/><path d="M26.75 103.31h245.71v1.49H26.75z" class="cls-130" transform="rotate(-82.5 160.226 113.249)"/><path d="M25.76 103.18h245.71v1.49H25.76z" class="cls-130" transform="rotate(-82.66 158.855 112.935)"/><path d="M25.74 103.7h245.71v.45H25.74z" class="cls-130" transform="rotate(-82.64 158.842 112.934)"/></g><path d="M446.83 47.26h-14.62l-2.58 14.62h14.63l-2.58 14.62h29.24l2.58-14.62h-14.62l2.58-14.62h-14.63z" class="cls-2"/></g></g></svg>