<svg xmlns="http://www.w3.org/2000/svg" data-name="Layer 1" viewBox="0 0 40.83 40.83"><ellipse cx="21.96" cy="20.27" rx="17" ry="16.45" style="fill:#fff"/><path d="M20.57 0a20.42 20.42 0 1 0 20.26 20.57A20.42 20.42 0 0 0 20.57 0Zm7.87 30.56-.9-1.47a4.27 4.27 0 0 1 0-4.54L29.21 22l5.29 8.66Zm-1.23-8.36c-.27.43-.54.88-.81 1.33C24.27 27 21.87 31 16.08 31H16a9.64 9.64 0 0 1-5-1.33A8.36 8.36 0 0 1 7.68 26a12.76 12.76 0 0 1-1.1-5.53 13.16 13.16 0 0 1 1.18-5.59 8.74 8.74 0 0 1 3.33-3.81A9.16 9.16 0 0 1 16 9.74h.09a9.41 9.41 0 0 1 7.5 3.5l.2.23-2.95 4.66-.35-.57c-1-1.59-2.24-3.22-4.05-3.29h-.13c-2.62 0-3.91 2-3.94 6.17 0 2.14.32 3.69 1 4.6a3.39 3.39 0 0 0 2.88 1.34c2.26 0 3.67-2.28 4.81-4.12q.16-.29.33-.54l7.17-11.33h6.06Z" style="fill:#e41b48"/></svg>