<svg xmlns="http://www.w3.org/2000/svg" xmlns:xlink="http://www.w3.org/1999/xlink" id="Layer_1" x="0" y="0" enable-background="new 0 0 800 800" version="1.1" viewBox="0 0 800 800" xml:space="preserve"><style>.st0{fill:url(#SVGID_1_);} .st1{fill:#FFFFFF;} .st2{fill:url(#SVGID_2_);} .st3{fill:url(#SVGID_3_);}</style><linearGradient id="SVGID_1_" x1="29.013" x2="699.607" y1="-11.485" y2="732.313" gradientUnits="userSpaceOnUse"><stop offset="0" stop-color="#0AE0ED"/><stop offset=".098" stop-color="#0CDCEE"/><stop offset=".198" stop-color="#14D0EF"/><stop offset=".3" stop-color="#1FBBF2"/><stop offset=".403" stop-color="#309EF5"/><stop offset=".505" stop-color="#4579FA"/><stop offset=".533" stop-color="#4C6EFB"/><stop offset=".659" stop-color="#4260E1"/><stop offset=".927" stop-color="#293DA0"/><stop offset=".992" stop-color="#23348F"/></linearGradient><path d="M620.4 783.8H179.6C89.8 783.8 17 711 17 621.3V178.7C17 89 89.8 16.2 179.6 16.2h440.9C710.2 16.2 783 89 783 178.7v442.5c0 89.8-72.8 162.6-162.6 162.6z" class="st0"/><image width="2307" height="2307" opacity=".2" overflow="visible" transform="matrix(.24 0 0 .24 127.08 133.08)" xlink:href="6CCEB0B2E574F621.png"/><path d="M340.7 521.9l292.4-128.5c7.8-3.4 16.7 2.3 16.6 10.9C647.9 505 585 600 481.6 636c-116.4 40.6-247.1-11.8-303.5-121.5-10.1-19.6-17.3-39.8-21.9-60.2-1.6-7.3 3.9-14.2 11.3-14.4l163.1-3.3c6.8 0 12.1 5.9 11 12.2l-16.9 61.8c-1.2 8.5 8 15 16 11.3z" class="st1"/><linearGradient id="SVGID_2_" x1="282.014" x2="232.075" y1="413.493" y2="524.095" gradientUnits="userSpaceOnUse"><stop offset="0" stop-color="#FFF"/><stop offset=".186" stop-color="#F9FAFA"/><stop offset=".424" stop-color="#EAEAEB"/><stop offset=".689" stop-color="#CFD1D2"/><stop offset=".849" stop-color="#BCBEC0"/></linearGradient><path d="M324.8 510.7c-1.3 8.4 7.9 14.9 15.9 11.2-.7.3-1 .5-1 .5s-116.9 51.5-179.6-68.5c-3.3-6.3 1.3-13.9 8.4-14l162.3-3.3c6.8 0 12.1 5.9 11 12.2l-17 61.9z" class="st2"/><path d="M452.2 282.6L166.9 408c-7.8 3.4-16.7-2.3-16.6-10.8 1.2-100.5 63.3-195.6 165.8-232.4 111.7-40.1 238.3 5.4 298.6 107.6 15.8 26.8 26 54.9 31.1 83.3 1.3 7.2-4.2 13.9-11.5 14l-174.2 2c-6.9 0-12.2-5.9-11.2-12.4l19.4-65.4c1.4-8.5-8-15.1-16.1-11.3z" class="st1"/><linearGradient id="SVGID_3_" x1="590.756" x2="469.379" y1="287.55" y2="389.398" gradientUnits="userSpaceOnUse"><stop offset=".222" stop-color="#BCBEC0"/><stop offset=".953" stop-color="#FFF"/></linearGradient><path d="M468.3 294c1.2-7.8-6.4-13.8-13.9-12 .7-.5 1.2-.7 1.2-.7s119.7-54 185.5 74.5c3.2 6.3-1.4 13.8-8.5 13.9L460 371.8c-6.9 0-12.2-5.9-11.2-12.4l19.5-65.4z" class="st3"/></svg>