<svg xmlns="http://www.w3.org/2000/svg" id="Layer_1" x="0" y="0" style="enable-background:new 0 0 586.8 586.8" version="1.1" viewBox="0 0 586.8 586.8" xml:space="preserve"><style>.st1{fill:#fff}</style><linearGradient id="SVGID_1_" x1="1.417" x2="585.354" y1="294.661" y2="294.661" gradientTransform="matrix(1 0 0 -1 0 588.047)" gradientUnits="userSpaceOnUse"><stop offset="0" style="stop-color:#5f24d2"/><stop offset=".12" style="stop-color:#4924b4"/><stop offset=".3" style="stop-color:#302490"/><stop offset=".47" style="stop-color:#1c2475"/><stop offset=".65" style="stop-color:#0e2461"/><stop offset=".82" style="stop-color:#062455"/><stop offset="1" style="stop-color:#032451"/></linearGradient><circle cx="293.4" cy="293.4" r="292" style="fill:url(#SVGID_1_)"/><path d="M215.6 381.8c-53.7 0-90.6-37.3-90.6-87.5 0-49.3 38.2-88.9 89.8-88.9 31.1 0 49.3 8 67.5 23.6l-23.5 28.9c-13.3-11.1-24.9-17.8-44.9-17.8-28 0-50.2 24.4-50.2 53.7 0 31.1 22.2 53.7 52.4 53.7 13.8 0 25.8-3.5 36-10.2v-24.4h-38.2V280h74.2v74.2c-19.9 17.9-45.7 27.7-72.5 27.6M395.6 381.8c-48 0-84-39.1-84-88.4 0-48.4 35.5-88.4 84.4-88.4 30.2 0 48.4 11.1 65.3 27.1L448 245.8c-13.8-13.8-29.3-23.5-52.4-23.5-36.9 0-64.9 30.2-64.9 70.6 0 39.5 28 70.6 64.9 70.6 22.7 0 38.2-8.9 53.7-24.4l12.4 12.4c-16.4 18.3-35.5 30.3-66.1 30.3" class="st1"/></svg>