<svg xmlns="http://www.w3.org/2000/svg" id="Layer_1" x="0" y="0" version="1.1" viewBox="0 0 576 576" xml:space="preserve"><style>.st0{enable-background:new}.st2{fill:#a4a9ad}</style><g class="st0"><g class="st0"><linearGradient id="SVGID_1_" x1="165.3" x2="216.728" y1="272.16" y2="272.16" gradientUnits="userSpaceOnUse"><stop offset="0" stop-color="#d0eaed"/><stop offset="1" stop-color="#0096a9"/></linearGradient><path fill="url(#SVGID_1_)" d="M197.9 301.4c-.1.1-.9.5-1.8 1.1-.8.3-1.8.7-2.6 1 .1-.1.1-.1.2-.1-.1 0-.1 0-.7.1.4-.3.9-.7 1.3-1 .6-.4 1.3-.7 1.8-1.2.8-.4 1.8-.9 2.5-1.3-.1.2 0 .2.1.3.2 0 .4-.1.7-.3-1 1.2-1 1.2-1.5 1.4m5.4-3.1c-.2.1-.9.7-1.7 1.4-.7.4-1.7 1-2.5 1.4.2-.1.2-.2.1-.2s-.1 0-.7.2c.4-.4.8-1 1.2-1.4.1-.1.2-.1.3-.2.2-.1 1-.7 1.5-1.4.8-.5 1.8-1.2 2.5-1.7-.1.2-.1.3.1.3s.3-.1.7-.3c-1.1 1.7-1.1 1.7-1.5 1.9m-3.1 0c-.3.2-.9.7-1.4 1.4-.8.4-1.8 1-2.5 1.4.1-.4-.4-.2-.8-.1 0 0-.1 0-.1.1.1-.4.2-1 .4-1.4 0-.1.2-.1.3-.2.1-.1.9-.7 1.1-1.4.8-.5 1.8-1.2 2.5-1.7.1.6.7.3 1.2 0-.4 1.7-.4 1.7-.7 1.9m.4-3.7c-.4.3-.8.9-1 1.6-.8.5-1.8 1.2-2.5 1.7-.1-.4-.6-.4-1.3 0-.1-.5-.3-1.2-.4-1.7.7-.7 1-1.2.9-1.9.8-.6 1.8-1.4 2.5-2 .2.3.3.3.7.4.3 0 .6-.1 1-.4.1.6.3 1.4.4 2l-.3.3m7.5 0s-.7.7-1.6 1.7c-.6.5-1.5 1.2-2.2 1.7.2-.2.2-.2.2-.3-.1 0-.1 0-.6.3.4-.5.8-1.2 1.2-1.7.1-.1.2-.1.3-.2.1-.1.9-.8 1.4-1.7.7-.6 1.5-1.4 2.2-2-.1.3-.1.3 0 .4.1 0 .3-.1.5-.4-1 1.8-1 1.8-1.4 2.2m-2.6 0c-.3.3-.9.9-1.4 1.7-.7.5-1.7 1.2-2.5 1.7.2-.6-.7-.1-.8-.1 0 0-.1 0-.1.1.1-.5.2-1.2.4-1.7 0-.1.2-.2.3-.2.2-.1.9-.8 1.1-1.7.7-.6 1.7-1.4 2.5-2 .1.7.8.3 1.2 0-.3 1.9-.3 1.9-.7 2.2m-6.2-4.4c-.3.4-.7 1.1-.6 1.9-.8.6-1.8 1.4-2.5 2-.4-.5-1-.5-1.8 0-.4-.6-.9-1.4-1.2-2 .7-.8.8-1.4.5-2.2.8-.7 1.8-1.6 2.6-2.2.3.3.5.4 1 .4.4 0 .7-.1 1.1-.4.4.7.9 1.5 1.2 2.2-.2.1-.3.2-.3.3m6.7 0c-.3.4-.8 1.1-.9 1.9-.7.6-1.7 1.4-2.5 2-.1-.4-.6-.4-1.4 0-.1-.6-.3-1.4-.4-2 .7-.8 1-1.4.9-2.2.8-.7 1.8-1.5 2.5-2.2.2.3.3.4.7.4.3 0 .6-.1.9-.4.1.7.3 1.6.4 2.2 0 .1-.1.2-.2.3m3.1 3.5c-.1.1-.2.3-.4.4l.2-.3c-.1 0-.1 0-.4.3 2-3.1 2.7-4.2 2.7-4.2.5-.7 1.2-1.5 1.6-2.2-.1.3-.1.3-.1.4 0 0 .1-.1.3-.4l-.2.5c-1.1 2-2.3 3.8-3.7 5.5m1.2-3.5c-.3.3-.8 1-1.2 1.9-.6.6-1.5 1.4-2.2 2 .1-.5-.3-.3-.5-.2-.1.1-.2.1-.3.2.1-.6.2-1.4.4-2 0-.1.2-.2.2-.2.1-.1.8-.9 1-2l2.2-2.2c.1.8.6.4 1 0-.3 2.1-.3 2.1-.6 2.5m-14.1-4.9c-.3.5-.6 1.2-.2 2.1-.8.7-1.8 1.6-2.6 2.2-.6-.5-1.4-.5-2.2 0-.6-.7-1.4-1.6-2-2.2.6-.8.7-1.6.2-2.4.8-.7 1.8-1.7 2.6-2.4.4.3.7.4 1.2.4s.8-.1 1.2-.4c.6.7 1.4 1.7 1.9 2.4.1.1 0 .2-.1.3m8.5 0c-.3.5-.7 1.2-.5 2.1-.7.7-1.7 1.6-2.5 2.2-.4-.5-1-.5-1.8 0-.4-.7-.8-1.6-1.2-2.2.7-.8.9-1.6.5-2.4.8-.7 1.8-1.7 2.5-2.4.3.3.5.4.9.4s.7-.1 1.1-.4c.4.7.9 1.7 1.2 2.4-.1.1-.2.2-.2.3m6.1 0c-.3.4-.6 1.2-.8 2.1-.7.7-1.5 1.6-2.2 2.3-.1-.5-.6-.5-1.2 0-.1-.7-.3-1.6-.4-2.2.7-.8.9-1.6.8-2.4.7-.7 1.5-1.7 2.2-2.4.2.3.3.4.6.4s.5-.1.8-.4c.4 2.2.4 2.2.2 2.6m2.3 2.3c.1-.1.1-.3.2-.4 0 .1-.1.2-.2.4m1.1-2.3l.1-.3.1-.2c-.1.2-.1.3-.2.5m-.3 0c-.2.4-.6 1.1-.9 2.1-.5.7-1.1 1.6-1.6 2.2.1-.4 0-.5-.2-.3-.1.1-.3.2-.4.3.1-.7.2-1.6.4-2.2 0-.1.1-.2.2-.3.1-.1.7-1 .8-2.2.5-.7 1.2-1.7 1.6-2.4 0 .7.3.5.5.3.1-.1.1-.2.2-.3-.3 2.3-.3 2.3-.6 2.8m-22.1-5.4c-.3.5-.5 1.3 0 2.3-.8.7-1.8 1.7-2.6 2.5-.8-.6-1.7-.6-2.5 0l-2.5-2.5c.6-.9.6-1.7 0-2.6.8-.8 1.9-1.8 2.7-2.6.4.3.8.4 1.3.5.6 0 .9-.1 1.3-.5.7.8 1.7 1.8 2.4 2.6 0 .1-.1.2-.1.3m9.8 0c-.3.5-.5 1.3-.2 2.3l-2.5 2.5c-.6-.6-1.4-.6-2.2 0-.6-.7-1.3-1.7-1.9-2.5.7-.9.7-1.7.2-2.6.8-.8 1.8-1.8 2.5-2.6.4.3.7.4 1.1.5.5 0 .8-.1 1.2-.5.6.8 1.3 1.8 1.9 2.6.1.1 0 .2-.1.3m7.8 0c-.3.5-.5 1.3-.4 2.3-.6.7-1.5 1.7-2.2 2.5-.3-.6-1-.6-1.7 0-.4-.7-.8-1.7-1.2-2.5.6-.9.8-1.7.4-2.6.7-.8 1.5-1.8 2.2-2.6.3.3.5.4.9.5.4 0 .6-.1.9-.5.4.8.9 1.8 1.2 2.6 0 .1 0 .3-.1.3m5 0c-.2.5-.4 1.3-.5 2.2-.5.7-1.1 1.7-1.6 2.5-.1-.5-.5-.5-1 0-.1-.7-.4-1.7-.4-2.5 0-.1.1-.2.2-.3.1-.1.6-1 .4-2.3.5-.8 1.2-1.8 1.6-2.6.2.3.3.4.5.5.2 0 .4-.1.6-.5.4 2.6.4 2.6.2 3m.2 4.3c-.1.1-.1.3-.2.5.1-.3.1-.4.1-.4-.1 0-.1 0-.3.4.2-.7.3-1.7.4-2.5 0-.1.1-.2.1-.3 0-.1.4-1.1.5-2.4.3-.8.6-1.8.9-2.6 0 .4 0 .5.1.5 0 0 .1-.1.1-.5l-.1.5c-.2 2.5-.8 4.7-1.6 6.8m-28.3-10c-.6 1.2 0 2.1.2 2.4-.8.8-1.9 1.8-2.7 2.6-.9-.6-1.9-.6-2.7 0-.8-.8-1.9-1.8-2.7-2.6.6-1 .6-1.8 0-2.8l2.7-2.7c.5.3.8.5 1.4.5.6 0 .9-.1 1.4-.5l2.7 2.7c-.1.2-.2.3-.3.4m10.9 0c-.3.5-.5 1.4.1 2.4-.8.8-1.8 1.8-2.5 2.6-.7-.6-1.6-.6-2.5 0-.7-.8-1.7-1.8-2.4-2.6.6-1 .6-1.8 0-2.8.8-.8 1.8-1.9 2.6-2.7.4.3.8.5 1.3.5s.8-.1 1.3-.5c.7.8 1.7 1.9 2.4 2.7-.1.2-.2.3-.3.4m9.2 0c-.2.5-.4 1.4 0 2.4-.6.8-1.5 1.9-2.2 2.6-.6-.6-1.3-.6-2 0-.6-.8-1.3-1.8-1.9-2.6.6-1 .6-1.8.1-2.8.7-.8 1.5-1.9 2.2-2.7.4.3.6.5 1.1.5.4 0 .7-.1 1-.5.6.8 1.4 1.9 1.9 2.7-.1.2-.2.3-.2.4m6.6 0c-.2.5-.3 1.4-.1 2.4-.5.8-1.1 1.9-1.6 2.6-.3-.6-.8-.6-1.4 0-.4-.8-.8-1.8-1.2-2.6.5-1 .5-1.8.2-2.8.5-.8 1.1-1.9 1.6-2.7.3.3.5.5.8.5.3 0 .5-.1.7-.5 1.1 2.7 1.1 2.7 1 3.1m3.4 0c-.1.5-.1 1.3-.2 2.4-.2.8-.6 1.9-.9 2.6-.1-.6-.3-.4-.5-.2-.1.1-.1.2-.2.3-.1-.8-.4-1.8-.4-2.6 0-.1.1-.2.1-.3 0-.1.4-1.1.1-2.4.3-.8.6-1.9.8-2.7.1.3.2.5.4.5.1 0 .2-.1.3-.5.6 2.4.6 2.4.5 2.9m.1 2.7c0-.1 0-.3.1-.5-.1.1-.1.3-.1.5m.2-2.7V273.6v.6m-36.2-5.8c-.6 1.2 0 2.1.2 2.4l-2.7 2.7c-.9-.6-1.8-.6-2.6 0-.7-.8-1.7-1.9-2.5-2.7.6-1 .6-1.8.1-2.7l2.6-2.6c.4.3.7.4 1.3.5.5 0 .9-.1 1.3-.5.8.8 1.8 1.8 2.5 2.6-.1.1-.2.2-.2.3m11.4 0c-.3.5-.4 1.4.3 2.4-.8.8-1.8 1.9-2.6 2.7-.8-.6-1.8-.6-2.7 0l-2.7-2.7c.6-1 .6-1.8 0-2.7l2.6-2.6c.5.3.8.4 1.3.5.5 0 .9-.1 1.3-.5l2.6 2.6c0 .1-.1.2-.1.3m10 0c-.2.5-.3 1.4.3 2.4-.6.8-1.5 1.9-2.2 2.7-.7-.6-1.6-.6-2.3 0-.7-.8-1.7-1.9-2.4-2.7.6-1 .5-1.8-.1-2.7.7-.8 1.5-1.8 2.2-2.6.4.3.7.4 1.2.5.5 0 .7-.1 1.1-.5.7.8 1.7 1.8 2.4 2.6-.1.1-.1.2-.2.3m7.9 0c-.1.5-.2 1.4.3 2.4-.5.8-1.1 1.9-1.6 2.7-.5-.6-1.2-.6-1.8 0-.6-.8-1.3-1.9-1.9-2.7.4-1 .4-1.8-.2-2.7.5-.8 1.1-1.8 1.5-2.6.4.3.6.4 1 .5.4 0 .6-.1.8-.5.6.8 1.4 1.8 1.9 2.6.1.1.1.2 0 .3m5.1 0c0 .5 0 1.4.3 2.4-.2.8-.6 1.9-.8 2.7-.3-.6-.7-.6-1.1 0-.4-.8-1-1.9-1.3-2.7 0-.1.1-.2.1-.3 0-.1.3-1.1-.3-2.4.3-.8.6-1.8.8-2.6.3.3.4.4.6.5.2 0 .3-.1.4-.5 1.3 2.5 1.3 2.5 1.3 2.9m1.8 4.2V273.5c0-.3 0-.4-.1-.4s-.1 0-.2.5c-.1-.8-.3-1.9-.5-2.7v-.3c0-.1.1-1.1-.3-2.4v-2.6c.2.4.2.4.2.5v-.5l.1.5c.6 2 .8 4.3.8 6.5m-41.5-9.8c-.7 1.1-.2 2 0 2.3l-2.6 2.6c-.7-.6-1.6-.6-2.4 0-.6-.8-1.4-1.8-2-2.6.6-.9.7-1.7.4-2.6.8-.7 1.8-1.7 2.6-2.4.3.3.6.4 1.1.4.5 0 .8-.1 1.2-.4.6.7 1.4 1.7 2.1 2.4-.2.1-.3.2-.4.3m11 0c-.6 1.1 0 2 .3 2.3l-2.6 2.6c-.9-.6-1.9-.6-2.8 0-.8-.8-1.8-1.8-2.5-2.6.6-.9.7-1.7.1-2.6.8-.7 1.8-1.7 2.6-2.4.4.3.7.4 1.3.4.5 0 .9-.1 1.3-.4.8.7 1.8 1.7 2.6 2.4-.2.1-.3.2-.3.3m10.4 0c-.2.5-.3 1.3.4 2.3-.6.8-1.5 1.8-2.2 2.6-.8-.6-1.7-.6-2.5 0l-2.6-2.6c.6-.9.5-1.7-.1-2.6.7-.7 1.6-1.7 2.2-2.4.4.3.7.4 1.2.4s.8-.1 1.1-.4c.8.7 1.8 1.7 2.6 2.4 0 .1 0 .2-.1.3m8.8 0c-.1.5-.1 1.3.6 2.3-.5.8-1.1 1.8-1.5 2.6-.7-.6-1.4-.6-2.1 0-.7-.8-1.7-1.8-2.4-2.6.4-.9.3-1.7-.4-2.6.5-.7 1.1-1.7 1.5-2.4.4.3.7.4 1.1.4.4 0 .6-.1.8-.4l2.4 2.4v.3m6.3 0c0 .5.1 1.3.6 2.3-.2.8-.5 1.8-.8 2.6-.5-.6-1-.6-1.4 0-.6-.8-1.3-1.8-1.9-2.6.2-.9.1-1.7-.5-2.6.3-.7.6-1.7.8-2.4.3.3.6.4.8.4.3 0 .4-.1.5-.4 1.9 2.4 1.9 2.4 1.9 2.7m3.3 0c.1.5.3 1.3.6 2.3 0 .8.1 1.8 0 2.6-.3-.8-.5-.4-.6-.2 0 .1 0 .1-.1.2-.4-.8-1-1.8-1.3-2.6v-.3c0-.1 0-1-.7-2.3v-2.4c.2.3.4.4.5.4.1 0 .1-.1.1-.4 1.3 2.2 1.3 2.2 1.5 2.7m.9 2.5c0-.1-.1-.3-.1-.5 0 .2.1.3.1.5m-.7-2.5l-.1-.3-.1-.2c.1.2.2.4.2.5m-34.4-5.1c-.6 1-.1 1.8.1 2.1-.8.7-1.8 1.7-2.6 2.4-.8-.6-1.7-.6-2.5 0-.6-.7-1.5-1.7-2.1-2.4.6-.8.8-1.6.4-2.4.8-.7 1.8-1.6 2.5-2.2.3.3.6.4 1.1.4.5 0 .8-.1 1.2-.4.6.7 1.5 1.6 2.1 2.2 0 .1-.1.2-.2.3m10.3 0c-.3.7-.1 1.4.4 2.1-.7.7-1.5 1.7-2.2 2.4-.8-.6-1.8-.6-2.6 0-.8-.7-1.8-1.7-2.6-2.4.6-.8.6-1.6 0-2.4.7-.7 1.6-1.5 2.3-2.2.4.3.7.4 1.2.4s.8-.1 1.1-.4c.8.7 1.8 1.6 2.5 2.2 0 .1-.1.2-.1.3m9 0c-.1.5 0 1.2.7 2.1-.5.7-1.1 1.7-1.5 2.4-.8-.6-1.6-.6-2.2 0-.8-.7-1.8-1.7-2.6-2.4.4-.8.3-1.6-.4-2.4.5-.7 1.1-1.5 1.6-2.2.4.3.7.4 1.1.4.4 0 .6-.1.9-.4.8.7 1.8 1.5 2.6 2.2-.2.1-.2.2-.2.3m7.1 0c0 .5.2 1.2.9 2.1-.2.7-.5 1.7-.8 2.4-.7-.6-1.3-.6-1.7 0l-2.4-2.4c.2-.8 0-1.6-.7-2.4.2-.7.6-1.5.8-2.2.4.3.6.4 1 .4.3 0 .5-.1.6-.4 2.3 2.1 2.3 2.1 2.3 2.5m4.5 0c.1.5.4 1.2 1 2.1 0 .7.1 1.7 0 2.4-.5-.6-.9-.6-1 0-.6-.7-1.5-1.6-2-2.4v-.3c0-.1-.1-1-1-2.1v-2.2c.3.3.5.4.7.4.2 0 .2-.1.2-.4 2 2.1 2 2.1 2.1 2.5m3.2 4c0 .2.1.4.2.5-.2-.4-.3-.4-.2-.5-.1.1-.1.2 0 .5-.4-.7-.9-1.7-1.3-2.4 0-.1-.1-.2-.1-.3 0-.1-.3-1-1-2.1-.3-.7-.6-1.6-.9-2.2.3.3.3.4.4.4 0-.1 0-.1-.2-.4l.3.5c1 1.8 2 3.9 2.8 6m-29.1-8.7c-.5.9.1 1.7.3 1.9-.7.7-1.6 1.6-2.3 2.2-.8-.5-1.7-.5-2.5 0-.6-.7-1.5-1.5-2.1-2.2.6-.8.7-1.4.3-2.1.7-.6 1.6-1.4 2.3-2 .3.2.6.3 1 .3s.7-.1 1.1-.3c.6.6 1.5 1.4 2.2 2-.2 0-.2.1-.3.2m8.8 0c-.1.6.1 1.2.7 1.9-.5.7-1.1 1.6-1.6 2.2-.8-.5-1.6-.5-2.2 0-.7-.7-1.7-1.5-2.5-2.2.4-.8.3-1.4-.3-2.1.5-.6 1.1-1.4 1.6-2 .4.2.6.3 1 .3s.6-.1.9-.3c.7.6 1.7 1.4 2.5 2-.1 0-.1.1-.1.2m7.3 0c0 .4.3 1.1 1 1.9-.2.7-.5 1.6-.8 2.2-.7-.5-1.4-.5-1.8 0-.8-.7-1.8-1.6-2.6-2.2.2-.8 0-1.4-.8-2.1.3-.6.6-1.4.8-2 .4.2.6.3 1 .3.3 0 .5-.1.6-.3.8.6 1.8 1.4 2.5 2 .1 0 .1.1.1.2m5.3 0c.2.4.5 1.1 1.2 1.9 0 .7.1 1.5 0 2.2-.6-.5-1.1-.5-1.3 0-.7-.7-1.8-1.4-2.4-2.2v-.3c0-.1-.1-.9-1.1-1.9v-2c.4.2.6.3.8.3.2 0 .3-.1.3-.3 2.4 2 2.4 2 2.5 2.3m2.8 0c.3.4.7 1.1 1.3 1.9.3.7.7 1.5.9 2.2-.5-.6-.6-.4-.6-.2v.2c-.6-.7-1.4-1.5-2-2.2 0-.1-.1-.2-.1-.3 0-.1-.3-.9-1.3-1.9-.2-.6-.6-1.4-.9-2 .3.2.4.3.6.3 0-.1 0-.1-.1-.3 1.9 1.9 1.9 1.9 2.2 2.3m1.6 2c-.1-.1-.2-.3-.3-.4.2.2.2.3.3.4m-1.4-2l-.2-.2-.1-.1c.1 0 .2.1.3.3m-20.7-4.1c-.2.5 0 1.1.5 1.7-.5.6-1.1 1.4-1.6 1.9-.7-.5-1.5-.5-2.1 0-.6-.6-1.5-1.4-2.1-1.9.5-.7.5-1.2 0-1.9l1.7-1.7c.3.2.5.3.9.3s.6-.1.8-.3c.6.5 1.5 1.2 2.1 1.7-.2 0-.2.1-.2.2m7 0c0 .4.3.9 1 1.7-.2.6-.5 1.4-.8 1.9-.8-.5-1.4-.5-1.8 0-.7-.6-1.7-1.4-2.5-1.9.2-.7 0-1.2-.6-1.9.3-.5.6-1.2.8-1.7.4.2.6.3.9.3.3 0 .4-.1.6-.3.7.5 1.7 1.2 2.4 1.7v.2m5.5 0c.2.4.6.9 1.4 1.7 0 .6.1 1.4 0 1.9-.7-.5-1.2-.5-1.4 0-.8-.6-1.8-1.4-2.5-1.9-.1-.7-.4-1.2-1.2-1.9V247c.4.2.6.3.8.3.2 0 .3-.1.3-.3 2.4 1.6 2.4 1.6 2.6 1.9m3.5 0c.3.4.8.9 1.6 1.7.3.6.6 1.3.9 1.9-.6-.5-.9-.5-.9 0-.7-.6-1.7-1.3-2.4-1.9-.1-.1-.1-.2-.1-.2 0-.1-.4-.7-1.5-1.6-.2-.5-.6-1.2-.9-1.7.3.2.5.3.7.3.1 0 .1-.1 0-.3 2.4 1.5 2.4 1.5 2.6 1.8m4 3.2c.1.1.2.3.3.4-.1-.2-.2-.3-.3-.4 0 .1 0 .1.1.4-3-3.1-3.7-3.8-3.7-3.8-.5-.5-1.1-1.2-1.6-1.7.3.2.4.3.4.3s0-.1-.3-.3l.4.3c1.7 1.4 3.3 3 4.7 4.8m-18.1-6.7c0 .4.3.9.9 1.4-.2.5-.5 1.2-.8 1.6-.7-.4-1.3-.4-1.7 0-.6-.5-1.5-1.2-2.1-1.6.2-.5.1-1-.4-1.5.3-.4.6-.9.8-1.3.3.2.5.2.7.2.3 0 .4-.1.5-.2.6.4 1.4.9 2.1 1.3v.1m5.1 0c.2.3.6.8 1.4 1.4 0 .5.1 1.2 0 1.6-.5-.3-1.1-.5-1.4 0-.7-.5-1.7-1.2-2.4-1.6 0-.5-.4-1-1.1-1.5V244c.3.2.5.2.8.2.2 0 .3-.1.3-.2 2.3 1.2 2.3 1.2 2.4 1.4m3.7 0c.3.3.9.8 1.7 1.4.3.5.6 1.1.9 1.6-.5-.3-1-.5-1 0-.8-.5-1.8-1.1-2.5-1.6-.1 0-.1-.1-.1-.2s-.4-.6-1.5-1.3c-.3-.4-.6-1-.9-1.3.4.2.5.2.7.2.2 0 .1-.1 0-.2 2.5 1.2 2.5 1.2 2.7 1.4m1.9 0c.6.5 1.2.9 1.9 1.4.5.5 1.2 1.1 1.6 1.6-.5-.3-.5-.3-.6-.3 0 .1 0 .1.1.3-.7-.5-1.7-1.1-2.4-1.6-.1 0-.1-.1-.2-.2s-.6-.6-1.8-1.3c-.5-.4-1.1-1-1.6-1.3.3.2.5.2.6.2 0-.1-.1-.1-.2-.2 2.2 1.1 2.2 1.1 2.6 1.4m2.2 1.5c-.1-.1-.3-.2-.4-.3.2.1.3.2.4.3m-2-1.5l-.2-.2-.2-.1c.1.1.3.2.4.3m-10.9-2.7c.3.3.7.7 1.2 1 0 .4.1.9 0 1.3-.4-.2-1-.4-1.3 0-.6-.4-1.4-.9-2.1-1.3 0-.4-.3-.8-.8-1.2 0-.3 0-.7-.1-1 .3.1.4.1.6.2.2 0 .2 0 .2-.2 2.2 1.1 2.2 1.1 2.3 1.2m3.3 0c.3.2.9.6 1.7 1 .3.4.7.9.9 1.3-.5-.2-1-.4-1 0-.7-.4-1.7-.9-2.4-1.3l-.1-.1c-.1-.1-.4-.5-1.4-1-.3-.3-.6-.7-.9-1 .3.1.5.1.6.2h.1s0-.1-.1-.1c2.4.8 2.4.8 2.6 1m2.1 0l2 1c.5.4 1.2.9 1.6 1.3-.5-.3-.6-.3-.7-.2 0 .1 0 .1.1.2l-2.6-1.3c-.7-.4-1.3-.8-2-1.2-.5-.3-1.1-.7-1.6-1 .4.1.5.1.6.2-.1 0-.1-.1-.2-.1 2.4.9 2.4.9 2.8 1.1m4.5 2.1c.1.1.3.2.4.3-.3-.2-.3-.3-.4-.3l.3.3c-2.2-1.3-3.8-2.1-4.7-2.5-.7-.3-1.5-.7-2.2-1 .4.1.4.1.5.2-.1 0-.1 0-.4-.2l.5.2c2.1.8 4.1 1.8 6 3m-11.7-4c.9.4 1.4.6 1.6.7.3.3.7.6.9.9-.9-.4-.8-.1-.8 0-.6-.3-1.5-.6-2.1-.9l-.1-.1s-.3-.3-1.2-.7c-.3-.2-.6-.4-.9-.5.3.1.4.1.5.1l-.1-.1c1.8.5 1.9.5 2.2.6m1.7 0c.5.2.5.2 2 .7.5.3 1.2.6 1.7.9-.5-.2-.6-.2-.7-.2 0 .1 0 .1.1.1-3.9-1.5-4.4-1.7-4.4-1.7-.5-.2-1.2-.4-1.7-.5.3.1.4.1.5.1l-.3-.1c2.3.6 2.3.6 2.8.7m.8 0c1 .3 1.8.5 2.3.7.7.3 1.6.6 2.2.9-.4-.2-.5-.2-.5-.2 0 .1 0 .1.3.2-3.6-1.3-4.6-1.6-5-1.7-.7-.2-1.6-.4-2.3-.5.4.1.4.1.5.1 0 0-.1 0-.4-.1 2.2.5 2.2.5 2.9.6m-6.1-.9c.8.1 1.5.2 1.9.3.5.1 1.2.3 1.7.5-.5-.1-.5-.1-.6-.1l.1.1c-2.7-.7-2.9-.7-3.8-.8-.4 0-1-.1-1.5-.1h0c1.8 0 1.8 0 2.2.1m.4 0c1 .1 1.8.2 2.3.3.7.1 1.6.3 2.3.5-.4-.1-.5-.1-.5-.1l.3.1c-2.2-.5-3.1-.7-4.9-.8-.6 0-1.4-.1-2-.1h0c2 0 2 0 2.5.1m-.8-.1h-.4.4c-.6 0-1.2-.1-1.7-.1.5.1 1.2.1 1.7.1m8.6 1.6c-.7-.2-1.3-.4-2-.6h-.2c-.4-.1-1.3-.3-3.2-.6-.7-.1-2.5-.4-5-.4.4 0 .9 0 1.2.1h-.3c1.1.1 2 .2 2.9.9-.1 0-.2-.1-.3-.1.2.7 1.1 1 1 1.9-.6-.2-.6-.2-1 0-.1.4-.1.6.5 1.3-.2.4-.6.9-.8 1.3-1.5-.8-2 .7-1.7 1.3.1.1.2.3.3.4-.5.5-1.2 1.2-1.7 1.6-1.3-.7-2.9.1-2.5 1.9-.6.7-1.4 1.6-2.1 2.2-1.2-.8-3.2 0-2.9 2.1-.7.8-1.6 1.8-2.4 2.5-1.7-1.2-3.3.7-3.2 2.1 0 .2.1.4.2.6-.8.7-1.8 1.7-2.6 2.4-1.7-1.4-3.3.9-3 2.4.2 1 1.2 1.9 2.6.9.6.8 1.4 1.8 2 2.6-1.3 2 .2 3.8 1.7 3.6.4-.1.7-.3.9-.5.7.8 1.7 1.9 2.5 2.7-1.2 2 .4 3.8 2.1 3.6.4-.1.7-.3 1-.4.8.8 1.9 1.8 2.7 2.6-1.2 1.9.5 3.6 2.1 3.3.4-.1.7-.3 1-.4.8.7 1.8 1.7 2.5 2.4-1.3 1.8.3 3.4 1.9 3.1.2 0 .4-.2.6-.3.7.6 1.5 1.4 2.1 2.1-1.3 1.6-.2 3 1.1 2.8.3 0 .6-.2.8-.3.4.6.9 1.4 1.2 2-1.1 1.1-1 2.3-.1 2.4.3.1.8-.2 1.1-.3.1.5.3 1.2.4 1.7-1.2 1-1.2 1.5-1.1 1.9.4.2.4.2 1-.1-.1.4-.2.9-.3 1.3-.7.4-1.1.7-1.7 1.3.1.1.2.1.3.2.1 0 .3-.1.4-.1-.4.3-.9.7-1.3 1-1.2.5-2.1.8-2.5 1 1-.1 2.3-.6 5.6-1.9.6.1 1.3-.3 5.5-2.7.4 0 .8 0 4.9-3.4-.1.1-.2.2-.2.3.2-.2.5-.4.7-.6.6-.6 1.1-1.1 1.5-1.6l.2-.2.1-.1c5-5.8 8.1-13.3 8.1-21.6 0-14.4-9.2-26.6-22.1-31l-.2-.1c-.1-.4-.2-.4-.3-.5"/></g></g><path d="M230.4 257.2c-1 0-1.9.4-2.6 1-.7.7-1.1 1.6-1.1 2.6v29.8c0 1 .4 1.9 1.1 2.6.7.7 1.6 1.1 2.6 1.1s1.9-.4 2.6-1.1c.7-.7 1-1.6 1-2.6v-29.8c0-1.1-.4-1.9-1.1-2.6-.5-.6-1.4-1-2.5-1zM230.7 243h-.4c-1.1 0-2.1.4-2.9 1.2-.8.8-1.2 1.7-1.2 2.9v.3c0 1.1.4 2.1 1.2 2.9.8.8 1.7 1.2 2.9 1.2h.4c1.1 0 2.1-.4 2.9-1.2.8-.8 1.2-1.7 1.2-2.9v-.4c0-1.1-.4-2.1-1.2-2.9-.9-.7-1.8-1.1-2.9-1.1zM264 258c-1.6-.7-3.6-1.1-6.1-1.1-2.5 0-5.1.8-7.8 2.4-1.2.7-2.5 1.8-4 3.3V261c0-1.1-.4-2-1.1-2.7-.7-.7-1.6-1-2.6-1s-1.9.4-2.6 1c-.7.7-1 1.6-1 2.6v29.8c0 1 .4 1.9 1 2.6.7.7 1.6 1.1 2.6 1.1s1.9-.4 2.6-1c.7-.7 1.1-1.6 1.1-2.6v-20.7c3.4-4.2 7-6.3 10.9-6.3 2.6 0 4.4.7 5.5 2.1 1.1 1.4 1.7 3.4 1.7 5.9v19c0 1 .4 1.9 1 2.6.7.7 1.6 1 2.6 1s1.9-.4 2.6-1c.7-.7 1.1-1.6 1.1-2.6V271c0-4-1.1-7.3-3.4-9.9-1.1-1.3-2.5-2.3-4.1-3.1zM293.4 256.9c-5.5 0-10 1.8-13.3 5.2-3.3 3.5-5 8.1-5 13.7s1.7 10.2 5 13.7 7.8 5.2 13.3 5.2c5.5 0 10-1.8 13.3-5.2 3.3-3.5 5-8.1 5-13.7s-1.7-10.2-5-13.7-7.8-5.2-13.3-5.2zm-9.9 13.2c1.9-4.3 5.1-6.4 10-6.4 2.9 0 5.4.9 7.4 2.7 2.4 2.2 3.6 5.4 3.6 9.4 0 4.1-1.2 7.3-3.6 9.5-1.1.9-2.3 1.6-3.6 2.1-2.6.9-5.1.9-7.7 0-1.3-.4-2.5-1.1-3.5-2.1-1-.9-1.9-2.2-2.6-3.8-.7-1.6-1-3.5-1-5.7 0-2.3.3-4.2 1-5.7zM343.4 257.2c-1.7 0-2.9.7-3.5 2.1l-10.2 25.8-10.2-25.8c-.6-1.4-1.8-2.1-3.5-2.1-.9 0-1.7.4-2.4 1.1-.7.7-1 1.5-1 2.3 0 .7.1 1.4.4 2l12.1 28.9c.4.8.9 1.4 1.6 2 .8.6 1.6.9 2.6.9h.7c1 0 1.9-.3 2.6-.9.7-.6 1.3-1.2 1.7-2l12.1-28.9c.3-.6.4-1.3.4-2.1 0-.7-.4-1.4-1-2.1-.7-.8-1.5-1.2-2.4-1.2zM354.5 243h-.4c-1.1 0-2.1.4-2.9 1.2-.8.8-1.2 1.7-1.2 2.9v.3c0 1.1.4 2.1 1.2 2.9.8.8 1.8 1.2 2.9 1.2h.4c1.1 0 2.1-.4 2.9-1.2s1.2-1.8 1.2-2.9v-.4c0-1.1-.4-2.1-1.2-2.9s-1.8-1.1-2.9-1.1zM354.3 257.2c-1 0-1.9.4-2.6 1-.7.7-1 1.6-1 2.6v29.8c0 1 .4 1.9 1 2.6.7.7 1.6 1.1 2.6 1.1s1.9-.4 2.6-1.1c.7-.7 1.1-1.6 1.1-2.6v-29.8c0-1.1-.4-1.9-1.1-2.6-.7-.6-1.6-1-2.6-1zM394.2 262.1c-3.3-3.5-7.8-5.2-13.3-5.2-5.5 0-10 1.8-13.3 5.2-3.3 3.5-5 8.1-5 13.7s1.7 10.2 5 13.7 7.8 5.2 13.3 5.2c5.5 0 10-1.8 13.3-5.2 3.3-3.5 5-8.1 5-13.7s-1.7-10.2-5-13.7zm-23.3 19.3c-.7-1.6-1-3.5-1-5.7s.3-4.1 1-5.7c1.9-4.3 5.1-6.4 10-6.4 2.9 0 5.4.9 7.4 2.7 2.4 2.2 3.6 5.4 3.6 9.4 0 4.1-1.2 7.3-3.6 9.5-1.1.9-2.3 1.6-3.5 2.1-2.6.9-5.1.9-7.7 0-1.3-.4-2.5-1.1-3.5-2.1-1.2-.9-2-2.2-2.7-3.8z" class="st2"/></svg>