<svg xmlns="http://www.w3.org/2000/svg" xmlns:xlink="http://www.w3.org/1999/xlink" id="Layer_1" x="0" y="0" version="1.1" viewBox="0 0 488 564" xml:space="preserve"><style>.st2{fill:#5f6062}.st3{fill:#ffd200}</style><g id="grupa_pep"><defs><path id="SVGID_1_" d="M259.8 531.3v7.8c-.9.3-2.8.9-5 .9-2.4 0-4.5-.6-6-2.1-1.4-1.3-2.3-3.5-2.3-6 0-4.8 3.3-8.4 8.8-8.4 1.9 0 3.3.4 4 .7l-.5 1.7c-.9-.4-1.9-.7-3.6-.7-3.9 0-6.5 2.4-6.5 6.5s2.5 6.5 6.2 6.5c1.4 0 2.3-.2 2.8-.4V533h-3.3v-1.7h5.4zm3.3 8.5v-8c0-1.4 0-2.5-.1-3.6h1.8l.1 2.3h.1c.5-1.6 1.8-2.5 3.2-2.5.2 0 .4 0 .6.1v2c-.2 0-.4-.1-.7-.1-1.5 0-2.5 1.1-2.8 2.7 0 .3-.1.6-.1 1v6.2h-2.1v-.1zm17.8-11.6v8.4c0 1.2 0 2.3.1 3.2h-1.9l-.1-1.9c-.6.9-1.8 2.2-3.8 2.2-1.8 0-4-1-4-5.1v-6.8h2.1v6.4c0 2.2.7 3.7 2.6 3.7 1.4 0 2.4-1 2.8-1.9.1-.3.2-.7.2-1.1v-7.1h2zm3.7 16.4V532c0-1.5 0-2.7-.1-3.8h1.9l.1 2c.9-1.4 2.2-2.3 4.1-2.3 2.8 0 4.9 2.4 4.9 5.9 0 4.2-2.5 6.2-5.3 6.2-1.5 0-2.9-.7-3.6-1.8v6.3h-2v.1zm2.1-11.5v2c0 .3 0 .6.1.9.4 1.5 1.7 2.5 3.2 2.5 2.2 0 3.5-1.8 3.5-4.5 0-2.3-1.2-4.3-3.5-4.3-1.4 0-2.8 1-3.2 2.6-.1.2-.1.5-.1.8zm19.9-.4v4.3c0 1 0 2 .2 2.8h-1.9l-.2-1.5h-.1c-.6.9-1.9 1.7-3.6 1.7-2.4 0-3.6-1.7-3.6-3.3 0-2.8 2.5-4.3 7-4.3v-.2c0-1-.3-2.7-2.6-2.7-1.1 0-2.2.3-3 .9l-.5-1.4c1-.6 2.4-1 3.8-1 3.6-.1 4.5 2.3 4.5 4.7zm-2.1 3.2v-2c-2.3 0-4.9.4-4.9 2.6 0 1.4.9 2 2 2 1.5 0 2.5-1 2.8-1.9.1-.3.1-.5.1-.7z"/></defs><clipPath id="SVGID_2_"><use overflow="visible" xlink:href="#SVGID_1_"/></clipPath><path fill="#878988" d="M241.5 518.5h70.2v31.1h-70.2z" clip-path="url(#SVGID_2_)"/><defs><path id="SVGID_3_" d="M325.6 502c-2.2 0-4 1.8-4 4v51.4c0 2.2 1.8 4 4 4h90.6c2.2 0 4-1.8 4-4V506c0-2.2-1.8-4-4-4h-90.6zm0-1h90.6c2.8 0 5 2.2 5 5v51.4c0 2.8-2.2 5-5 5h-90.6c-2.8 0-5-2.2-5-5V506c0-2.8 2.3-5 5-5z"/></defs><use fill="#878988" overflow="visible" xlink:href="#SVGID_3_"/><clipPath id="SVGID_4_"><use overflow="visible" xlink:href="#SVGID_3_"/></clipPath><g><defs><path id="SVGID_5_" d="M336.2 528.2v22.2h5.4v-22.2c0-4.4 3.6-8 8.1-8 2.6 0 5 1.2 6.5 3.3h.2c.6-1.8 1.4-3.4 2.6-4.9-2.5-2.4-5.9-3.8-9.4-3.8-7.4.1-13.4 6-13.4 13.4zm44.2-9.5c-2.5-2.4-5.9-3.8-9.4-3.8-5.6 0-10.6 3.5-12.6 8.7h6c1.5-2.1 4-3.3 6.5-3.3 2.7 0 5.2 1.3 6.7 3.6.7-2 1.6-3.7 2.8-5.2zm6.1 14.8v6.6c1.9.9 3.9 1.4 6 1.4 7.4 0 13.4-6 13.4-13.3 0-7.4-6-13.3-13.4-13.3s-13.4 6-13.4 13.3v22h5.4v-22c0-4.4 3.6-8 8-8s8.1 3.6 8.1 8-3.6 8-8.1 8c-2.3 0-4.5-1-6-2.7zm-36.9-2.6h21.5v-5.3h-21.5v5.3zm9.4 6.9c-1.2-1.5-2-3.1-2.6-4.9h-.2c-1.5 2.1-3.9 3.4-6.5 3.4-2.3 0-4.5-1-6-2.7v6.6c1.9.9 3.9 1.4 6 1.4 3.4 0 6.8-1.4 9.3-3.8z"/></defs><clipPath id="SVGID_6_"><use overflow="visible" xlink:href="#SVGID_5_"/></clipPath><path fill="#878988" d="M331.2 509.9H411v45.5h-79.8z" clip-path="url(#SVGID_6_)"/></g><g><defs><path id="SVGID_7_" d="M377.3 534.1c-1.6 1.8-3.8 2.8-6.2 2.8-2.7 0-5.1-1.3-6.7-3.4h-6.2c2 5.3 7.1 8.9 12.9 8.9 2.1 0 4.3-.5 6.2-1.5v-6.8"/></defs><clipPath id="SVGID_8_"><use overflow="visible" xlink:href="#SVGID_7_"/></clipPath><path fill="#d82127" d="M353.3 528.5h29v18.9h-29z" clip-path="url(#SVGID_8_)"/></g></g><g id="PayLane"><g id="PayLane_napis"><path d="M147.9 476.1c-1.1 1.8-3 3.3-5.8 4.5-2.7 1.2-5.6 1.7-8.6 1.7-5.6 0-10.1-1.4-13.3-4.2-3.2-2.8-4.8-6.8-4.8-12 0-6 2.3-10.8 6.8-14.2s11-5.1 19.3-5.1c1.4 0 3.1.2 5.1.7 0-6.1-3.9-9.2-11.7-9.2-4.6 0-8.4.8-11.5 2.3l-2.6-9.5c4.2-2 9.2-3 15-3 8 0 13.8 1.8 17.5 5.4 3.7 3.6 5.6 10.5 5.6 20.6v11.2c0 7 1.4 11.3 4.2 13.1-1 1.8-2.1 2.8-3.4 3.2-1.2.4-2.7.6-4.2.6-1.8 0-3.3-.7-4.7-1.9-1.5-1.2-2.4-2.6-2.9-4.2zm-1.2-19.3c-2.1-.4-3.6-.6-4.7-.6-9.6 0-14.4 3.2-14.4 9.5 0 4.7 2.7 7 8.1 7 7.3 0 11-3.7 11-11v-4.9zM216.7 481.4v-71.5h12.7v60.2h32.3v11.3h-45zM297.8 476.1c-1.1 1.8-3 3.3-5.8 4.5-2.7 1.2-5.6 1.7-8.6 1.7-5.6 0-10.1-1.4-13.3-4.2-3.2-2.8-4.8-6.8-4.8-12 0-6 2.3-10.8 6.8-14.2 4.5-3.4 11-5.1 19.3-5.1 1.4 0 3.1.2 5.1.7 0-6.1-3.9-9.2-11.7-9.2-4.6 0-8.4.8-11.5 2.3l-2.6-9.5c4.2-2 9.2-3 15-3 8 0 13.8 1.8 17.5 5.4 3.7 3.6 5.6 10.5 5.6 20.6v11.2c0 7 1.4 11.3 4.2 13.1-1 1.8-2.1 2.8-3.4 3.2-1.2.4-2.6.6-4.2.6-1.8 0-3.3-.7-4.7-1.9-1.5-1.2-2.4-2.6-2.9-4.2zm-1.2-19.3c-2.1-.4-3.6-.6-4.7-.6-9.6 0-14.4 3.2-14.4 9.5 0 4.7 2.7 7 8.2 7 7.3 0 11-3.7 11-11v-4.9zM351.9 481.4v-30.2c0-4.5-.9-7.7-2.6-9.8-1.7-2.1-4.5-3.1-8.4-3.1-1.8 0-3.7.5-5.7 1.5s-3.6 2.3-4.8 3.8v37.8h-12.2v-52.2h8.8l2.2 4.9c3.3-3.9 8.2-5.8 14.7-5.8 6.2 0 11.1 1.9 14.7 5.6 3.6 3.7 5.4 8.9 5.4 15.6v32.1h-12.1zM106.3 414.6c-5.2-3.5-13.5-5.2-24.8-5.2-1.4 0-6.4.2-14.8.5v71.4h12.7v-60.4c1.2-.2 2.5-.2 3.9-.2 11.9 0 17.9 3.7 17.9 11.1 0 4.4-1.3 7.5-4 9.4-1.3.9-3 1.7-5 2.1V455c14.7-1.8 22-9.9 22-24.2-.1-7.3-2.7-12.7-7.9-16.2zM180.8 450.1l-8.3-21h-12.7l15 37zM199.5 429.1l-12.8 36.1-6.6 18.9c-1.9 4.8-4.7 7-14.1 7v10.8c5.7 0 10.7-1.2 14.9-3.4 4.3-2.3 7.1-5.2 8.4-8.7l22.9-60.6h-12.7zM421.3 452.2c0-7-2.3-12.7-6.9-17.3-4.6-4.5-10.7-6.8-18.2-6.8-7.1 0-13.2 2.6-18.3 7.7-5.1 5.1-7.6 11.8-7.6 20 0 8.4 2.3 14.9 6.9 19.5 4.6 4.7 10.9 7 18.9 7 8.5 0 14.9-1.7 19.2-5.2l-4.7-9.3c-2.9 2.9-7.1 4.3-12.7 4.3-4.5 0-8-1.2-10.6-3.5-2.1-1.8-3.4-4.3-4-7.3-1.6-8.7 1.1-14.8 1.1-14.8 2.1-5.5 6.1-8.3 12-8.3 7.6 0 11.8 3.8 12.7 11.5h-14.6v9.2h25.8c.6-2.9 1-5.2 1-6.7z" class="st2"/></g><g id="PayLane_ikona"><path d="M2.7 19.4S295.4 48.5 153 379.7h143.3S375.4 13.9 2.7 19.4z" class="st2"/><path d="M380.9 64.5H270.1C229.1 28.9 168.2 4.3 79 1.7c265.4 50.5 261.1 241.5 231.1 378H381c11.4 0 20.7-9.2 20.7-20.7V85.2c-.1-11.4-9.3-20.7-20.8-20.7z" class="st3"/><path d="M108.4 64.5H107c-11.4 0-20.7 9.3-20.7 20.7V359c0 11.4 9.3 20.7 20.7 20.7h1.8c24.8-34.2 137.1-205.5-.4-315.2z" class="st3"/></g></g></svg>