<svg xmlns="http://www.w3.org/2000/svg" version="1.0" viewBox="0 0 198 198"><g fill="#983222"><path d="M86.3 1.1C57.9 4.7 31.9 21.2 16 45.5-5.8 79-4.8 124 18.6 156.7c4.6 6.5 12.8 15.3 14.2 15.3.4 0 9-8.3 19.2-18.5L70.4 135l-3.4-3.5-3.4-3.5-9.7 9.6c-10.6 10.6-13.5 11.8-17.2 7.3-3-3.7-1.4-6.6 10-18 9.2-9.3 10.4-10.9 9.4-12.6-.5-1.1-1.5-4.9-2-8.4-3.1-19.4 8.2-39.6 27.1-48.4 6.7-3.1 9.3-5.4 30.7-26.9l23.5-23.5-3-1.1c-12.9-5-31-6.9-46.1-4.9z"/><path d="M127 33.5c-13.2 13.2-19.9 20.6-18.9 20.9.7.2 3 .9 4.9 1.5l3.4 1.1 19.3-19.2c10.6-10.6 19.3-19.6 19.3-20 0-.6-6.2-4.8-7.1-4.8-.2 0-9.6 9.2-20.9 20.5zM146.7 44.8L128 63.6l3.5 3.4 3.5 3.4 9.1-9.2c9.8-9.8 11.9-10.7 15.7-7.2 4.2 3.9 3 6.5-7.9 17.6l-10.1 10.2 1.6 6.4c.9 3.5 1.6 8.3 1.6 10.6 0 18.4-12.3 36.4-29.4 42.9-3 1.2-10.2 7.7-28.3 25.6-27.6 27.5-26.4 24.4-11.3 28.3 11.1 2.8 37.3 2.6 48.5-.4 11.7-3.2 28.6-11.9 37.5-19.4 24.9-21.1 37.3-49.4 35.7-81.7-.9-18.9-6-34.4-16.2-49.5-4.3-6.5-14.6-18.6-15.8-18.6-.1 0-8.7 8.5-19 18.8z"/><path d="M62.1 161.4l-19.4 19.4 3.9 2.5 3.9 2.5 20.7-20.6L92 144.6l-4.3-1.3c-2.3-.7-4.7-1.3-5.2-1.3-.6 0-9.7 8.7-20.4 19.4z"/></g></svg>