<svg xmlns="http://www.w3.org/2000/svg" id="Layer_1" data-name="Layer 1" viewBox="0 0 400 400"><defs><style>.cls-1{fill:#4a4a8b}.cls-2{fill:#b3c657}</style></defs><path d="m179.86 386.22-3.55-25.49-3.1 27.62a5.66 5.66 0 0 1-1.41 3.44 3.87 3.87 0 0 1-2.85 1.15 3.11 3.11 0 0 1-2.55-1.13 4.67 4.67 0 0 1-.65-3.46l3.56-31.66a4.43 4.43 0 0 1 1.76-3.53 7.07 7.07 0 0 1 3.79-.92h2.51a9.2 9.2 0 0 1 3.24.41 2.35 2.35 0 0 1 1.35 1.47 21 21 0 0 1 .73 3.47l3.31 21.92 8.28-21.92a25.6 25.6 0 0 1 1.51-3.47 3.17 3.17 0 0 1 1.68-1.47 10 10 0 0 1 3.33-.41h2.51a6 6 0 0 1 3.58.92c.85.61 1.17 1.78 1 3.53l-3.55 31.66a5.55 5.55 0 0 1-1.41 3.44 3.9 3.9 0 0 1-2.87 1.15 3 3 0 0 1-2.52-1.15 4.59 4.59 0 0 1-.65-3.44l3.1-27.62-9.28 25.49c-.6 1.66-1.08 2.87-1.43 3.65a5.86 5.86 0 0 1-1.7 2.11 4.66 4.66 0 0 1-3.05 1 4.11 4.11 0 0 1-2.34-.62 3.71 3.71 0 0 1-1.35-1.57 8 8 0 0 1-.62-2.11c-.11-.81-.22-1.62-.36-2.46ZM279.89 359H271l-3.24 29.12a6 6 0 0 1-1.54 3.73 4.19 4.19 0 0 1-3 1.21 3.4 3.4 0 0 1-2.8-1.23 4.86 4.86 0 0 1-.72-3.71l3.24-29.12h-8.85a4.1 4.1 0 0 1-3-.91 2.8 2.8 0 0 1-.74-2.42 3.47 3.47 0 0 1 1.32-2.46 5 5 0 0 1 3.15-.9h25.81a4.12 4.12 0 0 1 3 .93 2.81 2.81 0 0 1 .76 2.43 3.47 3.47 0 0 1-1.31 2.42 5 5 0 0 1-3.19.91ZM284.1 388.2l3.24-31a5.79 5.79 0 0 1 1.47-3.62 4.07 4.07 0 0 1 3-1.21 3.44 3.44 0 0 1 2.79 1.19 4.85 4.85 0 0 1 .73 3.64l-3.23 31a5.75 5.75 0 0 1-1.5 3.65 4.18 4.18 0 0 1-3 1.21 3.27 3.27 0 0 1-2.7-1.22 4.9 4.9 0 0 1-.8-3.64ZM354.67 357.11l12.75 23.14 2.44-23.35a5.69 5.69 0 0 1 1.33-3.41 3.64 3.64 0 0 1 2.74-1.14 3 3 0 0 1 2.56 1.14 4.72 4.72 0 0 1 .63 3.41l-3.24 30.87c-.36 3.44-2 5.17-4.79 5.17a5.41 5.41 0 0 1-1.88-.31 4.2 4.2 0 0 1-1.49-1 8 8 0 0 1-1.22-1.56c-.36-.6-.72-1.21-1.08-1.84L351 365.39l-2.42 23a5.43 5.43 0 0 1-1.39 3.4 3.83 3.83 0 0 1-2.78 1.15 3 3 0 0 1-2.56-1.17 4.64 4.64 0 0 1-.65-3.38l3.17-30.29a9 9 0 0 1 .75-3 5 5 0 0 1 1.88-2 4.9 4.9 0 0 1 2.6-.76 4 4 0 0 1 1.78.35 3.78 3.78 0 0 1 1.23.93 8.27 8.27 0 0 1 1 1.53Z" class="cls-1"/><path d="M87 376.74h-7.46L78 388.1a6 6 0 0 1-1.64 3.69 4.3 4.3 0 0 1-3.07 1.26 3.31 3.31 0 0 1-2.79-1.24 4.85 4.85 0 0 1-.64-3.66L74 357.22a5.79 5.79 0 0 1 1.74-3.83 6.23 6.23 0 0 1 4.07-1.15h10.44a26.42 26.42 0 0 1 7 .71 9.06 9.06 0 0 1 4 2.27 8.61 8.61 0 0 1 2.21 3.89 12.91 12.91 0 0 1 .24 5.17q-.83 6.14-5 9.3T87 376.74Zm.48-18.4H82l-1.64 12.27h5.48a16.87 16.87 0 0 0 4.88-.61 6.21 6.21 0 0 0 4.7-5.55 5.49 5.49 0 0 0-1-4.33c-1-1.18-3.32-1.78-6.96-1.78ZM124.53 387.93l-1.11-4.93h-16l-2.7 5a21.9 21.9 0 0 1-2.5 4 3.5 3.5 0 0 1-2.72 1 3.19 3.19 0 0 1-2.5-1 2.92 2.92 0 0 1-.76-2.5 6.39 6.39 0 0 1 .52-1.67c.27-.57.69-1.37 1.27-2.39l14.07-25.59 1.45-2.65a17.09 17.09 0 0 1 1.69-2.57 6.64 6.64 0 0 1 2.06-1.65 6.15 6.15 0 0 1 2.86-.63 5 5 0 0 1 2.68.63 4.22 4.22 0 0 1 1.55 1.62 9.67 9.67 0 0 1 .82 2.14c.2.76.44 1.78.72 3.05l6.33 25.44a11.73 11.73 0 0 1 .55 4.22 4.19 4.19 0 0 1-1.54 2.51 4.38 4.38 0 0 1-2.93 1.14 3.28 3.28 0 0 1-1.56-.33 2.73 2.73 0 0 1-1-.92 6.85 6.85 0 0 1-.7-1.77c-.21-.84-.4-1.54-.55-2.15ZM110.43 377h11.77l-3.4-16.27ZM140 388.29l1.54-12.52-7.8-14.94a27.6 27.6 0 0 1-1.4-3.15 4.44 4.44 0 0 1-.28-2 3.62 3.62 0 0 1 1.35-2.37 4.17 4.17 0 0 1 2.75-1 2.86 2.86 0 0 1 2.38.93 23.29 23.29 0 0 1 2.08 3.7l5.9 12 8.94-12 1.36-1.86a13.35 13.35 0 0 1 1.18-1.41 4.68 4.68 0 0 1 1.35-1 3.86 3.86 0 0 1 1.69-.35 3.08 3.08 0 0 1 2.39 1 2.75 2.75 0 0 1 .73 2.28 5.13 5.13 0 0 1-.77 2.1 32.92 32.92 0 0 1-2.11 2.9l-11.75 15.16-1.53 12.53a5.87 5.87 0 0 1-1.58 3.66 4.24 4.24 0 0 1-3 1.21 3.28 3.28 0 0 1-2.73-1.2 4.79 4.79 0 0 1-.69-3.67ZM37.25 354.75H11.97a2.81 2.81 0 0 0 0 5.54 2.2 2.2 0 0 0 .27 0h24.5a10.11 10.11 0 0 1 .66 20.19 10.28 10.28 0 0 1-10.77-10.36 2.81 2.81 0 0 0-5.6 0s0 .07 0 .1v.09a2.83 2.83 0 0 0 0 .29 16 16 0 0 0 16.33 15.5 15.72 15.72 0 0 0-.12-31.41Z" class="cls-2"/><path d="M37 343.27H4.63a.76.76 0 0 0-.21 0 2.67 2.67 0 0 0 .5 5.3H36.79a21.82 21.82 0 1 1-22 21.82v-.18a2.66 2.66 0 1 0-5.32 0v.18A27.14 27.14 0 1 0 37 343.27Z" class="cls-1"/><path d="M226 74.21c-.29 0-152.28.07-152.44.11a16.92 16.92 0 0 0-.26 33.4 12.07 12.07 0 0 0 1.64.2H222.88a60.92 60.92 0 0 1 4 121.71c-35.33 2.24-65-26.85-64.88-62.47h-.05a16.91 16.91 0 0 0-33.74 0v1.13a17.19 17.19 0 0 0 .09 1.77c.91 51.36 45.52 95.55 98.51 93.46 48.73-1.93 88.52-41.41 90.8-90.12A94.75 94.75 0 0 0 226 74.21Z" class="cls-2"/><path d="M224.24 5a2.85 2.85 0 0 0-.29 0H32.39c-.46 0-.92-.07-1.38-.07s-.92 0-1.38.07h-.36a3.89 3.89 0 0 0-1.27.16 16.12 16.12 0 0 0 3 32 17.18 17.18 0 0 0 2-.14h190.21A131.57 131.57 0 1 1 90.62 168.55v-1.09a16 16 0 0 0-32.09 0v1.09A163.64 163.64 0 1 0 224.24 5ZM232.53 352a19.9 19.9 0 0 1 10.38 2.51 14 14 0 0 1 6 7.15 23.23 23.23 0 0 1 1.12 10.9 28.46 28.46 0 0 1-2.14 8.4 20.89 20.89 0 0 1-4.46 6.55 18.93 18.93 0 0 1-6.59 4.25 23.45 23.45 0 0 1-8.51 1.47 20.84 20.84 0 0 1-8.21-1.51 14.33 14.33 0 0 1-5.72-4.26 15.92 15.92 0 0 1-3-6.61 25.79 25.79 0 0 1-.37-8.35 27.39 27.39 0 0 1 2.21-8.43 20.82 20.82 0 0 1 4.52-6.52 19 19 0 0 1 6.53-4.12 22.93 22.93 0 0 1 8.24-1.43Zm9.29 20.5a18 18 0 0 0-.6-7.58 9.11 9.11 0 0 0-3.53-4.86 10.19 10.19 0 0 0-5.84-1.64 11.51 11.51 0 0 0-4.57.91 11.24 11.24 0 0 0-3.82 2.65 14.51 14.51 0 0 0-2.81 4.44 21.18 21.18 0 0 0-1.51 6.08 20.29 20.29 0 0 0 .2 6.15 11.07 11.07 0 0 0 1.94 4.55 8.66 8.66 0 0 0 3.3 2.71 10.19 10.19 0 0 0 4.35.9 11.81 11.81 0 0 0 5.86-1.55 12.62 12.62 0 0 0 4.65-4.79 19.89 19.89 0 0 0 2.38-7.98ZM320.17 352a19.85 19.85 0 0 1 10.38 2.51 14 14 0 0 1 6 7.15 23.23 23.23 0 0 1 1.13 10.9 28.46 28.46 0 0 1-2.15 8.4 20.86 20.86 0 0 1-4.45 6.55 19.07 19.07 0 0 1-6.6 4.25 23.41 23.41 0 0 1-8.51 1.47 20.91 20.91 0 0 1-8.21-1.51 14.33 14.33 0 0 1-5.72-4.26 15.92 15.92 0 0 1-3-6.61 26.08 26.08 0 0 1-.37-8.35 27.4 27.4 0 0 1 2.22-8.43 20.8 20.8 0 0 1 4.51-6.52 19 19 0 0 1 6.53-4.12 23 23 0 0 1 8.24-1.43Zm9.3 20.5a18 18 0 0 0-.61-7.58 9.1 9.1 0 0 0-3.52-4.86 10.2 10.2 0 0 0-5.85-1.64 11.54 11.54 0 0 0-4.57.91 11.33 11.33 0 0 0-3.82 2.67 14.51 14.51 0 0 0-2.81 4.44 21.51 21.51 0 0 0-1.51 6.08 20 20 0 0 0 .21 6.15 11.06 11.06 0 0 0 1.93 4.55 8.81 8.81 0 0 0 3.3 2.71 10.19 10.19 0 0 0 4.35.9 11.88 11.88 0 0 0 5.87-1.55 12.52 12.52 0 0 0 4.64-4.79 20.05 20.05 0 0 0 2.39-8ZM390.36 342.08a7.15 7.15 0 1 0 7.15 7.15 7.15 7.15 0 0 0-7.15-7.15Zm0 13.44a6.29 6.29 0 1 1 6.29-6.29 6.29 6.29 0 0 1-6.29 6.29Z" class="cls-1"/><text style="font-size:8.98px;font-family:ArialRoundedMTBold,Arial Rounded MT Bold;fill:#4a4a8b" transform="translate(387.12 352.14)">R</text></svg>