<svg xmlns="http://www.w3.org/2000/svg" viewBox="0 0 263.751 263.751"><path d="M131.876 15.902a115.974 115.974 0 0 0-67.968 209.944V62.02h22.623v14.527a67.608 67.608 0 0 1 47.132-18.973c39.588 0 69.752 32.856 69.752 73.255 0 39.856-30.164 72.175-69.752 72.175a68.156 68.156 0 0 1-47.132-18.675v54.319a115.986 115.986 0 1 0 45.345-222.745Z" style="fill:#00aff0"/><path d="M180.525 130.828c0-28.818-21.008-52.247-46.862-52.247-25.584 0-46.592 23.43-46.592 52.247 0 28.277 21.008 51.17 46.592 51.17 25.854 0 46.862-22.893 46.862-51.17Z" style="fill:#00aff0"/></svg>