<svg xmlns="http://www.w3.org/2000/svg" id="Layer_1" data-name="Layer 1" viewBox="0 0 700 120"><defs><style>.cls-1{fill:#0092ab}.cls-2{fill:#81c241}</style></defs><path d="M179.831 49.173h23.945c14.129 0 23.224 7.265 23.224 19.637v.161c0 13.169-10.136 20.114-24.026 20.114h-7.663v15.964h-15.48Zm22.828 27.779c5.507 0 8.86-2.873 8.86-7.263v-.161c0-4.788-3.353-7.343-8.94-7.343h-7.264v14.767ZM251.672 48.775H266.6l23.787 56.274h-16.6l-4.07-9.978h-21.558l-3.99 9.978h-16.285Zm13.57 34.244-6.227-15.884-6.306 15.884ZM309.546 84.136l-21.233-34.963h17.641l11.5 20.355 11.574-20.355h17.321L325.112 83.9v21.152h-15.566Z" class="cls-1"/><path d="M379.712 72.641c11.814 2.875 17.96 7.1 17.96 16.444 0 10.537-8.222 16.762-19.955 16.762a34.412 34.412 0 0 1-23.308-8.94l5.906-7.024c5.348 4.631 10.7 7.265 17.64 7.265 6.068 0 9.9-2.8 9.9-7.106 0-4.07-2.236-6.225-12.612-8.62-11.893-2.874-18.6-6.386-18.6-16.762 0-9.738 7.982-16.284 19.077-16.284A30.971 30.971 0 0 1 396 55.4l-5.269 7.424c-5.028-3.752-10.057-5.747-15.166-5.747-5.747 0-9.1 2.954-9.1 6.7-.004 4.394 2.551 6.31 13.247 8.864ZM424.814 49.173v55.876H415V49.173ZM473.985 91.319h-.318l-17.481-26.18v39.91h-9.659V49.173h10.456l17 26.422 17-26.422h10.456v55.876h-9.818v-40.07ZM542.318 87.09h-11.1v17.959H521.4V49.173h22.031c13.011 0 21.233 7.345 21.233 18.76.004 12.612-10.054 19.157-22.346 19.157Zm.319-28.977h-11.415v20.116h11.415c7.423 0 12.053-4.07 12.053-10.058 0-6.624-4.71-10.058-12.053-10.058ZM579.917 49.173h9.817v46.936h29.375v8.94h-39.192ZM676.742 57.954h-31.609v14.528h28.017v8.781h-28.017v15h32.008v8.781h-41.826V49.173h41.427ZM690.613 57.942A4.375 4.375 0 1 1 695 53.555a4.345 4.345 0 0 1-4.387 4.387Zm.024-8.14a3.766 3.766 0 1 0 3.731 3.754 3.73 3.73 0 0 0-3.731-3.756Zm.924 4.181 1.178 1.652h-.993l-1.063-1.513h-.912v1.513h-.832v-4.378h1.952c1.016 0 1.687.52 1.687 1.4a1.306 1.306 0 0 1-1.017 1.326Zm-.705-1.975h-1.085v1.386h1.085c.543 0 .867-.265.867-.693 0-.45-.323-.693-.867-.693Z" class="cls-2"/><path d="M5 14.153h34.941v34.941H5z" style="fill:#62ba46"/><path d="M127.292 49.094h-34.94V14.153a34.94 34.94 0 0 1 34.94 34.941Z" style="fill:#0db04b"/><path d="M92.352 70.058h34.941v34.941H92.352z" class="cls-1"/><path d="M39.941 14.153h52.411v34.941H39.941z" class="cls-2"/><path d="M39.941 70.058h52.411v34.941H39.941z" style="fill:#4ba5dc"/><path d="M39.941 105A34.941 34.941 0 0 1 5 70.058h34.941Z" style="fill:#4d9a47"/><path d="M5 49.094h34.941v20.964H5z" style="fill:#c9da2a"/><path d="M92.352 49.094h34.941v20.964H92.352z" style="fill:#69c8cf"/></svg>