<svg xmlns="http://www.w3.org/2000/svg" data-name="Layer 1" viewBox="0 0 61.25 61.25"><path d="M0 0h61.25v61.25H0z" style="fill:#82bd41"/><path d="M14.28 12.31A2.34 2.34 0 0 1 16.57 10H32c5.06 0 9.11 1.53 11.7 4.12a11.34 11.34 0 0 1 3.17 8.11v.11c0 6.76-4.58 10.7-11 11.93l10.2 13.13a2.51 2.51 0 0 1 .76 1.7 2.42 2.42 0 0 1-2.35 2.29 2.71 2.71 0 0 1-2.17-1.23l-11.58-15H18.92V49a2.32 2.32 0 1 1-4.64 0Zm17.27 18.63c6.17 0 10.58-3.17 10.58-8.46v-.12c0-5.05-3.88-8.11-10.52-8.11H18.92v16.69Z" style="fill:#fff"/></svg>