<svg xmlns="http://www.w3.org/2000/svg" xml:space="preserve" style="enable-background:new 0 0 300 300" viewBox="0 0 300 300"><path d="M150.2 6C71.2 6 7 70.2 7 149.2c0 79 64.2 143.2 143.2 143.2s143.2-64.2 143.2-143.2C293.4 70.2 229.1 6 150.2 6z" style="fill:#136ef6"/><path d="M167.1 67.4 87.9 169c-.3.4-.5 1-.5 1.5v11.7c0 1.3 1.1 2.4 2.4 2.4h70.8c1.3 0 2.4 1.1 2.4 2.4v41c0 1.3 1.1 2.4 2.4 2.4h15.1c1.3 0 2.4-1.1 2.4-2.4V68.8c0-1.3-1.1-2.4-2.4-2.4H169c-.7 0-1.4.4-1.9 1zm-53 95.1 44.6-56.9c1.4-1.8 4.3-.8 4.3 1.5V164c0 1.3-1.1 2.4-2.4 2.4H116c-2 0-3.1-2.3-1.9-3.9z" style="fill:#fff"/></svg>