<svg xmlns="http://www.w3.org/2000/svg" xmlns:xlink="http://www.w3.org/1999/xlink" id="a" viewBox="0 0 864 188.28"><defs><style>.p{fill:#0077c8}.q{fill:#2cd5c4}</style></defs><g id="b"><a xlink:href="37.047"><path id="c" d="M117.99 47.87c0 9.95-3.84 19.92-11.54 27.52-.29.29-.55.55-.85.84L86.59 94.99l-.85-.85L70.71 79.1c-29.34-29.33-5.01-58.68-.7-63.43l.05-.05c.12-.11.2-.21.25-.26L85.86 0l20.59 20.34c7.7 7.6 11.54 17.56 11.54 27.53Z" class="q"/></a><a xlink:href="63.665"><path id="d" d="m107.91 166.11-22.17 22.17-15.08-15.09-64.64-64.66c-.25-.25-.5-.5-.72-.76-.22-.26-.46-.52-.67-.79-.22-.27-.44-.55-.64-.81-5.31-7.13-5.31-16.94 0-24.07.2-.26.41-.54.64-.81.21-.26.45-.52.67-.79.22-.26.47-.5.72-.75l63.76-63.83.24-.25c-4.32 4.75-28.64 34.1.7 63.43l15.03 15.04.85.85 18.34 18.32c.29.29.55.56.82.82 15.52 13.43 16.86 37.41 2.16 51.98Z" class="p"/></a><a xlink:href="37.047"><path id="e" d="M132.48 140.4c0-9.95 3.84-19.92 11.54-27.52.29-.29.55-.55.85-.84l19.01-18.76.85.85 15.03 15.04c29.34 29.33 5.01 58.68.7 63.43l-.05.05c-.12.11-.2.21-.25.26l-15.54 15.35-20.59-20.34c-7.7-7.6-11.54-17.56-11.54-27.53Z" class="q"/></a><a xlink:href="63.665"><path id="f" d="M142.56 22.17 164.72 0l15.08 15.09 64.65 64.65c.25.25.5.5.72.76.22.26.46.52.67.79.22.27.44.55.64.81 5.31 7.13 5.31 16.94 0 24.07-.2.26-.41.54-.64.81-.21.26-.45.52-.67.79-.22.26-.47.5-.72.75l-63.76 63.84-.24.25c4.32-4.75 28.64-34.1-.7-63.43l-15.03-15.04-.85-.85-18.34-18.32c-.29-.29-.55-.56-.82-.82-15.52-13.43-16.86-37.41-2.16-51.98Z" class="p"/></a></g><g id="g"><path id="h" d="M283.93 128.27v-9.73c0-2.13 1.2-3.33 3.33-3.33h36.66c7.33 0 10.13-1.6 10.13-6.27s-2-5.87-9.07-6.67L304.45 100c-16.66-1.87-22.13-8.27-22.13-22.13s8.53-21.2 26.8-21.2h35.73c2.13 0 3.33 1.2 3.33 3.33v9.73c0 2.13-1.2 3.33-3.33 3.33h-35.33c-6.67 0-9.73 1.47-9.73 6.53 0 4.4 1.87 5.73 8 6.4l20.13 2.27c18.66 2.27 23.86 9.07 23.86 22.53 0 15.06-8.4 20.8-28 20.8h-36.53c-2.13 0-3.33-1.2-3.33-3.33Z" class="p"/><path id="i" d="M438.05 85.87V102c0 19.06-6.27 29.6-27.6 29.6h-12.8c-10.26 0-16.13-2.93-19.33-8.53v31.46c0 2.13-1.2 3.33-3.33 3.33h-10.93c-2.13 0-3.33-1.2-3.33-3.33V60.01c0-2.13 1.2-3.33 3.33-3.33h10.93c2.13 0 3.33 1.2 3.33 3.33v5.2c3.2-5.6 9.07-8.53 19.33-8.53h12.8c21.33 0 27.6 10.67 27.6 29.2Zm-17.6-1.6c0-9.07-2.4-11.2-10.4-11.2h-21.33c-7.2 0-10.4 1.87-10.4 11.2v19.6c0 9.47 3.2 11.33 10.4 11.33h21.33c8 0 10.4-2.13 10.4-11.33v-19.6Z" class="p"/><path id="j" d="M496.17 56.68c2.13 0 3.33 1.2 3.33 3.33v9.73c0 2.13-1.2 3.33-3.33 3.33h-19.2c-7.2 0-10.4 1.87-10.4 11.33v43.86c0 2.13-1.2 3.33-3.33 3.33h-10.93c-2.13 0-3.33-1.2-3.33-3.33V60.01c0-2.13 1.2-3.33 3.33-3.33h10.93c2.13 0 3.33 1.2 3.33 3.33v5.33c3.2-5.6 9.07-8.67 19.33-8.67h10.26Z" class="p"/><path id="k" d="M504.31 102V85.87c0-18.53 6.13-29.2 27.6-29.2h18.8c21.46 0 27.6 10.67 27.6 29.2v12c0 2.13-1.2 3.33-3.33 3.33h-53.06v2.67c0 9.2 2.4 11.33 10.4 11.33h36.66c2.13 0 3.33 1.2 3.33 3.33v9.73c0 2.13-1.2 3.33-3.33 3.33h-37.06c-21.46 0-27.6-10.53-27.6-29.6Zm56.39-14.26v-3.47c0-9.07-2.27-11.2-10.4-11.2h-18c-8.13 0-10.4 2.13-10.4 11.2v3.47h38.79Z" class="p"/><path id="l" d="M586.3 102V85.87c0-18.53 6.13-29.2 27.6-29.2h18.8c21.46 0 27.6 10.67 27.6 29.2v12c0 2.13-1.2 3.33-3.33 3.33h-53.06v2.67c0 9.2 2.4 11.33 10.4 11.33h36.66c2.13 0 3.33 1.2 3.33 3.33v9.73c0 2.13-1.2 3.33-3.33 3.33h-37.06c-21.46 0-27.6-10.53-27.6-29.6Zm56.39-14.26v-3.47c0-9.07-2.27-11.2-10.4-11.2h-18c-8.13 0-10.4 2.13-10.4 11.2v3.47h38.79Z" class="p"/><path id="m" d="M731.35 30.41h10.93c2.13 0 3.33 1.2 3.33 3.33v94.52c0 2.13-1.2 3.33-3.33 3.33h-10.93c-2.13 0-3.33-1.2-3.33-3.33v-5.2c-3.2 5.6-9.07 8.53-19.33 8.53h-12.8c-21.46 0-27.6-10.67-27.6-29.2V86.26c0-19.06 6.13-29.6 27.6-29.6h12.8c10.27 0 16.13 2.93 19.33 8.53V33.73c0-2.13 1.2-3.33 3.33-3.33ZM728.02 104V84.4c0-9.46-3.33-11.33-10.4-11.33h-21.33c-8 0-10.4 2.13-10.4 11.33V104c0 9.07 2.27 11.2 10.4 11.2h21.33c7.2 0 10.4-1.87 10.4-11.2Z" class="p"/><path id="n" d="M758.15 128.27V33.75c0-2.13 1.2-3.33 3.33-3.33h10.93c2.13 0 3.33 1.2 3.33 3.33v94.52c0 2.13-1.2 3.33-3.33 3.33h-10.93c-2.13 0-3.33-1.2-3.33-3.33Z" class="p"/><path id="o" d="M798.81 154.53v-9.73c0-2.13 1.2-3.33 3.33-3.33h33.73c8 0 10.53-2.93 10.53-11.33v-12.26c-3.07 6-8.67 9.06-19.33 9.06h-12c-21.46 0-27.6-10.53-27.6-29.6V60.01c0-2.13 1.2-3.33 3.33-3.33h10.93c2.13 0 3.33 1.2 3.33 3.33V99.2c0 9.33 2.4 11.33 10.27 11.33h20.66c7.07 0 10.4-1.73 10.4-11.33V60.01c0-2.13 1.2-3.33 3.33-3.33h10.93c2.13 0 3.33 1.2 3.33 3.33v68.26c0 18.26-6.8 29.6-28.13 29.6h-33.73c-2.13 0-3.33-1.2-3.33-3.33Z" class="p"/></g></svg>