<svg xmlns="http://www.w3.org/2000/svg" id="Layer_1" data-name="Layer 1" viewBox="0 0 150 56.67"><defs><style>.cls-1{fill:#508ecb}.cls-2{fill:#32af4a}.cls-3{fill:#231f20}</style></defs><path id="_Compound_Path_" d="M27.08 27.23h-2.6L19.1 10.51H19l-5.37 16.72h-2.55L1.79 2.39h5l5.52 16.14h.09l5.13-16.14h3l5.16 16.14h.09L31.3 2.39h5z" class="cls-1" data-name="&lt;Compound Path&gt;"/><path id="_Compound_Path_2" d="M41.26 16.83a8.43 8.43 0 0 0 8.16 6.77 7.94 7.94 0 0 0 7.09-4.17h4.66a12.66 12.66 0 0 1-11.92 8.43c-7 0-12.65-6.06-12.65-13.1a12.69 12.69 0 1 1 25.4-.31c0 .81-.09 2.06-.13 2.38zm16.06-3.59a8.07 8.07 0 0 0-16.06 0z" class="cls-1" data-name="&lt;Compound Path&gt;"/><path id="_Compound_Path_3" d="M65.52 2.39h4.26V6.2h.09a10.49 10.49 0 0 1 8.84-4.48c8.43 0 12.86 6.77 12.86 13.4A12.52 12.52 0 0 1 79 27.86c-5.2 0-7.8-2.65-8.74-4.22h-.09v11.89h-4.65zM78.39 6c-4.89 0-8.29 4.21-8.29 8.78a8.41 8.41 0 1 0 16.81.09c0-4.45-3.45-8.87-8.52-8.87z" class="cls-2" data-name="&lt;Compound Path&gt;"/><path id="_Compound_Path_4" d="M115.56 27.23v-3.86h-.09a9.5 9.5 0 0 1-8.47 4.49 12.75 12.75 0 0 1-13.18-13c0-6.05 4.26-13.18 13.18-13.18a9.82 9.82 0 0 1 8.43 4.17h.09V2.39h4.67v24.84zM107 6c-5.74 0-8.52 5-8.52 8.87a8.57 8.57 0 1 0 17.13 0A8.48 8.48 0 0 0 107 6z" class="cls-2" data-name="&lt;Compound Path&gt;"/><path id="_Compound_Path_5" d="M133.68 35.53h-4.84l3.63-8.79-9.91-24.35h5l7.31 19.28 7.49-19.28h5z" class="cls-2" data-name="&lt;Compound Path&gt;"/><path d="M78 41.32a.46.46 0 0 0-.45.46V45h8.49l-3.87-3.68zM86.4 46a.47.47 0 0 0-.46-.46h-3.22V54l3.68-3.87zM81.75 54.32a.46.46 0 0 0 .45-.46v-3.22h-8.5l3.87 3.68zM73.39 49.67a.47.47 0 0 0 .46.46h3.22v-8.5l-3.68 3.87zM34.44 42.87v3.93H29v-3.93h-2v9.9h2v-4.25h5.47v4.25h2v-9.9zM60.93 42.87v9.89h8.74L68.56 51h-5.63v-2.5h5.46v-1.66h-5.46v-2.27h5.62l1.09-1.7zM19.57 42.87A2.84 2.84 0 0 0 16.46 46v3.7a2.85 2.85 0 0 0 3.1 3.11h6.25L24.65 51H20c-1 0-1.43-.36-1.43-1.48v-3.39c0-1.09.36-1.51 1.46-1.51h4.67l1.11-1.75zM52.19 42.87a2.33 2.33 0 0 0-2.42 2.57v.47a2.34 2.34 0 0 0 2.36 2.67h4.14c.43 0 .78.07.78.8v.84c0 .65-.33.8-.79.8h-5.45l-1.12 1.74h6.7a2.41 2.41 0 0 0 2.71-2.65v-.69a2.37 2.37 0 0 0-2.6-2.64h-4c-.43 0-.74-.12-.74-.77v-.68c0-.56.21-.76.72-.76h5.19l1.09-1.71zM42.22 42.87l-4.69 9.9h2.21l.92-2.05h5.1l.91 2.05h2.22l-4.7-9.9zm1 2.06L45 49h-3.6zM10.17 51.48l-.17-.91h-.07a2.88 2.88 0 0 1-.95.82 3 3 0 0 1-1.19.21 2.14 2.14 0 0 1-1.5-.49 1.81 1.81 0 0 1-.54-1.4c0-1.29 1-2 3.11-2h1.08v-.4a1.6 1.6 0 0 0-.32-1.11 1.34 1.34 0 0 0-1-.36 4.18 4.18 0 0 0-1.81.49l-.3-.74A4.48 4.48 0 0 1 8.64 45a2.5 2.5 0 0 1 1.7.5 2.14 2.14 0 0 1 .55 1.64v4.37zM8 50.8a2 2 0 0 0 1.42-.5 1.83 1.83 0 0 0 .52-1.39v-.58h-1a3.6 3.6 0 0 0-1.67.36 1.08 1.08 0 0 0-.51 1 1 1 0 0 0 .32.8 1.28 1.28 0 0 0 .92.31zM94 51.6a2.75 2.75 0 0 1-2.16-.86 3.51 3.51 0 0 1-.76-2.42 3.67 3.67 0 0 1 .77-2.49 2.83 2.83 0 0 1 2.2-.83 4.9 4.9 0 0 1 .93.1 3 3 0 0 1 .72.24l-.3.82a4.13 4.13 0 0 0-.7-.21 2.88 2.88 0 0 0-.67-.09c-1.3 0-2 .83-2 2.5a3 3 0 0 0 .47 1.81 1.67 1.67 0 0 0 1.42.63 4.3 4.3 0 0 0 1.64-.34v.86a3.54 3.54 0 0 1-1.56.28zM102.57 48.27a3.52 3.52 0 0 1-.79 2.45 2.77 2.77 0 0 1-2.18.88 3 3 0 0 1-1.53-.4A2.71 2.71 0 0 1 97 50a4.08 4.08 0 0 1-.36-1.77 3.54 3.54 0 0 1 .78-2.44 2.75 2.75 0 0 1 2.22-.79 2.72 2.72 0 0 1 2.14.9 3.56 3.56 0 0 1 .79 2.37zm-4.89 0a3 3 0 0 0 .5 1.87 1.68 1.68 0 0 0 1.44.65 1.74 1.74 0 0 0 1.45-.64 3.05 3.05 0 0 0 .49-1.88 3 3 0 0 0-.49-1.86 1.75 1.75 0 0 0-1.46-.63 1.72 1.72 0 0 0-1.44.62 3 3 0 0 0-.49 1.87zM112.35 51.48v-4.17a1.73 1.73 0 0 0-.33-1.15 1.29 1.29 0 0 0-1-.38 1.64 1.64 0 0 0-1.34.52 2.47 2.47 0 0 0-.43 1.6v3.58h-1v-4.17a1.73 1.73 0 0 0-.33-1.15 1.29 1.29 0 0 0-1-.38 1.57 1.57 0 0 0-1.34.55 3 3 0 0 0-.42 1.79v3.36h-1v-6.41h.84l.15.88a1.84 1.84 0 0 1 .78-.73 2.29 2.29 0 0 1 1.12-.27A1.91 1.91 0 0 1 109 46a2 2 0 0 1 .83-.79 2.5 2.5 0 0 1 1.24-.3 2.19 2.19 0 0 1 1.63.56 2.5 2.5 0 0 1 .54 1.79v4.18zM118.21 51.6a2.88 2.88 0 0 1-1.15-.23 2.28 2.28 0 0 1-.87-.71h-.07a8 8 0 0 1 .07 1.06v2.64h-1v-9.29h.81l.14.88a2.18 2.18 0 0 1 .88-.76 2.58 2.58 0 0 1 1.14-.24 2.36 2.36 0 0 1 2 .88 4.62 4.62 0 0 1 0 4.89 2.35 2.35 0 0 1-1.95.88zm-.14-5.82a1.75 1.75 0 0 0-1.43.54 2.82 2.82 0 0 0-.45 1.73v.22a3.18 3.18 0 0 0 .45 1.93 1.73 1.73 0 0 0 1.45.59 1.5 1.5 0 0 0 1.3-.68 3.2 3.2 0 0 0 .47-1.85 3.1 3.1 0 0 0-.47-1.84 1.53 1.53 0 0 0-1.32-.64zM126.41 51.48l-.19-.91a2.88 2.88 0 0 1-1 .82 3 3 0 0 1-1.19.21 2.14 2.14 0 0 1-1.5-.49 1.81 1.81 0 0 1-.54-1.4c0-1.29 1-2 3.11-2h1.08v-.4a1.6 1.6 0 0 0-.32-1.11 1.34 1.34 0 0 0-1-.36 4.18 4.18 0 0 0-1.81.49l-.3-.74a4.48 4.48 0 0 1 2.17-.55 2.5 2.5 0 0 1 1.7.5 2.14 2.14 0 0 1 .55 1.64v4.37zm-2.19-.68a2 2 0 0 0 1.42-.5 1.83 1.83 0 0 0 .52-1.39v-.58h-1a3.6 3.6 0 0 0-1.67.36 1.08 1.08 0 0 0-.51 1 1 1 0 0 0 .32.8 1.28 1.28 0 0 0 .92.31zM133.42 51.48v-4.15a1.72 1.72 0 0 0-.35-1.17 1.49 1.49 0 0 0-1.12-.38 1.84 1.84 0 0 0-1.47.54 2.7 2.7 0 0 0-.47 1.8v3.36h-1v-6.41h.79l.2.93a2 2 0 0 1 .84-.74 2.78 2.78 0 0 1 1.2-.26 2.44 2.44 0 0 1 1.74.56 2.38 2.38 0 0 1 .59 1.79v4.18zM135.28 45.07h1l1.4 3.66a12.69 12.69 0 0 1 .57 1.8h.05c0-.19.16-.53.32-1s.69-2 1.59-4.44h1l-2.76 7.3a3.74 3.74 0 0 1-.95 1.54 2 2 0 0 1-1.34.45 3.71 3.71 0 0 1-.88-.1v-.78a3.14 3.14 0 0 0 .72.07 1.47 1.47 0 0 0 1.42-1.12l.36-.91z" class="cls-3"/></svg>