<svg xmlns="http://www.w3.org/2000/svg" version="1.0" viewBox="0 0 1000 1000"><defs><linearGradient id="a"><stop offset="0%" stop-color="#010215"/><stop offset="55%" stop-color="#0e124d"/></linearGradient></defs><path fill="url(#a)" d="M40 5015V50h9920v9930H40V5015zm3192 3239c106-41 249-98 318-124 69-27 247-97 395-155 149-58 315-123 370-145 55-21 199-78 320-125s312-122 425-166 304-119 425-166 252-98 290-113l70-28 6-88c4-49 8-214 10-367l4-279-170-67c-93-37-240-95-325-128-279-110-593-233-720-283-335-131-687-270-890-350-605-240-734-290-742-290-4 0-7 171-6 381l3 381 60 25c33 13 76 30 95 37 37 14 943 379 1095 441 50 21 116 48 147 60 120 49 338 148 344 156 3 5-3 12-13 16-39 14-414 161-708 278-170 67-382 151-470 186-88 34-252 99-365 144l-205 81-3 382-2 382h24c13 0 111-34 218-76zm4118-2225-5-403-200-79c-110-43-301-118-425-167s-403-159-620-245c-510-201-480-189-480-197 0-3 78-37 173-74 94-37 278-108 407-159 487-191 552-216 840-328 162-63 303-117 313-120 16-6 17-34 17-402 0-266-3-395-10-395-6 0-198 75-428 166-229 91-491 195-582 231-203 80-493 195-875 346-347 137-696 275-820 324-49 19-107 45-128 56l-37 21 2 354 3 353 60 24c33 13 191 75 350 138 339 134 1221 482 1445 569 354 139 889 350 940 372 30 12 57 22 60 20 3-1 3-183 0-405zM3378 4366c352-138 487-191 1072-421 146-57 362-142 480-189 456-179 660-259 787-309l133-52v-732l-92-36c-51-20-167-65-258-101-91-35-208-81-260-101s-167-65-255-100-212-84-275-108c-109-42-281-110-590-232-74-29-189-74-255-100s-232-91-370-145c-137-55-306-121-375-148l-125-49-3 386c-2 308 0 388 11 398 7 7 173 74 369 148 453 172 1402 551 1405 562 2 4-57 31-130 60-72 29-251 99-397 157-146 57-350 138-455 179-196 77-591 225-727 273l-78 27v388c0 253 3 389 10 389 6 0 175-65 378-144z" transform="matrix(.1 0 0 -.1 0 1000)"/></svg>