<svg xmlns="http://www.w3.org/2000/svg" xml:space="preserve" style="enable-background:new 0 0 500 500" viewBox="0 0 500 500"><path d="M484.9 15.7c-1.4-1.4-3.1-2.2-5-2.5-1.8-.5-3.7-.5-5.5 0L17.5 216.9c-1.8.7-3.3 2.1-4.3 3.8-1 1.7-1.5 3.8-1.3 5.8.1 2 .9 4 2.3 5.5s3.3 2.5 5.3 3l200.4 37c1.7.4 3.3 1.3 4.5 2.5 1.3 1.2 2.2 2.8 2.5 4.5l37.3 200.2c.5 2 1.5 3.8 3 5.3 1.5 1.2 3.3 2 5.3 2.3 1.9.6 3.9.6 5.8 0 1.8-.9 3.2-2.4 4-4.3L486.9 26c.5-1.8.5-3.7 0-5.5-.2-1.8-.9-3.4-2-4.8zm-203.6 417c-.1.3-.4.6-.6.8-.3.2-.6.3-1 .3s-.7-.1-1-.3c-.3-.2-.5-.5-.6-.8l-30.3-167.4c-.2-.3-.3-.6-.3-.9 0-.3.1-.6.3-.9L445.4 66.3c.3-.2.6-.3 1-.3s.7.1 1 .3c.3.2.5.5.7.8.1.3.2.7.1 1L281.3 432.7z" style="fill:#052959"/></svg>