<svg xmlns="http://www.w3.org/2000/svg" xml:space="preserve" style="enable-background:new 0 0 841.89 595.28" viewBox="0 0 841.89 595.28"><path d="M282.7 321.2V221.17h56.03v12.61h-41.7v29.24H335v12.61h-37.97v32.96h41.7v12.61H282.7zm122.11 0v-87.41h-31.1v-12.61h76.52v12.61h-31.1v87.41h-14.32zm82.98 0V221.17h14.33V321.2h-14.33zm86.85 0v-41.84l-39.12-58.18h16.75L582.06 266l29.16-44.82h16.73l-38.98 58.19v41.84h-14.33zm63.2 0 42.7-100.03h15.05l42.27 100.03H722.3l-10.19-25.22h-49.04L652.9 321.2h-15.06zm69.62-36.97-19.88-49.62-19.93 49.62h39.81z" style="fill:#242441"/><path d="M173.35 185.65h43.73v35.53h-43.73zm.03 67.23h43.73v35.53h-43.73zm.03 68.33h43.73v35.53h-43.73z" style="fill:#f58220"/><path d="M129.65 321.21h43.73v35.53h-43.73zm0-68.33h43.73v35.53h-43.73z" style="opacity:.6;fill:#f58220"/><path d="M85.92 288.41h43.73v68.33H85.92z" style="opacity:.3;fill:#f58220"/></svg>