<svg xmlns="http://www.w3.org/2000/svg" xml:space="preserve" id="Layer_1" x="0" y="0" style="enable-background:new 0 0 500 500" version="1.1" viewBox="0 0 500 500"><style>.st2{fill:#df408f}.st5{fill:#009ea4}.st8{fill:#fff}</style><path d="M136.6 133.4h231.6v179.9H136.6z" class="st8"/><path d="M248.5 448.9h-.2c-8.3 0-16.6-3.2-23.9-9.2l-.1-.1-72.2-60.4h-.5l-99.7-82.8v-164l79.8-66.1c7.4-6 15.7-8.9 24.6-8.6h.1c1.4.1 6.3.3 9.8 1.3 4.9 1.4 9.6 3.8 13.9 7.3l.1.1 68.3 56.5 68-56.5c7.2-5.9 15.5-8.9 24.1-8.6 8.6-.2 16.8 2.8 24.1 8.6l.1.1 79.3 66v164.1L272.4 439.7c-7.4 6-15.6 9.2-23.9 9.2zm-9.5-27c3.2 2.6 6.4 3.9 9.3 3.9h.2c2.9 0 6.1-1.4 9.3-4l163.1-136.2V143.1l-71-59c-3-2.4-5.9-3.5-9.1-3.4h-.8c-3.1-.1-6.1 1-9.1 3.4l-82.6 68.6-83-68.6c-1.8-1.5-3.6-2.5-5.5-3-.7-.2-3-.4-4.5-.5-3.3-.1-6.2 1-9.2 3.4l-71.3 59.1v142.4l84.1 69.9.4-.1 4.1 3.4 75.6 63.2z" class="st8"/><path d="M64.4 137.8v153.3l91.9 76.6V214.4z" style="fill:#d61987"/><path d="m248.3 291.1-92-76.7v153.3z" class="st2"/><path d="M139.8 75.3c5.9-4.8 11.7-6.2 16.8-6l-.2 145.2-92-76.6 75.4-62.6z" class="st2"/><path d="M173.1 75.3c-5.9-4.8-11.7-6.2-16.8-6v145.2l92.2-76.6-75.4-62.6z" style="fill:#e05e9a"/><path d="m432.5 137.8-92 76.6v153.3l92-76.6z" style="fill:#00919b"/><path d="m248.6 291.1 91.9-76.7v153.3z" class="st5"/><path d="m340.5 367.7-92-76.6h-.2l-92 76.6 75.4 62.6c5.8 4.8 11.6 6.2 16.6 6h.2c5 .1 10.8-1.3 16.6-6l75.4-62.6z" style="fill:#774c9e"/><path d="M357.3 75.3c-5.9-4.8-11.7-6.2-16.8-6v145.2l92-76.6-75.2-62.6z" class="st5"/><path d="M323.7 75.3c5.9-4.8 11.7-6.2 16.8-6v145.2l-92-76.6 75.2-62.6z" style="fill:#00abaa"/></svg>