<svg xmlns="http://www.w3.org/2000/svg" fill="none" viewBox="0 0 545 545"><circle cx="272.5" cy="272.5" r="272.5" fill="#FFD494"/><path fill="#815AF0" d="M324.006 429.557c-35.319-11.923-39.846-49.073-32.622-80.341 1.734-10.541 5.009-23.524 8.509-39.592 3.692-16.711 6.743-29.694 8.509-38.917a158.79 158.79 0 0 0 3.05-25.323c0-17.354-6.101-26.609-18.334-26.609-8.509 0-30.535 6.877-39.942 47.754 0 0-4.913 28.312-20.646 92.971-20.902 104.153-68.775 69.382-109.97 53.442 12.04-.739 26.617-17.032 34.355-44.444 26.49-93.677 63.478-287.844 63.478-287.844l77.67-12.855-30.471 132.176a85.871 85.871 0 0 1 31.851-23.523 81.579 81.579 0 0 1 27.71-5.078c17.242 0 30.791 4.403 41.259 13.658 10.499 9.898 16.054 24.841 16.054 44.637a223.505 223.505 0 0 1-6.775 46.437c-1.317 5.495-3.051 13.626-5.459 24.841-5.041 18.479-16.888 62.698-.481 81.369 20.998 23.878 53.813-16.068 66.335-39.399-16.792 89.757-85.696 96.28-114.08 86.64z"/></svg>