<svg xmlns="http://www.w3.org/2000/svg" viewBox="0 0 400 401.005"><g fill-rule="evenodd"><path fill="#dc2c24" d="M72.894 2.685c-.565.107-.799.35-.623.644.16.266-.011.233-.394-.078-.441-.358-.677-.393-.677-.1 0 .289-.988.449-2.767.449-1.521 0-2.826.171-2.9.38-.073.209-.886.423-1.807.477-.921.053-1.641.282-1.6.508.041.227-.736.535-1.726.686-2.833.431-4.973 1.069-5.126 1.528-.077.231-.801.427-1.607.434-.807.007-1.809.271-2.226.587-.417.316-.906.483-1.087.372-.18-.112-.538.134-.796.546-.302.484-.787.689-1.366.578-.494-.094-1.02.026-1.169.266-.148.241-.611.438-1.027.438-.416 0-.901.258-1.078.574-.176.316-.792.66-1.367.764-1.186.215-2.751 1.102-2.751 1.558 0 .167-.366.304-.813.304-.446 0-.916.27-1.042.6-.127.33-.661.6-1.188.6-.526 0-.957.18-.957.4 0 .22-.205.4-.456.4s-.714.315-1.03.7c-.315.385-.451.462-.302.17.225-.438.127-.439-.57-.003-.463.289-.842.662-.842.829 0 .167-.251.304-.557.304-.307 0-.661.27-.788.6-.126.33-.506.6-.842.6-.337 0-.613.18-.613.4 0 .22-.231.4-.513.4-.281 0-1.451.896-2.6 1.991-2.033 1.94-2.721 3.609-1.487 3.609.853 0 .758.275-.598 1.722-1.265 1.349-1.634 1.073-.579-.434.343-.489.512-1.069.377-1.289-.396-.639-1.8-.464-1.8.225 0 .343-.18.512-.4.376-.22-.136-.4.033-.4.376 0 .343-.24.624-.532.624-.293 0-.763.43-1.044.956-.282.526-.936 1.183-1.454 1.46-.519.278-.852.652-.741.831.111.18-.165.556-.613.836-.449.28-.816.749-.816 1.042 0 .639-.972 1.675-1.571 1.675-.236 0-.429.298-.429.662 0 .364-.45 1.252-1 1.974-.55.721-1 1.513-1 1.761s-.18.339-.4.203c-.22-.136-.4.129-.4.589 0 .46-.27.94-.6 1.066-.33.127-.6.552-.6.945 0 .393-.256.813-.569.933-.347.133-.485.538-.355 1.038.139.53-.013.907-.431 1.067-.355.136-.645.419-.645.628 0 .21.225.267.5.127s.081.115-.431.565c-.511.451-.816 1.005-.676 1.231.14.226.053.411-.193.411s-.348.161-.226.358c.122.197-.048.461-.376.588-.336.128-.598.726-.598 1.361 0 .623-.177 1.31-.394 1.527-.217.217-.461 1.009-.544 1.761-.082.752-.355 1.436-.606 1.52-.251.083-.456.641-.456 1.238 0 .598-.202 1.289-.448 1.535-.637.637-1.22 3.452-1.39 6.709-.08 1.539-.33 2.859-.556 2.934-.226.076-.309.302-.185.503s.069.366-.124.366-.358 1.883-.368 4.184c-.01 2.301-.225 4.686-.478 5.3-.338.821-.432 12.099-.355 42.716L1.8 161l40.709.102 40.709.102.391-1.028c.245-.643.391-15.319.391-39.202V82.8h233.8l.009 38.3c.004 21.065.088 38.706.185 39.202l.177.902 40.73-.102 40.73-.102.084-39.3c.047-21.615-.005-39.3-.115-39.3s-.16-1.702-.112-3.783c.069-2.957-.046-3.918-.527-4.398-.338-.339-.651-1.345-.696-2.237-.047-.919-.338-1.784-.673-1.996-.485-.306-.452-.375.188-.38.607-.005.673-.113.3-.486-.264-.264-.48-1.151-.48-1.971 0-.821-.27-1.762-.6-2.092-.374-.374-.6-1.356-.6-2.605 0-1.103-.156-2.101-.347-2.22-.192-.118-.464-.938-.605-1.823-.142-.885-.435-1.609-.653-1.609-.217 0-.395-.345-.395-.767 0-.421-.221-.84-.49-.93-.281-.093-.449-.71-.393-1.443.064-.843-.11-1.359-.51-1.513-.401-.154-.607-.769-.607-1.813 0-.952-.159-1.483-.4-1.334-.22.136-.4-.111-.4-.548 0-.437-.27-1.065-.6-1.395-.33-.33-.6-.973-.6-1.428 0-.456-.16-.829-.357-.829-.196 0-.469-.45-.607-1s-.428-1-.644-1c-.215 0-.392-.366-.392-.814 0-.888-1.088-2.801-1.874-3.297a.735.735 0 0 1-.286-.848c.113-.296-.086-.65-.442-.787-.357-.136-.536-.431-.398-.654.138-.223-.031-.514-.375-.646s-.625-.54-.625-.908c0-.738-1.395-2.117-1.766-1.746-.129.128-.234-.135-.234-.584 0-.45-.27-1.042-.6-1.316-.33-.274-.6-.669-.6-.878 0-.467-1.022-1.522-1.474-1.522-.182 0-.585-.585-.896-1.3-.604-1.389-3.042-3.954-3.41-3.587-.121.121-.22-.011-.22-.294 0-.638-3.299-3.839-4.739-4.598-.583-.308-1.399-1.02-1.811-1.583-.413-.563-.908-.926-1.1-.807-.193.119-.35-.064-.35-.407 0-.399-.361-.624-1-.624-.55 0-1-.191-1-.424 0-.233-.18-.312-.4-.176-.36.222-.573-.303-.447-1.1.026-.165-.504-.3-1.177-.3-.765 0-1.124-.16-.959-.427.145-.235-.114-.526-.577-.647-.462-.12-.84-.378-.84-.573 0-.194-.366-.353-.813-.353-.446 0-.915-.269-1.041-.598-.127-.328-.364-.514-.529-.413-.165.102-.641-.073-1.058-.389-.417-.316-1.059-.58-1.426-.587-.366-.007-.734-.217-.817-.466-.084-.25-.713-.475-1.399-.5-.687-.026-1.219-.227-1.183-.447.036-.22-.294-.426-.734-.457-.44-.032-1.036-.077-1.324-.1-.288-.024-.422-.207-.298-.408.124-.2-.495-.486-1.376-.635-.881-.149-1.602-.416-1.602-.595s-.653-.325-1.452-.325c-.798 0-1.588-.221-1.755-.491-.167-.27-.504-.368-.748-.217-.245.152-.445.105-.445-.103 0-.512-1.998-.908-5.555-1.101-1.625-.089-3.228-.388-3.561-.665-.584-.484-258.268-.898-260.79-.418m-2.693 2.371c.496.19.539.334.169.563-.575.355-1.57.063-1.57-.462 0-.421.478-.456 1.401-.101m266.93.747c-.119.119-.527.097-.907-.049-.543-.209-.578-.336-.161-.593.532-.329 1.473.237 1.068.642M66.02 6.067c1.17.408 1.241.505.56.772-1.42.555-2.18.402-2.18-.439 0-.941-.079-.925 1.62-.333M341.6 6.6c0 .628-.695.769-1.767.357-1.045-.401-.715-.957.567-.957.8 0 1.2.2 1.2.6M63.026 7.69c-.76.425-1.992.103-1.661-.434.119-.192.693-.258 1.275-.146.905.173.961.258.386.58m281.557-.062c-.299.483-1.783.485-1.783.001 0-.405 1.215-.783 1.707-.531.168.087.202.325.076.53m-292.009 2.73c.122.197-.042.459-.363.583-.626.239-1.159-.259-.733-.685.361-.362.837-.317 1.096.102m300.969-.002c.34.216.391.438.136.595-.549.339-1.731-.143-1.453-.593.275-.444.618-.445 1.317-.002M371.63 22.51c-.049.478-.598.386-.77-.13-.088-.264.056-.408.32-.32.264.088.467.291.45.45m2.37 1.823c0 .521-.476.868-.862.628-.414-.255-.057-.961.486-.961.207 0 .376.15.376.333m2.066 2.579c.795 1.134.809 1.218.118.708-.997-.738-1.784-1.673-1.784-2.12 0-.561.696.029 1.666 1.412M386 40.333c0 .521-.476.868-.862.628-.414-.255-.057-.961.486-.961.207 0 .376.15.376.333M11.2 47.367c0 .61-.545 1.391-.842 1.207-.585-.362-.407-1.374.242-1.374.33 0 .6.075.6.167m378.595 1.841c-.224.363-.373.352-.619-.046-.421-.683-.007-1.353.514-.832a.75.75 0 0 1 .105.878M7.924 57.1c-.074.385-.295.7-.491.7s-.403-.315-.459-.7c-.059-.399.153-.7.491-.7.35 0 .538.287.459.7m384.906.61c-.049.478-.598.386-.77-.13-.088-.264.056-.408.32-.32.264.088.467.29.45.45M7.002 59.604c.35.565-.18 2.057-.631 1.778-.486-.3-.482-2.182.005-2.182.207 0 .489.182.626.404m387.028.106c-.016.16-.03.56-.03.89 0 .33-.159.6-.353.6-.425 0-.856-1.457-.528-1.785.296-.297.95-.085.911.295m2.793 15.69-.293 1.6-.309-1.497c-.17-.823-.187-1.813-.038-2.2.484-1.257.966.319.64 2.097m1.278 43.9c-.088 35.94-.168 40.5-.708 40.5-.609 0-.97-79.666-.366-80.644 1.117-1.807 1.172.235 1.074 40.144M318.8 81.001c0 .825-236.425.725-236.7-.101-.133-.399 23.698-.5 118.267-.5 105.066 0 118.433.068 118.433.601M81.572 121.529c.025 34.435-.037 38.516-.586 38.4-.643-.135-.946-76.124-.31-77.782.741-1.933.87 3.71.896 39.382m239.353 37.574c.317.489-.732 1.223-1.15.805-.317-.317-.19-77.162.129-77.652.163-.251.386 16.824.496 37.944.11 21.12.346 38.626.525 38.903M5.2 159c.554.668-.123.835-1.401.344-.531-.204-.558-.324-.133-.594.745-.472.965-.436 1.534.25m-2.622 87.1c-.133.605-.405 1.1-.604 1.1-.509 0-.469 87.074.04 88.027.216.402.449 2.136.519 3.852.132 3.253.283 4.182.738 4.526.148.113.325 1.313.392 2.667.067 1.353.26 2.375.43 2.271.169-.105.307.428.307 1.184s.27 1.599.6 1.873c.33.274.6 1.005.6 1.625 0 .62.18 1.239.4 1.375.22.136.4.697.4 1.247 0 .55.163.899.363.776.199-.123.266.144.149.593-.144.549-.039.78.319.701.293-.064.544.063.557.283.013.22.167.625.342.9.181.285.135.5-.106.5-.613 0-.521.761.176 1.457.33.33.6.958.6 1.395 0 .437.18.684.4.548.228-.141.4.205.4.805 0 1.088.804 2.195 1.595 2.195.249 0 .35.165.226.366-.319.517.35 2.074 1.341 3.117.461.486.838 1.167.838 1.513 0 .346.269.732.598.858.328.127.497.392.374.591-.122.198.059.469.403.601.344.132.625.496.625.809 0 .314.27.674.6.8.33.127.6.481.6.788 0 .306.18.557.4.557.22 0 .4.27.4.6 0 .33.27.6.6.6.33 0 .6.18.6.4 0 .22.405.403.9.406.618.004.739.108.386.332-.675.429-.216 1.567.757 1.876.423.134.665.411.539.615-.126.204.141.371.594.371.48 0 .824.261.824.624 0 .343.18.512.4.376.22-.136.4.004.4.31 0 .616 2.157 2.69 2.797 2.69.221 0 .403.139.403.309 0 .17.619.643 1.377 1.05.757.408 1.475 1 1.597 1.317.121.316.381.475.578.354.196-.122.58.047.852.374.272.328.677.596.901.596.224 0 .665.315.981.7.345.421.456.461.279.1-.262-.534 1.674.93 2.261 1.709.128.171.669.394 1.202.496.533.103 1.03.369 1.104.591.074.222.834.404 1.689.404 1.217 0 1.504.13 1.324.6-.169.439.05.6.812.6.574 0 1.043.18 1.043.4 0 .22.431.4.957.4.527 0 1.045.229 1.153.509.107.28.703.551 1.325.602.621.052 1.309.273 1.527.491.219.219 1.178.398 2.131.398 1.171 0 1.807.194 1.962.6.162.42.817.6 2.188.6 1.076 0 1.957.18 1.957.4 0 .22.816.4 1.814.4.998 0 2.213.247 2.7.549.487.303 2.146.606 3.686.675 6.329.283 267.8.363 267.8.082 0-.168 2.445-.284 5.432-.257 4.272.039 5.477-.067 5.643-.5.145-.378.933-.549 2.534-.549 1.279 0 2.384-.165 2.458-.366.073-.202 1.001-.46 2.062-.575 1.06-.115 2.192-.427 2.514-.694.321-.267 1.118-.471 1.771-.452.652.018 1.186-.112 1.186-.29 0-.306 2.262-.99 2.9-.877.165.03.3-.199.3-.509 0-.365.28-.489.8-.353.447.117.8.012.8-.237 0-.246.428-.447.951-.447.523 0 1.175-.27 1.449-.6.274-.33.842-.6 1.262-.6.419 0 .852-.232.961-.516.109-.283.548-.542.977-.574.428-.032 1.175-.428 1.66-.88.484-.451 1.2-.922 1.59-1.046.419-.133.617-.464.485-.809-.156-.407-.033-.511.405-.343.387.149 1-.158 1.591-.795.528-.57 1.171-1.037 1.427-1.037.257 0 .571-.27.697-.6.127-.33.501-.6.831-.6.347 0 .51-.234.387-.555-.154-.402.027-.496.657-.341.478.118.75.083.603-.078-.303-.333 1.059-1.826 1.667-1.826.22 0 .4-.204.4-.453 0-.25.433-.835.962-1.3.529-.466 1.026-1.207 1.105-1.647.079-.44.249-.71.377-.6.356.305 1.578-.841 1.328-1.245-.121-.195.067-.355.417-.355s.756-.315.903-.7c.147-.385.68-1.147 1.185-1.693.55-.595.828-1.276.694-1.698-.164-.518-.058-.641.403-.464.408.157.626.017.626-.402a.64.64 0 0 1 .633-.643c.349 0 .559-.223.468-.496-.091-.273.084-.746.389-1.051.305-.305.524-.936.488-1.404-.109-1.398-.001-1.849.446-1.849.233 0 .295.225.138.5-.157.275.08.14.525-.3s.742-.876.66-.968c-.082-.093.117-.575.443-1.072.534-.816.525-.922-.099-1.086-.569-.149-.549-.189.113-.228.442-.025 1.04-.425 1.329-.888.296-.473.334-.723.087-.57-.242.149-.088-.355.342-1.12.43-.765.674-1.499.543-1.63-.131-.131-.018-.238.252-.238s.399-.148.287-.329c-.112-.18.068-.851.4-1.49.331-.639.526-1.453.433-1.809-.093-.356.166-.856.577-1.113.452-.282.746-.927.746-1.639 0-.645.18-1.284.4-1.42 1.016-.628-.073-2.523-1.3-2.264-.165.035-.3-.234-.3-.598 0-.594.083-.587.806.068.782.707.825.706 1.388-.038.636-.841.687-1.081.812-3.861.047-1.042.26-2.122.473-2.4.213-.279.433-1.392.488-2.473.056-1.082.361-2.363.678-2.846.317-.484.59-1.399.608-2.034.182-6.538.327-88.98.158-89.654l-.226-.9h-40.55c-36.607 0-40.573.062-40.792.633-.134.348-.243 17.268-.243 37.6V320H84l-.047-36.7c-.026-20.185-.031-36.822-.01-36.97.02-.149-.498-.388-1.153-.532-.654-.144-1.19-.382-1.19-.53 0-.147-17.726-.268-39.39-.268H2.82l-.242 1.1m78.936 36.733c.111 34.6.04 38.233-.734 37.755-.625-.387-.505-73.496.12-73.288.394.131.524 7.677.614 35.533m316.52 5.295c.01 22.26.051 41.372.092 42.472.057 1.544-.063 2-.526 2-.465 0-.597-.516-.586-2.3.008-1.265.053-20.491.1-42.724.058-27.347.218-40.342.494-40.171.273.168.414 13.671.426 40.723M3.972 312.476c.024 10.213-.287 14.52-.842 11.663-.299-1.539.161-25.085.476-24.339.186.44.35 6.144.366 12.676m392.835 26.477c-.602.602-.932-.777-.588-2.456l.307-1.497.331 1.786c.198 1.072.178 1.939-.05 2.167M7.046 349.024c-.121.317-.407.576-.633.576-.461 0-.569-1.711-.135-2.145.4-.4 1.03.886.768 1.569m.954 2.8c0 .317-.18.576-.4.576-.22 0-.4-.371-.4-.824 0-.453.18-.712.4-.576.22.136.4.507.4.824m386.132-.057c.12.312-.024.659-.318.772-.694.267-1.015-.07-.744-.778.277-.721.784-.718 1.062.006m-.932 2.633c0 .844-.582 1.076-1 .4-.292-.472.087-1.2.624-1.2.207 0 .376.36.376.8m-3.026 7.558c.122.197-.048.461-.376.588-.363.139-.598-.002-.598-.359 0-.647.625-.794.974-.229M15.2 368.424c0 .207-.27.376-.6.376-.619 0-.795-.472-.344-.922.319-.32.944.041.944.546M381 377.2c.136.22-.134.4-.6.4-.466 0-.736-.18-.6-.4.136-.22.406-.4.6-.4.194 0 .464.18.6.4M46.202 393.203c.137.221-.04.514-.394.649-.766.294-1.193-.03-.824-.625.332-.538.894-.549 1.218-.024M358.6 393.2c.143.231-.228.397-.876.394-.873-.005-.99-.093-.524-.394.769-.497 1.093-.497 1.4 0m-310.253 1.464c-.301.362-.612.431-.855.188-.534-.534.007-1.265.731-.988.469.18.496.352.124.8m308.255-.267c-.104.169-.541.398-.97.511-.84.219-1.514-.746-.71-1.017.68-.229 1.905.141 1.68.506M62.6 397.2c.136.22.012.414-.276.431-.288.016-.884.102-1.324.191-1.061.213-1.912-.117-1.602-.619.323-.522 2.88-.524 3.202-.003m281.012.18c-.011.356-.753.412-2.912.22-.875-.078-.872-.089.1-.408 1.263-.416 2.829-.311 2.812.188m-6.412.618c1.218.816-.466 1.226-4.2 1.022-5.438-.296-264.79-.288-265.972.009-1.461.367-2.459-.068-1.848-.805.586-.706 270.967-.931 272.02-.226"/><path fill="#e42f2b" d="M68.8 5.157c0 .525.995.817 1.57.462.37-.229.327-.373-.169-.563-.923-.355-1.401-.32-1.401.101m267.263.004c-.417.257-.382.384.161.593.824.316 1.276-.014.746-.544-.207-.207-.615-.229-.907-.049M64.4 6.4c0 .841.76.994 2.18.439.681-.267.61-.364-.56-.772-1.699-.592-1.62-.608-1.62.333m274.8-.043c0 .399.965.843 1.833.843.312 0 .567-.27.567-.6 0-.4-.4-.6-1.2-.6-.66 0-1.2.161-1.2.357m-277.835.899c-.331.537.901.859 1.661.434.575-.322.519-.407-.386-.58-.582-.112-1.156-.046-1.275.146M343.5 7.1c-.385.087-.7.325-.7.529 0 .484 1.484.482 1.783-.001.299-.485-.201-.729-1.083-.528M51.478 10.256c-.426.426.107.924.733.685.321-.124.485-.386.363-.583-.259-.419-.735-.464-1.096-.102m300.748.102c-.278.45.904.932 1.453.593.255-.157.204-.379-.136-.595-.699-.443-1.042-.442-1.317.002M370.86 22.38c.172.516.721.608.77.13.017-.159-.186-.362-.45-.45-.264-.088-.408.056-.32.32M25.128 24.051c-.146.358-.079.838.15 1.067.286.286.215.7-.232 1.337-1.074 1.534-.722 1.83.556.467 1.346-1.436 1.45-1.722.626-1.722-.315 0-.632-.405-.704-.9-.105-.722-.184-.771-.396-.249m347.889.321c-.273.442.358.92.727.55.381-.38.31-.922-.12-.922-.207 0-.48.168-.607.372M374.4 25.5c0 .447.787 1.382 1.784 2.12.691.51.677.426-.118-.708-.97-1.383-1.666-1.973-1.666-1.412m10.617 14.872c-.273.442.358.92.727.55.381-.38.31-.922-.12-.922-.207 0-.48.168-.607.372M10 47.776c0 .847.677 1.121.958.389.342-.892.315-.965-.358-.965a.59.59 0 0 0-.6.576m379.072.508c-.121.195-.074.59.104.878.246.398.395.409.619.046a.75.75 0 0 0-.105-.878c-.223-.223-.496-.244-.618-.046M6.974 57.1c.056.385.263.7.459.7s.417-.315.491-.7c.079-.413-.109-.7-.459-.7-.338 0-.55.301-.491.7m385.086.48c.088.264.291.467.45.45.478-.049.386-.598-.13-.77-.264-.088-.408.056-.32.32M6 60.176c0 .537.167 1.08.371 1.206.451.279.981-1.213.631-1.778-.453-.734-1.002-.42-1.002.572m387.119-.761c-.328.328.103 1.785.528 1.785.194 0 .353-.27.353-.6 0-.33.014-.73.03-.89.039-.38-.615-.592-.911-.295m3.064 13.888c-.149.387-.132 1.377.038 2.2L396.53 77l.293-1.6c.326-1.778-.156-3.354-.64-2.097m.844 5.853c-.604.978-.243 80.644.366 80.644.54 0 .62-4.56.708-40.5.098-39.909.043-41.951-1.074-40.144M82.1 80.9c.275.826 236.7.926 236.7.101 0-.533-13.367-.601-118.433-.601-94.569 0-118.4.101-118.267.5m-1.424 1.247c-.636 1.658-.333 77.647.31 77.782.549.116.611-3.965.586-38.4-.026-35.672-.155-41.315-.896-39.382m239.228.109c-.319.49-.446 77.335-.129 77.652.418.418 1.467-.316 1.15-.805-.179-.277-.415-17.783-.525-38.903-.11-21.12-.333-38.195-.496-37.944M3.666 158.75c-.425.27-.398.39.133.594 1.278.491 1.955.324 1.401-.344-.569-.686-.789-.722-1.534-.25M80.4 283.743c0 33.816.181 40.323.994 35.768.505-2.831.032-72.036-.494-72.211-.398-.133-.5 7.333-.5 36.443m316.714 3.833c-.047 22.233-.092 41.459-.1 42.724-.011 1.784.121 2.3.586 2.3.463 0 .583-.456.526-2-.041-1.1-.082-20.212-.092-42.472-.012-27.052-.153-40.555-.426-40.723-.276-.171-.436 12.824-.494 40.171M3.134 311.235c-.14 12.798-.106 13.719.496 13.346.465-.287.442-23.676-.024-24.781-.197-.467-.393 4.287-.472 11.435m393.085 25.262c-.344 1.679-.014 3.058.588 2.456.228-.228.248-1.095.05-2.167l-.331-1.786-.307 1.497M6.278 347.455c-.434.434-.326 2.145.135 2.145.226 0 .512-.259.633-.576.262-.683-.368-1.969-.768-1.569m388.122 1.593c0 .377.118.567.263.422.145-.145.509-.059.81.19.3.25.614.383.697.297.084-.086-.281-.48-.809-.876-.894-.669-.961-.671-.961-.033M7.2 351.576c0 .453.18.824.4.824.22 0 .4-.259.4-.576 0-.317-.18-.688-.4-.824-.22-.136-.4.123-.4.576m385.87.185c-.271.708.05 1.045.744.778.294-.113.438-.46.318-.772-.278-.724-.785-.727-1.062-.006M392.2 354c-.292.472.087 1.2.624 1.2.207 0 .376-.36.376-.8 0-.844-.582-1.076-1-.4m-3 8.187c0 .357.235.498.598.359.328-.127.498-.391.376-.588-.349-.565-.974-.418-.974.229m-374.944 5.691c-.451.45-.275.922.344.922.33 0 .6-.169.6-.376 0-.505-.625-.866-.944-.546M379.8 377.2c-.136.22.134.4.6.4.466 0 .736-.18.6-.4-.136-.22-.406-.4-.6-.4-.194 0-.464.18-.6.4M44.984 393.227c-.369.595.058.919.824.625.354-.135.531-.428.394-.649-.324-.525-.886-.514-1.218.024M357.2 393.2c-.466.301-.349.389.524.394.648.003 1.019-.163.876-.394-.307-.497-.631-.497-1.4 0m-309.832.852c-.432.699.45 1.25.979.612.372-.448.345-.62-.124-.8-.329-.126-.713-.041-.855.188m307.554-.161c-.804.271-.13 1.236.71 1.017.429-.113.866-.342.97-.511.225-.365-1-.735-1.68-.506m-295.524 3.312c-.31.502.541.832 1.602.619.44-.089 1.036-.175 1.324-.191.288-.017.412-.211.276-.431-.322-.521-2.879-.519-3.202.003m281.402-.011c-.972.319-.975.33-.1.408 2.159.192 2.901.136 2.912-.22.017-.499-1.549-.604-2.812-.188m-275.62 1.032c-.611.737.387 1.172 1.848.805 1.182-.297 260.534-.305 265.972-.009 3.734.204 5.418-.206 4.2-1.022-1.053-.705-271.434-.48-272.02.226"/><path fill="#ec342c" d="M333.8 3.2c.136.22.517.4.847.4.33 0 .489-.18.353-.4-.136-.22-.517-.4-.847-.4-.33 0-.489.18-.353.4m30.883 11.551c.922.886 1.542 1.136 1.118.451-.135-.219-.641-.601-1.123-.849l-.878-.452.883.85M396.4 64.229c0 .125.27.498.6.828.651.651.733.554.357-.424-.228-.595-.957-.903-.957-.404M399.792 121c0 21.12.049 29.701.108 19.07.059-10.632.059-27.912 0-38.4-.059-10.489-.108-1.79-.108 19.33m-82.586.7c.003 20.955.138 38.308.3 38.562.162.254.294-16.891.294-38.1 0-21.209-.135-38.562-.3-38.562-.165 0-.297 17.145-.294 38.1M23.67 245.1c10.488.059 27.768.059 38.4 0 10.631-.059 2.05-.108-19.07-.108s-29.819.049-19.33.108m57.93.1c0 .22.165.4.367.4.202 0 .697.114 1.1.254.644.223.636.176-.067-.387-.927-.743-1.4-.834-1.4-.267m307.251 122.76c-.302.191-.467.593-.367.893.127.379.328.272.663-.354.532-.994.504-1.045-.296-.539M381.2 379.2c-.543.41-.854.879-.69 1.044.164.164.675-.106 1.134-.6.46-.493.771-.963.69-1.043-.08-.08-.591.189-1.134.599"/></g></svg>