<svg xmlns="http://www.w3.org/2000/svg" viewBox="0 0 199.89 207.5"><g data-name="Layer 2"><circle cx="30.36" cy="167.33" r="17.17" style="fill:#1d6be0"/><circle cx="67.26" cy="189.3" r="15.91" style="opacity:.95;fill:#1d6be0"/><circle cx="108.57" cy="192.17" r="15.33" style="opacity:.9;fill:#1d6be0"/><circle cx="146.03" cy="178.33" r="14.14" style="opacity:.85;fill:#1d6be0"/><circle cx="174.57" cy="149.6" r="13.02" style="opacity:.8;fill:#1d6be0"/><circle cx="187.91" cy="111.52" r="11.98" style="opacity:.75;fill:#1d6be0"/><circle cx="183.51" cy="71.45" r="10.51" style="opacity:.7;fill:#1d6be0"/><circle cx="162.49" cy="36.93" r="9.26" style="opacity:.65;fill:#1d6be0"/><circle cx="5.42" cy="122.92" r="3.42" style="opacity:.35;fill:#1d6be0"/><circle cx="4.42" cy="82.92" r="4.42" style="opacity:.4;fill:#1d6be0"/><circle cx="20.67" cy="45.92" r="5.5" style="opacity:.45;fill:#1d6be0"/><circle cx="50.67" cy="19.5" r="6.5" style="opacity:.5;fill:#1d6be0"/><circle cx="89.17" cy="8" r="8" style="opacity:.55;fill:#1d6be0"/><circle cx="129.17" cy="14.34" r="9" style="opacity:.6;fill:#1d6be0"/><path d="m117 110.08-7.58-23.86a.48.48 0 0 0-.45-.33h-5.08a.47.47 0 0 0-.45.33l-7.58 23.86-7.62-23.86a.47.47 0 0 0-.45-.33h-5.43a.35.35 0 0 0-.34.47l10.82 32.92a.46.46 0 0 0 .45.33h5.07a.48.48 0 0 0 .46-.33l7.58-23.64 7.6 23.64a.47.47 0 0 0 .45.33h5.08a.46.46 0 0 0 .45-.33l10.82-32.92a.36.36 0 0 0-.34-.47H125a.5.5 0 0 0-.46.33Z"/><rect width="5.99" height="33.72" x="143.95" y="85.89" rx=".48"/><rect width="6.74" height="32.83" x="39.94" y="86.31" rx=".48"/><path d="M52.17 105.49v-7.07a.75.75 0 0 1 .22-.53l12-11.32a1 1 0 0 1 .66-.26h7a.24.24 0 0 1 .17.42l-19.64 18.93a.24.24 0 0 1-.41-.17Zm4.22 4.51 3.84-3.59a.48.48 0 0 1 .67 0l12.31 12.43a.24.24 0 0 1-.17.41h-7.37A.94.94 0 0 1 65 119l-8.63-8.31a.47.47 0 0 1 .02-.69Z"/></g></svg>