<svg xmlns="http://www.w3.org/2000/svg" id="Layer_1" data-name="Layer 1" viewBox="0 0 239.14 165.07"><defs><style>.cls-1{fill:#222b35}</style></defs><path d="M132.15 69.93h6.6l.84-.85v-8.42l.98-.84H149l.84-.84v-6.6l-.84-.85h-8.43l-.98-.98v-8.43l-.84-.84h-6.6l-.84.84v8.43l-.85.98h-8.56l-.84.85v6.6l.84.84h8.56l.85.84v8.42l.84.85zM78.23 52.38v6.59l.84.85h27.1l.85-.85v-6.59l-.85-.85h-27.1l-.84.85z" class="cls-1"/><path d="M173.2 85.29a6.73 6.73 0 0 0-1.55.56c-1 1.83-2 3.65-3.09 5.34a45.38 45.38 0 0 1-5.76 6.88 52.82 52.82 0 0 1-6.88 5.75 61.28 61.28 0 0 1-7.86 4.36 46.78 46.78 0 0 1-36.23 0 39 39 0 0 1-7.86-4.36 45.41 45.41 0 0 1-6.88-5.75 54.27 54.27 0 0 1-5.76-6.88 41.82 41.82 0 0 1-3.09-5.34 6.82 6.82 0 0 1-1.54-.56l-6 2.81c-.28.56-.28 1-.56 1.54a55.78 55.78 0 0 0 100 0c-.29-.56-.29-1-.56-1.54ZM86.56 44.85a6.82 6.82 0 0 0 1.54-.56c1-1.83 2-3.65 3.09-5.34A46 46 0 0 1 97 32.07a52.82 52.82 0 0 1 6.88-5.75 62.66 62.66 0 0 1 7.81-4.32 46.78 46.78 0 0 1 36.23 0 39 39 0 0 1 7.87 4.36 45.9 45.9 0 0 1 6.88 5.75 54.19 54.19 0 0 1 5.75 6.89 39.57 39.57 0 0 1 3.09 5.34 6.82 6.82 0 0 1 1.54.56l6-2.81c.28-.56.28-1 .57-1.54a55.77 55.77 0 0 0-100 0c.28.56.28 1 .56 1.54Z" class="cls-1" transform="translate(-15.77 -9.46)"/><path d="m.38 139.84-.38.39v24.08l.38.38h15.3l.45-.22v-2.51l-.37-.37H4.01l-.38-.38v-20.98l-.37-.39H.38zM23.1 139.84l-.37.39v24.08l.37.38h2.88l.38-.3v-24.16l-.38-.39H23.1zM52.42 139.84l-.38.39v18.48h-.38l-12.04-18.48-.68-.39h-3.19l-.38.39v24.08l.38.38h2.88l.38-.38v-18.48h.38l12.04 18.48.69.38h3.18l.37-.3v-24.16l-.37-.39h-2.88zM81.73 139.84l-.38.39v18.48h-.37l-12.05-18.48-.68-.39h-3.18l-.38.39v24.08l.38.38h2.87l.38-.38v-18.48h.38l12.05 18.48.68.38h3.18l.38-.3v-24.16l-.38-.39h-2.88zM119.83 139.85l-.38.38-4.62 18.1h-.38l-5.3-18.1-.38-.38h-3.18l-.38.38-5.3 18.1h-.38l-4.62-18.1-.38-.38h-2.12l-.38.38v2.49l5.68 21.67.38.38h3.18l.38-.38 5.31-18.86h.37l5.31 18.86.37.38h3.19l.38-.38 5.75-21.67v-2.49l-.38-.38h-2.12z" class="cls-1"/><path d="M154.54 148.93c7.5 0 11.74 5.31 11.74 12.8s-4.24 12.81-11.74 12.81-11.74-5.31-11.74-12.81 4.24-12.8 11.74-12.8m0 22.42c5.3 0 8.18-3.94 8.18-9.62s-2.88-9.62-8.18-9.62-8.18 3.94-8.18 9.62 2.88 9.62 8.18 9.62M187.26 163.17v.38l5 7.81v2.49l-.38.38h-1.44l-.68-.38-6.36-9.92-.68-.38H177l-.38.38v9.92l-.38.38h-2.84l-.37-.38v-24.16l.37-.38h11c5 0 8.18 2.12 8.18 7.12 0 3.94-2.13 6.06-5.31 6.74m-2.87-10.68h-7.5l-.38.38V160l.38.38h7.5c3.18 0 4.62-1.06 4.62-3.94s-1.44-3.94-4.62-3.94" class="cls-1" transform="translate(-15.77 -9.46)"/><path d="m200.88 139.84-.68.39-11.74 11.74h-.38v-11.74l-.38-.39h-2.88l-.37.39v24.08l.37.38h2.88l.38-.38v-7.12l.38-.68 3.18-3.18h.38l8.56 10.98.68.38h1.44l.38-.3v-2.5l-8.56-10.99v-.37l7.8-7.8v-2.5l-.38-.39h-1.06z" class="cls-1"/><path d="M234.15 174.54c-6.06 0-9.92-2.88-9.92-8.19l.38-.37h2.88l.38.37c0 3.57 2.5 5 6.74 5 3.18 0 5.68-1.07 5.68-3.94 0-3.19-2.12-3.94-7.12-4.62s-8.18-2.89-8.18-7.13c0-3.18 2.5-6.74 8.86-6.74 5.3 0 9.24 2.12 9.24 7.5l-.38.38h-2.88l-.37-.38c0-2.88-1.44-4.24-6.06-4.24-3.19 0-5 1.44-5 3.56 0 2.88 1.74 3.56 6.74 4.24s8.56 2.5 8.56 7.5c0 3.87-2.81 7-9.55 7" class="cls-1" transform="translate(-15.77 -9.46)"/><path d="M234.88 140.47h-.96l-.04.05v2.67l-.05.05h-.36l-.05-.05v-2.67l-.04-.05h-.95l-.05-.04v-.32l.05-.05h2.45l.04.05v.32l-.04.04zM238.59 140.06l-.04.05-1.05 2.54h-.04l-1.04-2.54-.05-.05h-.5l-.04.05v3.08l.04.05h.37l.04-.05v-2.17h.04l.91 2.17.05.05h.41l.04-.05.91-2.17h.04v2.17l.05.05h.36l.05-.05v-3.08l-.05-.05h-.5z" class="cls-1"/></svg>