<svg xmlns="http://www.w3.org/2000/svg" viewBox="0 0 6323.664 1663" xml:space="preserve"><path d="M2818.4 1384 2687.2 283.199H2532L2304.8 1080c-20.8 72-28.8 123.199-28.8 123.199h-3.2s-8-51.199-28.8-124.8l-220.8-795.2H1868L1736.8 1384h126.4c1.6-16 86.399-825.601 86.399-825.601 6.4-65.6 8-128 8-128h3.2s12.8 62.4 30.4 128c0 0 225.6 809.601 230.399 825.601h97.601c6.399-19.2 233.6-824 233.6-824 19.2-68.801 30.4-129.601 30.4-129.601h3.2s1.6 60.8 8 129.601c0 0 83.199 809.6 84.8 824H2818.4zm695.754-44.801V785.6c0-211.2-140.801-280-300.8-280-118.399 0-214.399 36.8-264 64l33.601 83.2c48-24 124.8-54.4 208-54.4 110.399 0 190.399 38.4 190.399 171.2v52.8c-267.199 27.2-481.599 94.4-481.599 323.2 0 156.8 104 254.4 328 254.4 119.998 0 220.798-24 286.399-60.801zm-132.801-49.599c-35.199 19.2-88 28.8-142.399 28.8-128 0-204.8-51.2-204.8-176 0-174.399 129.6-220.8 347.199-248v395.2zm657.355-782.401c-204.801-4.8-286.401 17.601-371.201 60.801v816h140.8V630.4c46.4-30.399 126.401-36.8 196.8-16l33.601-107.201zM4750.46 928c3.201-288-121.6-422.4-328-422.4-203.199 0-347.199 152-347.199 444.8 0 307.2 158.4 449.601 384 449.601 116.8 0 208-27.2 260.801-59.2l-36.801-92.8c-44.801 25.6-115.2 49.6-212.801 49.6-155.199 0-246.399-96-262.399-291.2L4750.46 928zm-134.398-59.2-412.801 62.399c-3.2-233.6 89.6-334.399 214.4-334.399 123.199 0 198.401 76.8 198.401 272zm404.552 515.2V128h-140.799v1256h140.799zm314.955 0V128h-140.801v1256h140.801zm804.553-430.4c0-257.6-100.8-448-337.6-448-232 0-336 190.4-336 448 0 252.8 102.399 446.4 337.6 446.4 233.6 0 336-193.6 336-446.4zm-140.8 0c0 172.8-30.4 348.8-195.2 348.8-161.6 0-196.8-174.399-196.8-348.8s32-358.4 196.8-358.4 195.2 185.6 195.2 358.4zM6124.499 216.25c0-49-39.75-88.5-88.5-88.5s-88.25 39.5-88.25 88.5c0 48.75 39.5 88.25 88.25 88.25s88.5-39.5 88.5-88.25zm-10.75 0c0 42.75-34.75 77.5-77.75 77.5-42.75 0-77.5-34.75-77.5-77.5s34.75-77.75 77.5-77.75c43 0 77.75 35 77.75 77.75zm-41.5 51-35.5-49c17.75-1 31-10.75 31-28.5 0-19.75-16.25-29.5-34.75-29.5-9.25 0-18 1.75-24.5 5v102h11.75V219h3.75l34.25 48.25h14zm-16.5-77.75c0 16-12.5 21.25-26.25 21.25h-9.25V172c3-1.25 7.25-2 11.25-2 11 0 24.25 4.25 24.25 19.5z"/><path fill="#85B105" d="m964.598 694.393 211.138-210.698-288.26-288.861 77.122 499.559z"/><path fill="#417505" d="m887.476 194.833 288.26 288.861 211.139-210.699-499.399-78.162z"/><path fill="#A6D814" d="m1463.997 772.556-288.261-288.861-211.138 210.698 499.399 78.163z"/><path fill="#62A613" d="m1386.875 272.995-211.139 210.699 288.261 288.861-77.122-499.56z"/><g><path fill="#85B105" d="m887.476 1471.178 288.26-288.861-211.138-210.699-77.122 499.56z"/><path fill="#417505" d="m1386.875 1393.016-211.139-210.699-288.26 288.861 499.399-78.162z"/><path fill="#A6D814" d="m964.598 971.618 211.138 210.698 288.261-288.861-499.399 78.163z"/><path fill="#62A613" d="m1463.997 893.455-288.261 288.861 211.139 210.699 77.122-499.56z"/></g><g><path fill="#85B105" d="m768.652 194.833-288.26 288.861L691.53 694.393l77.122-499.56z"/><path fill="#417505" d="m269.254 272.995 211.139 210.699 288.26-288.861-499.399 78.162z"/><path fill="#A6D814" d="M691.53 694.393 480.392 483.695l-288.26 288.861 499.398-78.163z"/><path fill="#62A613" d="m192.132 772.556 288.261-288.861-211.139-210.7-77.122 499.561z"/></g><g><path fill="#85B105" d="m691.53 971.618-211.138 210.698 288.26 288.861-77.122-499.559z"/><path fill="#417505" d="m768.652 1471.178-288.26-288.861-211.139 210.699 499.399 78.162z"/><path fill="#A6D814" d="m192.132 893.455 288.261 288.861L691.53 971.618l-499.398-78.163z"/><path fill="#62A613" d="m269.254 1393.016 211.139-210.699-288.261-288.862 77.122 499.561z"/></g></svg>