<svg xmlns="http://www.w3.org/2000/svg" viewBox="0 0 400 400"><g fill-rule="evenodd"><path fill="#228ebc" d="M211.571 198.633c-5.183.709-7.621 1.443-12.571 3.786-7.625 3.609-10.326 6.024-30.619 27.382-8.614 9.066-14.235 17.535-16.326 24.599-.293.99-.695 2.113-.894 2.495-.199.382-.361 1.111-.361 1.62 0 .509-.162 1.096-.359 1.305-1.263 1.337-1.735 17.002-.662 21.98 1.417 6.573 4.088 12.736 7.478 17.257 1.179 1.571 5.293 6.42 9.143 10.775a4194.59 4194.59 0 0 1 10.348 11.743 656.014 656.014 0 0 0 4.613 5.225c1.176 1.303 4.161 4.687 10.582 12 1.449 1.65 3.45 3.907 4.446 5.015a297.855 297.855 0 0 1 3.011 3.402c1.751 2.025 6.903 7.867 8.993 10.198a613.189 613.189 0 0 1 7.207 8.185c2.933 3.376 6.8 7.2 7.281 7.2.175 0 .319.204.319.453 0 .68 1.617 1.947 2.485 1.947.419 0 .651.18.515.4-.136.22.033.4.376.4.343 0 .624.18.624.4 0 .22.45.4 1 .4s1 .18 1 .4c0 .22.349.4.776.4.427 0 .888.18 1.024.4.136.22.676.4 1.2.4.524 0 1.064.18 1.2.4.136.22.766.4 1.4.4.634 0 1.264.18 1.4.4.136.22 1.396.4 2.8.4s2.664.18 2.8.4c.136.22.517.4.847.4.33 0 .489-.18.353-.4-.342-.553 3.121-.519 3.677.037.316.316.663.316 1.254 0 .449-.24 1.988-.437 3.419-.437 1.432 0 2.714-.18 2.85-.4.136-.22.867-.4 1.624-.4.757 0 1.376-.18 1.376-.4 0-.22.54-.4 1.2-.4.66 0 1.2-.18 1.2-.4 0-.22.335-.4.744-.4.64 0 4.621-1.756 6.456-2.848.33-.196.87-.482 1.2-.634.33-.153.949-.602 1.375-.998.427-.396.975-.72 1.219-.72.244 0 1.147-.72 2.006-1.6.859-.88 1.711-1.6 1.892-1.6.437 0 3.422-3.034 4.828-4.907.617-.821 1.382-1.493 1.7-1.493.319 0 .559-.135.533-.3-.126-.797.087-1.322.447-1.1.22.136.4.083.4-.117 0-.326 1.469-1.929 2.874-3.135 1.613-1.384 7.926-8.211 7.926-8.57 0-.234.18-.314.4-.178.22.136.4.044.4-.205 0-.644 1.05-1.611 1.386-1.276.154.155.244.101.2-.119-.171-.849.031-1.436.414-1.2.22.136.4.067.4-.154s1.182-1.584 2.627-3.029c2.798-2.798 5.373-5.969 5.373-6.617 0-.216.36-.618.8-.893.44-.275.8-.816.8-1.203 0-.387.18-.704.4-.704.22 0 .4-.36.4-.8 0-.44.153-.8.339-.8.187 0 .655-.765 1.041-1.7.386-.935.864-2.013 1.061-2.395.197-.382.359-1.057.359-1.5 0-.443.18-.805.4-.805.22 0 .4-.349.4-.776 0-.427.18-.888.4-1.024.22-.136.4-.676.4-1.2 0-.524.18-1.064.4-1.2.22-.136.4-.831.4-1.544 0-.713.163-1.467.361-1.676.891-.937 1.729-20.93.855-20.39-.267.165-.416-.457-.416-1.733 0-1.095-.172-2.05-.382-2.124-.211-.073-.427-.796-.481-1.607-.053-.811-.241-1.385-.417-1.277-.176.109-.32-.342-.32-1.002 0-.66-.18-1.311-.4-1.447-.22-.136-.4-.597-.4-1.024 0-.427-.18-.776-.4-.776-.22 0-.4-.36-.4-.8 0-.44-.18-.8-.4-.8-.22 0-.4-.271-.4-.603 0-.78-2.058-4.597-2.479-4.597-.176 0-.321-.27-.321-.6 0-.33-.18-.6-.4-.6-.22 0-.404-.225-.41-.5-.005-.275-1.17-1.651-2.588-3.057-1.419-1.406-2.466-2.739-2.329-2.962.143-.23.052-.282-.211-.119-.254.157-.462.108-.462-.108s-1.259-1.667-2.799-3.225c-1.539-1.557-2.799-2.921-2.8-3.03l-.001-.623c0-.233-.18-.312-.4-.176-.22.136-.404.102-.409-.076-.005-.178-.643-1.044-1.416-1.924-.774-.88-2.075-2.363-2.891-3.295-.816-.933-2.789-3.066-4.384-4.741-1.595-1.675-2.9-3.222-2.9-3.436 0-.672-3.228-3.528-3.987-3.528-.468 0-.8.388-.943 1.1-.541 2.69-.75 3.551-1.045 4.3-.173.44-.531 1.52-.796 2.4-.265.88-.65 2.005-.855 2.5a96.548 96.548 0 0 0-.723 1.8c-.739 1.904-2.262 4.967-3.235 6.507l-1.416 2.24c-1.414 2.24-2.625 3.921-2.984 4.143-.777.48-.399 1.606 1.095 3.253a185.32 185.32 0 0 1 2.489 2.802c.55.637 2.98 3.391 5.4 6.118 10.47 11.801 11.741 13.502 13.41 17.941.645 1.714.63 9.134-.022 11.129-1.851 5.664-2.304 6.268-13.349 17.775-5.616 5.852-10.901 11.46-13.082 13.882-2.065 2.293-5.348 4.538-7.757 5.304-.88.279-2.013.665-2.519.857-4.481 1.702-15.681-2.332-15.681-5.647 0-.403-.54-1.187-1.2-1.743-.66-.555-1.2-1.201-1.2-1.435 0-.234-.18-.426-.401-.426-.648 0-3.188-2.894-2.92-3.327.137-.222.042-.271-.217-.111-.254.157-.462.113-.462-.098 0-.211-.862-1.263-1.915-2.339-1.053-1.075-2.448-2.665-3.1-3.532-1.944-2.587-2.309-3.015-4.085-4.798-.935-.939-1.7-1.917-1.7-2.175 0-.257-.18-.356-.4-.22-.22.136-.4.072-.4-.141 0-.214-1.08-1.486-2.4-2.827-1.32-1.34-2.4-2.58-2.4-2.754 0-.174-.945-1.321-2.1-2.548a125.28 125.28 0 0 1-3.5-3.882c-.77-.908-2.591-2.904-4.046-4.436-1.456-1.533-2.551-2.882-2.434-2.999.118-.117-.027-.213-.32-.213s-.439-.095-.323-.21c.329-.329-5.375-6.052-6.326-6.348-.468-.145-2.358-1.995-4.2-4.111a1254.22 1254.22 0 0 0-4.803-5.489c-9.674-10.938-10.689-12.449-11.591-17.257C171.7 265.62 177.359 252 182.042 252c.867 0 1.958-.868 1.958-1.557 0-.228.36-.608.8-.843.44-.235.8-.585.8-.776 0-.192 1.35-1.738 3-3.437 1.65-1.699 3-3.234 3-3.411 0-.177.36-.436.8-.576.44-.14.8-.512.8-.827 0-.315.152-.573.339-.573.544 0 2.061-1.45 2.061-1.971 0-.262.153-.382.34-.266.187.115.574-.228.86-.763.286-.535.673-.878.86-.763.187.116.34-.064.34-.399 0-.336.36-.803.8-1.038.44-.235.812-.647.827-.914.015-.267 1.102-1.386 2.415-2.486 1.312-1.1 2.637-2.225 2.944-2.5.306-.275.75-.5.985-.5.236 0 .429-.18.429-.4 0-.22.461-.4 1.024-.4.58 0 .916-.173.776-.4-.144-.232.251-.4.943-.4.655 0 1.25-.175 1.324-.389.594-1.735 11.682-.036 12.928 1.981 1.054 1.705 1.405.288 1.414-5.692.005-3.355.185-9.79.4-14.3.377-7.912.363-8.223-.394-8.852-1.455-1.209-7.861-1.651-13.244-.915"/><path fill="#353535" d="M161 19.584c-.44.198-2.465.372-4.5.388-2.181.016-3.7.192-3.7.428 0 .22-.799.4-1.776.4s-1.888.18-2.024.4c-.136.22-.867.4-1.624.4-.757 0-1.376.18-1.376.4 0 .22-.54.4-1.2.4-.66 0-1.2.18-1.2.4 0 .22-.54.4-1.2.4-.66 0-1.2.18-1.2.4 0 .22-.54.4-1.2.4-.66 0-1.2.18-1.2.4 0 .22-.459.4-1.019.4-.561 0-1.755.355-2.655.79-.899.434-1.798.689-1.998.566-.2-.124-.653.016-1.007.31-.354.294-.931.554-1.282.578-1.266.088-3.26.667-3.471 1.008-.118.191-.565.348-.992.348-.427 0-.776.18-.776.4 0 .22-.439.4-.976.4-.537 0-1.088.18-1.224.4-.136.22-.597.4-1.024.4-.427 0-.776.18-.776.4 0 .22-.36.4-.8.4-.44 0-.8.18-.8.4 0 .22-.236.4-.525.4-.288 0-.911.36-1.383.8-.472.44-1.136.8-1.475.8-.339 0-.617.18-.617.4 0 .22-.236.4-.525.4-.288 0-.873.32-1.3.711-.426.391-1.405 1.15-2.175 1.687-1.867 1.301-2.412 1.857-2.114 2.154.136.137-.009.248-.323.248s-.795.36-1.07.8c-.275.44-.686.8-.915.8-.473 0-2.378 1.811-2.378 2.261 0 .164-.9 1.143-2 2.176-1.1 1.033-2 2.078-2 2.324 0 .245-.54 1.011-1.2 1.702-.66.691-1.2 1.499-1.2 1.796 0 .298-.18.541-.4.541-.22 0-.4.278-.4.617 0 .339-.36 1.003-.8 1.475-.44.472-.8 1.095-.8 1.383 0 .289-.18.525-.4.525-.22 0-.4.36-.4.8 0 .44-.18.8-.4.8-.22 0-.4.248-.4.551 0 .303-.304 1.248-.676 2.1-.371.852-.68 1.819-.686 2.149-.006.33-.181.718-.389.863-.207.145-.413.595-.458 1a7.786 7.786 0 0 1-.279 1.337c-.894 2.696-1.112 3.621-1.112 4.728 0 .7-.18 1.272-.4 1.272-.229 0-.4 1.2-.4 2.8 0 1.6-.171 2.8-.4 2.8-.257 0-.4 3.925-.4 10.976 0 6.887-.149 11.069-.4 11.224-.256.158-.4 5.863-.4 15.8 0 9.937-.144 15.642-.4 15.8-.256.158-.4 5.93-.4 16s-.144 15.842-.4 16c-.256.158-.4 6.004-.4 16.224 0 10.384-.14 15.976-.4 15.976-.261 0-.4 6.067-.4 17.4 0 11.333.139 17.4.4 17.4.222 0 .4 1.067.4 2.4s.178 2.4.4 2.4c.22 0 .4.81.4 1.8s.18 1.8.4 1.8c.22 0 .4.63.4 1.4 0 .77.18 1.4.4 1.4.22 0 .4.45.4 1s.18 1 .4 1c.22 0 .4.54.4 1.2 0 .66.18 1.2.4 1.2.22 0 .4.54.4 1.2 0 .66.18 1.2.4 1.2.22 0 .4.36.4.8 0 .44.174.8.387.8.214 0 .285.268.159.597a.637.637 0 0 0 .368.825c.359.138.517.539.395 1.004-.111.426-.001.774.244.774.246 0 .447.345.447.767 0 .421.135.826.3.9.165.073.729.98 1.254 2.015.524 1.036 1.289 2.243 1.7 2.684.41.44.746 1.038.746 1.329 0 .291.36.788.8 1.105.44.317.8.825.8 1.128 0 .303.54 1.055 1.2 1.672.66.617 1.2 1.316 1.2 1.555 0 .961 13.107 14.045 14.07 14.045.186 0 .902.54 1.593 1.2.691.66 1.416 1.2 1.613 1.2.197 0 .744.36 1.216.8.472.44 1.095.8 1.383.8.289 0 .525.18.525.4 0 .22.294.4.653.4.359 0 .944.318 1.3.707.356.389 1.547 1.154 2.647 1.7 1.1.546 2.06 1.128 2.133 1.293.074.165.383.3.688.3.305 0 1.196.36 1.979.8.783.44 1.779.8 2.212.8.433 0 .788.14.788.311 0 .374 4.281 1.689 5.496 1.689.471 0 .968.18 1.104.4.136.22.722.4 1.302.4.589 0 1.591.486 2.27 1.1.668.605.903.726.522.269-.382-.458-.694-1.12-.694-1.472 0-.352-.225-.883-.5-1.181-1.737-1.878-4.604-8.236-5.825-12.916-1.561-5.987-1.855-15.723-.652-21.6.947-4.626 1.134-6.6.626-6.6-2.334 0-10.708-11.433-11.521-15.729-.132-.699-.416-1.494-.63-1.768-.215-.273-.404-1.398-.421-2.5-.016-1.101-.175-2.003-.353-2.003s-.279-.221-.224-.49c.137-.674.952-1.51 1.471-1.51.236 0 .429-.18.429-.4 0-.22.641-.4 1.424-.4.974 0 1.333-.146 1.138-.462-.183-.295-.109-.353.203-.16.624.386.307.691-1.254 1.208-.688.228-1.339.684-1.446 1.014-.167.513-.099.521.465.055.363-.299.917-.446 1.232-.325a.615.615 0 0 0 .792-.355c.122-.316.507-.575.857-.575.371 0 .52-.188.357-.452-.171-.276-.063-.375.276-.254.306.109.871.036 1.256-.162.49-.252.702-.206.706.154.004.316.12.36.3.114.487-.662 1.879-1.652 1.547-1.1-.192.32-.06.5.366.5.428 0 .584-.215.436-.6-.254-.664.355-.831.742-.204.151.244.592.167 1.156-.202.501-.328 1.015-.493 1.142-.365.128.127.358-.166.512-.652.219-.688.357-.761.628-.33.191.304.254.853.14 1.219-.114.367-.02.782.209.924.229.141.416.787.416 1.434 0 .647.192 1.176.427 1.176s.327-.315.205-.7c-.382-1.205-.766-4.631-.705-6.3.105-2.915.43-18.24.616-29.081.151-8.783.09-10.596-.34-10.2-.287.264-.38.661-.206.881.175.22.234 1.66.132 3.2-.103 1.54-.214 4.06-.248 5.6-.044 1.96-.245 2.952-.672 3.306-.534.443-.535.493-.009.4.657-.116.961 5.547.319 5.944-.175.108-.319.377-.319.597 0 .22.19.283.422.139.432-.266.292 1.94-.35 5.5-.169.943-.187 2.431-.038 3.306.148.876.171 1.851.05 2.166-.153.398-.058.473.31.246.316-.196.433-.171.29.06-.132.213-.283 1.231-.336 2.262-.054 1.031-.239 1.874-.413 1.874-.173 0-.215.502-.092 1.115.178.891.036 1.208-.71 1.582-1.519.761-5.039 1.661-5.362 1.371-.165-.147-.17-.043-.012.232.198.343-.025.5-.712.5-.55 0-1.111.18-1.247.4-.136.22-.687.4-1.224.4-.537 0-.976.18-.976.4 0 .22-.439.4-.976.4-.537 0-1.088.18-1.224.4-.136.22-.696.4-1.244.4h-.997l.083-5.615c.045-3.088.226-5.703.402-5.812.175-.108.331-6.703.346-14.655.018-9.261.175-14.635.438-14.952.226-.272.253-.592.06-.711-.611-.378.411-3.788 1.197-3.993.981-.257.904-1.062-.101-1.062-.807 0-.816-.158-.765-13.8.028-7.59.201-13.8.384-13.8s.354-6.778.379-15.061c.026-8.284.14-15.214.255-15.399.392-.633.511-4.536.537-17.577l.026-13.036 2.3-.69c1.265-.38 2.57-.742 2.9-.804.33-.063 1.68-.623 3-1.244 1.32-.622 2.554-1.092 2.742-1.046.188.047.57-.104.848-.335.278-.231 1.204-.476 2.058-.546l1.552-.126.118-2.668c.065-1.467.29-2.668.5-2.668.21 0 .382-.63.382-1.4 0-.77.18-1.4.4-1.4.22 0 .4-.253.4-.562 0-.733 1.603-3.819 2.5-4.813.385-.427.7-.926.7-1.109 0-.84 4.431-4.716 5.391-4.716.555 0 1.009.18 1.009.4 0 .231 1.267.4 3 .4s3 .169 3 .4c0 .229 1.2.4 2.8.4 1.6 0 2.8.171 2.8.4s1.2.4 2.8.4c1.6 0 2.8.171 2.8.4 0 .225 1.125.4 2.576.4 1.417 0 2.688.18 2.824.4.136.22 1.407.4 2.824.4 1.451 0 2.576.175 2.576.4 0 .229 1.2.4 2.8.4 1.6 0 2.8.171 2.8.4s1.2.4 2.8.4c1.6 0 2.8.171 2.8.4 0 .22.81.4 1.8.4s1.8.163 1.8.363c0 .2.945.459 2.1.576 3.34.339 5.1.721 5.1 1.105 0 .196.29.356.644.356.923 0 6.634 2.847 7.403 3.691.356.39.854.709 1.106.709.6 0 6.447 5.847 6.447 6.447 0 .252.316.75.703 1.106.386.356.957 1.142 1.267 1.747.311.605.715 1.1.898 1.1.182 0 .332.36.332.8 0 .44.157.8.349.8.192 0 .465.727.607 1.615.142.889.499 1.708.794 1.821.298.114.486.652.425 1.213-.061.554.117 1.58.395 2.279.552 1.385.506 33.096-.048 34.272-.156.33-.318 7.26-.36 15.4-.042 8.271-.294 16.918-.57 19.6-.333 3.232-.427 8.686-.289 16.7.118 6.798.054 11.9-.149 11.9-.645 0-.401 4.01.286 4.697 1.006 1.006.101 36.059-.94 36.404-.35.116-.5 1.234-.5 3.732 0 2.111-.163 3.567-.4 3.567-.22 0-.4.63-.4 1.4 0 .77-.18 1.4-.4 1.4-.22 0-.4.54-.4 1.2 0 .66-.18 1.2-.4 1.2-.22 0-.4.36-.4.8 0 .44-.18.8-.4.8-.22 0-.4.32-.4.712 0 .391-.36.971-.8 1.288-.44.317-.8.811-.8 1.097 0 1.237-4.331 4.903-5.791 4.903-.775 0-1.409-.18-1.409-.4 0-.225-1.125-.4-2.576-.4-1.417 0-2.688-.18-2.824-.4-.136-.22-1.407-.4-2.824-.4-1.451 0-2.576-.175-2.576-.4 0-.229-1.2-.4-2.8-.4-1.6 0-2.8-.171-2.8-.4s-1.2-.4-2.8-.4c-1.6 0-2.8-.171-2.8-.4 0-.222-1.068-.4-2.405-.4-1.323 0-2.736-.206-3.14-.459-1.488-.929-3.159.143-6.639 4.259-.558.66-1.015 1.425-1.016 1.7 0 .275-.18.5-.4.5-.22 0-.4.36-.4.8 0 .44-.141.8-.313.8-.172 0-.544.855-.826 1.9-.283 1.045-.682 2.213-.888 2.595-.473.879-.491 8.483-.022 9.41.193.382.578 1.415.857 2.295.518 1.641 2.329 4.54 3.777 6.049 1.185 1.233 5.652 6.258 8.847 9.95 5.937 6.862 6.488 7.444 7.663 8.101 1.124.629 16.905.722 16.905.1 0-.229 1.2-.4 2.8-.4 1.6 0 2.8-.171 2.8-.4 0-.22.709-.4 1.576-.4.867 0 1.688-.18 1.824-.4.136-.22.766-.4 1.4-.4.634 0 1.264-.18 1.4-.4.136-.22.687-.4 1.224-.4.537 0 .976-.18.976-.4 0-.22.54-.4 1.2-.4.66 0 1.2-.18 1.2-.4 0-.22.362-.4.805-.4.443 0 1.163-.18 1.6-.4l1.59-.8c.437-.22 1.146-.4 1.576-.4.43 0 .893-.18 1.029-.4.136-.22.676-.4 1.2-.4.524 0 1.064-.18 1.2-.4.136-.22.687-.4 1.224-.4.537 0 .976-.18.976-.4 0-.22.45-.4 1-.4s1-.18 1-.4c0-.22.451-.4 1.002-.4.551 0 1.935-.45 3.075-1 1.14-.55 2.294-1 2.565-1 .27 0 .551-.135.625-.3.167-.376 2.297-1.675 3.233-1.971.385-.122.7-.381.7-.576 0-.194.225-.353.5-.353.275-.001.98-.406 1.566-.9.587-.495 1.444-1.215 1.905-1.6.461-.385 1.004-.7 1.207-.7.202 0 .482-.36.622-.8.14-.44.478-.8.752-.8.273 0 .884-.36 1.356-.8.472-.44 1.046-.8 1.275-.8.477 0 .487-.276.052-1.391-.301-.77.069-1.374 3.566-5.809.434-.55.791-1.133.794-1.297.003-.163.635-1.121 1.405-2.13s1.4-2.09 1.4-2.404c0-.313.151-.569.336-.569.456 0 1.327-1.975 1.061-2.405-.118-.19.015-.492.295-.67.662-.423 1.508-1.949 1.508-2.72 0-.333.147-.605.328-.605.18 0 .576-.911.879-2.025.303-1.114.696-2.115.872-2.224.177-.109.321-.717.321-1.351s.18-1.264.4-1.4c.22-.136.4-.856.4-1.6 0-.744.2-1.476.444-1.627.261-.161.353-.835.224-1.63-.214-1.321-.198-1.34.645-.749 1.259.882 1.487.764 1.487-.77 0-.757.18-1.488.4-1.624.794-.491.501-7.127-.3-6.797-.887.366-3.17.999-4.6 1.275-.605.117-1.1.372-1.1.567 0 .195-.276.355-.613.355-.336 0-.716.27-.842.6-.127.33-.661.6-1.188.6-.526 0-.957.18-.957.4 0 .22-.439.4-.976.4-.537 0-1.088.18-1.224.4-.136.22-.642.406-1.124.413-.482.007-1.225.277-1.652.6-.747.564-.736.587.276.587.579 0 1.164-.18 1.3-.4.136-.22.676-.4 1.2-.4.524 0 1.064-.18 1.2-.4.136-.22.599-.4 1.029-.4.43 0 1.135-.22 1.566-.49.608-.379.893-.382 1.262-.013s.304.533-.29.726c-.422.137-1.16.437-1.64.666-.48.23-1.14.315-1.467.189-.333-.127-.698.045-.832.393-.148.386-.537.541-1.034.412-.479-.126-.935.039-1.144.414-.216.386-.664.54-1.177.406-.605-.158-.862-.008-.951.556-.067.425-.302.811-.522.857-.704.148-.742-14.223-.039-14.737.664-.486.815-3.548 1.435-29.179.212-8.8.571-23.38.797-32.4l.801-32c.214-8.58.499-19.132.634-23.448l.244-7.848 1.664-.521c.915-.287 1.835-.671 2.044-.853.209-.181.783-.33 1.276-.33s1.008-.18 1.144-.4c.136-.22.599-.4 1.029-.4a3.88 3.88 0 0 0 1.476-.353c1.794-.913 2.77-1.292 3.117-1.209.208.049.648-.014.978-.139 1.381-.524 2.373-.585 2.549-.157.103.252.202-2.467.219-6.042.019-3.747-.125-6.5-.339-6.5-.204 0-.442-.315-.529-.7-.087-.385-.179.104-.205 1.088-.026.983.144 2.018.378 2.3.512.617-.134.691-.74.085-.302-.302-.497-.244-.667.2-.133.345-.067.627.147.627.213 0 .387.54.387 1.2 0 .933-.178 1.2-.8 1.2-.44 0-.8.18-.8.4 0 .22-.45.4-1 .4s-1 .18-1 .4c0 .22-.54.4-1.2.4-.66 0-1.2.18-1.2.4 0 .22-.54.4-1.2.4-.66 0-1.2.18-1.2.4 0 .22-.54.4-1.2.4-.66 0-1.2.18-1.2.4 0 .22-.54.4-1.2.4-.66 0-1.2.18-1.2.4 0 .22-.18.4-.4.4-.22 0-.4-.54-.4-1.2 0-.66.18-1.2.4-1.2.7 0 .43-.737-.362-.988-.566-.18-.813-.729-.957-2.127-1.633-15.818-15.851-39.059-29.91-48.888-.754-.527-1.461-1.069-1.571-1.204-.11-.135-1.1-.856-2.2-1.603-1.1-.746-2.349-1.679-2.775-2.073-.427-.395-1.012-.717-1.3-.717-.289 0-.525-.18-.525-.4 0-.22-.27-.4-.6-.4-.33 0-.6-.18-.6-.4 0-.22-.36-.4-.8-.4-.44 0-.8-.18-.8-.4 0-.22.45-.4 1-.4s1-.18 1-.4c0-.22.54-.4 1.2-.4.66 0 1.2-.18 1.2-.4 0-.22.54-.4 1.2-.4.66 0 1.2-.18 1.2-.4 0-.22.54-.4 1.2-.4.66 0 1.2-.18 1.2-.4 0-.22.525-.4 1.167-.4.641 0 1.227-.182 1.301-.404.264-.793 2.095-.779 3.462.028.754.445 1.483.687 1.62.537.138-.149.025-.351-.25-.449-.275-.098-.494-.389-.487-.645.008-.257.363-.048.789.464.427.511.94.828 1.142.704.201-.124.588.042.86.369.634.765 1.196.763 1.196-.004 0-.333-.356-.6-.8-.6-.44 0-.8-.18-.8-.4 0-.22-.36-.4-.8-.4-.44 0-.8-.18-.8-.4 0-.22-.27-.4-.6-.4-.33 0-.6-.18-.6-.4 0-.22-.36-.4-.8-.4-.44 0-.8-.18-.8-.4 0-.22-.36-.4-.8-.4-.44 0-.8-.18-.8-.4 0-.22-.36-.4-.8-.4-.44 0-.8-.18-.8-.4 0-.22-.362-.4-.805-.4-.443 0-1.163-.18-1.6-.4l-1.59-.8c-.437-.22-1.146-.4-1.576-.4-.43 0-.893-.18-1.029-.4-.136-.22-.766-.4-1.4-.4-.634 0-1.264-.18-1.4-.4-.136-.22-.856-.4-1.6-.4-.744 0-1.467-.184-1.606-.41-.139-.225-.735-.339-1.324-.252-.588.086-1.649-.078-2.358-.365-.708-.287-2.052-.452-2.987-.366-1.049.096-1.815-.029-1.998-.326-.183-.295-1.306-.481-2.912-.481-1.438 0-2.615-.135-2.615-.3 0-.165-1.17-.3-2.6-.3-1.467 0-2.6-.174-2.6-.4 0-.229-1.2-.4-2.8-.4-1.6 0-2.8-.171-2.8-.4s-1.2-.4-2.8-.4c-1.6 0-2.8-.171-2.8-.4 0-.225-1.125-.4-2.576-.4-1.417 0-2.688-.18-2.824-.4-.136-.22-1.396-.4-2.8-.4s-2.664-.18-2.8-.4c-.136-.22-1.461-.4-2.944-.4-1.483 0-2.867-.168-3.076-.374-.209-.206-2.18-.47-4.38-.586-2.2-.116-5.17-.302-6.6-.413-1.43-.111-2.96-.04-3.4.157m84.2 17.152c0 .184.45.541 1 .791 1.155.526 1.323.206.3-.57-.811-.616-1.3-.699-1.3-.221m6 4.021c0 .197.285.467.633.6.978.376 1.075.294.424-.357-.68-.68-1.057-.767-1.057-.243m4 3.243c0 .22.153.4.341.4.187 0 .905.54 1.596 1.2 1.862 1.779 2.075 1.455.263-.4-1.565-1.602-2.2-1.949-2.2-1.2m8.012 7.45c.015.464 2.398 3.074 2.611 2.86.091-.091-.462-.851-1.228-1.688-.767-.837-1.39-1.365-1.383-1.172m3.988 4.899c0 .224.46.911 1.021 1.529.949 1.042.984 1.052.5.137-.665-1.256-1.521-2.194-1.521-1.666m2 3.202c0 .193.271.576.603.851.332.276 1.457 2.007 2.5 3.847 1.043 1.84 2.027 3.347 2.187 3.348.159.002-.246-.905-.9-2.015-.655-1.109-1.19-2.189-1.19-2.4 0-.21-.18-.382-.4-.382-.22 0-.4-.236-.4-.525 0-.288-.36-.911-.8-1.383-.44-.472-.8-1.046-.8-1.275a.41.41 0 0 0-.4-.417c-.22 0-.4.158-.4.351m9.2 18.202c0 .33.18.711.4.847.22.136.4-.023.4-.353 0-.33-.18-.711-.4-.847-.22-.136-.4.023-.4.353m1.606 5.123c.012 1.005.781 1.832.788.848.003-.482-.174-.988-.394-1.124-.22-.136-.397-.012-.394.276m-136.642 4.143c-.017 1.84.119 3.253.302 3.14.417-.257.445-6.043.032-6.299-.167-.103-.317 1.319-.334 3.159m137.442-.743c.003.398.181.994.394 1.324.303.469.389.366.394-.476.003-.592-.174-1.188-.394-1.324-.22-.136-.397.078-.394.476m-7.425 9.276c-.1.1-.181.331-.181.515 0 .539 1.496.381 1.712-.181.184-.481-1.103-.762-1.531-.334m-1.969.868c.126.204-.05.264-.391.133-.342-.131-.621-.039-.621.204 0 .244.431.443.957.443 1.154 0 1.699-1.01.59-1.094-.42-.032-.661.109-.535.314m-2.712.68c-1.058.24-.838.9.3.9.55 0 1-.169 1-.376 0-.522-.473-.712-1.3-.524M142.8 107c0 .33-.191.6-.424.6-.233 0-.301.198-.151.441s.329 1.449.397 2.681c.082 1.472-.001 2.04-.242 1.659-.308-.486-.369-.471-.374.095-.003.372.177.79.401.928.223.138.302.419.176.624-.127.204-.04.372.193.372.27 0 .424-1.451.424-4 0-2.2-.09-4-.2-4-.11 0-.2.27-.2.6m139.136 8.24c-.075 1.343-.004 2.648.158 2.9.162.253.297-.845.3-2.44.007-3.531-.272-3.811-.458-.46m-139.455 4.961c-.072 1.341.045 2.199.3 2.199.241 0 .419-.934.419-2.2 0-2.857-.564-2.856-.719.001M282 119.367c0 .311-.225.657-.5.768-.4.161-.4.208 0 .233.275.018.5.223.5.456s-.147.332-.328.221c-.18-.112-.257.373-.171 1.076.12.983.058 1.14-.267.679-.345-.491-.423-.425-.428.367-.003.531.12.841.273.687.154-.153.483.101.731.565.369.69.456.254.476-2.388.014-1.777-.045-3.231-.131-3.231-.085 0-.155.255-.155.567m-.358 8.033c-.032.55-.053 1.315-.045 1.7.029 1.489-.017 2.968-.105 3.375-.051.234.133.508.408.608.375.138.5-.672.5-3.25 0-3.046-.609-4.999-.758-2.433m-.664 8.235c-.147.239-.068.635.177.88.327.327.445.211.445-.435 0-.966-.208-1.115-.622-.445m.071 7.095c-.177.512-.216 1.037-.086 1.167.415.414.707-.197.555-1.163l-.147-.934-.322.93m-139.849.094c0 .233.187.308.416.166.26-.16.345.094.226.676-.648 3.189-.653 3.602-.037 2.986.823-.822.818-4.252-.005-4.252-.33 0-.6.191-.6.424m139.802 3.573c-.135.218-.078.696.126 1.061.303.54.372.466.372-.397 0-1.14-.112-1.289-.498-.664m-139.114 2.685c-.172.264-.191.966-.042 1.559.16.638.117.984-.104.846-.213-.131-.387.61-.402 1.712-.022 1.669.054 1.864.536 1.383.398-.399.527-1.349.443-3.272-.066-1.49-.26-2.493-.431-2.228m139.054 1.705c-.233.873-.286 1.502-.117 1.398.169-.105.398.036.509.313.112.276.217-.353.234-1.398.039-2.314-.077-2.372-.626-.313m.05 3.575c.146.666.074 1.273-.169 1.424-.248.153-.436-.12-.455-.662-.017-.508-.127-.684-.244-.39-.117.294.11 1.135.506 1.869.578 1.075.622 1.452.225 1.931-.272.327-.343.688-.159.802.351.217.329 1.836-.06 4.364-.18 1.167-.098 1.5.366 1.5.504 0 .598-.944.598-6 0-4.028-.142-6-.432-6-.268 0-.335.439-.176 1.162m-142.408 18.465c-.369.595.058.919.824.625.354-.135.531-.428.394-.649-.324-.525-.886-.514-1.218.024m-2.717.64c-.544.544-.238.933.733.933 1.117 0 1.341-.584.367-.957-.783-.301-.776-.301-1.1.024m5.128 1.056c.026.702-.093 1.682-.264 2.177-.231.667-.158.9.279.9.645 0 .886-3.77.265-4.154-.179-.11-.305.374-.28 1.077m-7.168-.217c-.511.512-.166.894.806.894.608 0 .97-.192.879-.465-.169-.505-1.317-.797-1.685-.429m-1.977.777c-.126.126-.133.383-.016.573.281.454 1.366.444 1.366-.013 0-.442-1.038-.872-1.35-.56m-2.433.889c-.296.479.457.953.99.624.447-.277.153-.996-.407-.996-.194 0-.456.168-.583.372m150.983 4.452c0 .233-.135.34-.3.238-.366-.227-.288 2.304.12 3.898.21.823.165 1.078-.157.879-.292-.181-.369-.059-.216.34.136.354.027.621-.253.621-.384 0-.381.134.013.608.521.628.889 6.468.453 7.192-.617 1.025-.494 3.891.141 3.256.697-.697.858-10.863.165-10.435-.201.125-.366.036-.366-.197s.175-.424.39-.424c.224 0 .372-1.361.348-3.2-.023-1.76-.108-3.2-.19-3.2-.081 0-.148.191-.148.424m-1.36 20.682c.242.162.543.564.668.894.153.401.239.301.26-.3.022-.605-.198-.898-.668-.894-.432.004-.531.119-.26.3m.116 13.494c-.074.331-.05 1.793.03 1.9.255.339.155 2.7-.114 2.7-.464 0-.156 1.614.328 1.716.238.05.421-1.253.452-3.216.041-2.557-.39-4.477-.696-3.1m.182 8.817c-.13.34-.126.728.009.863.135.136.098.443-.082.683-.423.564-.098 4.237.375 4.237.198 0 .36-1.44.36-3.2 0-3.123-.182-3.833-.662-2.583M218.093 230c.275.44.638.8.807.8.169 0 .082-.36-.193-.8-.275-.44-.638-.8-.807-.8-.169 0-.082.36.193.8m60.615 2.783c-.277.984-.111 1.554.324 1.118.128-.128.169-.653.092-1.167l-.14-.934-.276.983m-133.831 2.447c.079.236.314.43.523.43.209 0 .445-.194.523-.43.079-.236-.156-.43-.523-.43s-.602.194-.523.43M272.8 245.576c0 .207-.164.478-.364.602-.517.319-1.676-.19-1.41-.62.294-.476 1.774-.461 1.774.018m-2.221.79c.271.438-.576.791-1.279.532-.275-.101-.5-.344-.5-.541 0-.47 1.488-.462 1.779.009m-2.179.801c0 .468-.851.77-1.5.531-.866-.318-.543-.898.5-.898.55 0 1 .165 1 .367M266 248c0 .22-.461.4-1.024.4-.58 0-.916-.173-.776-.4.136-.22.597-.4 1.024-.4.427 0 .776.18.776.4m9.2 0c0 .22-.36.4-.8.4-.44 0-.8-.18-.8-.4 0-.22.36-.4.8-.4.44 0 .8.18.8.4m-11.6.8c0 .22-.18.4-.4.4-.582 0-.491 2.299.1 2.521.346.129.255.375-.296.798-1.352 1.037-2.058-1.349-.99-3.345.43-.803 1.586-1.076 1.586-.374m9.2 0c0 .22-.36.4-.8.4-.44 0-.8-.18-.8-.4 0-.22.36-.4.8-.4.44 0 .8.18.8.4m-2.4.8c0 .22-.36.4-.8.4-.44 0-.8-.18-.8-.4 0-.22.36-.4.8-.4.44 0 .8.18.8.4m-2 .8c0 .22-.36.4-.8.4-.44 0-.8-.18-.8-.4 0-.22.36-.4.8-.4.44 0 .8.18.8.4m-2.4.8c0 .22-.36.4-.8.4-.44 0-.8-.18-.8-.4 0-.22.36-.4.8-.4.44 0 .8.18.8.4m8.8 0c0 .22-.27.4-.6.4-.33 0-.6-.18-.6-.4 0-.22.27-.4.6-.4.33 0 .6.18.6.4m-2.4.8c0 .22-.27.4-.6.4-.33 0-.6-.18-.6-.4 0-.22.27-.4.6-.4.33 0 .6.18.6.4m-2.2.8c-.136.22-.507.4-.824.4-.317 0-.576-.18-.576-.4 0-.22.371-.4.824-.4.453 0 .712.18.576.4m-2.4.8c-.136.22-.507.4-.824.4-.317 0-.576-.18-.576-.4 0-.22.371-.4.824-.4.453 0 .712.18.576.4m-4.603 1.7c.002.165-.248.3-.554.3-.307 0-.665.281-.797.625s-.422.514-.643.377c-.425-.263-.557-1.914-.183-2.288.277-.277 2.173.582 2.177.986m2.403-.9c0 .22-.259.4-.576.4-.317 0-.688-.18-.824-.4-.136-.22.123-.4.576-.4.453 0 .824.18.824.4m6.08.88c-.373.373-.587.373-.96 0s-.267-.48.48-.48.853.107.48.48M261.8 258c.625.268.656.35.143.372-.362.015-.773.328-.913.695-.186.485-.376.547-.696.227-.458-.458-.192-1.715.353-1.666.172.016.673.183 1.113.372m-.556 3.225c.306.014.12.2-.412.413-1.168.467-1.863-.063-1.457-1.111.268-.69.308-.691.798-.027.283.385.765.711 1.071.725m-1.65 2.475c.003.165-.264.3-.594.3-.613 0-.82-.847-.327-1.339.268-.269.909.454.921 1.039m-1.164 1.61c-.049.478-.598.386-.77-.13-.088-.264.056-.408.32-.32.264.088.467.29.45.45M147.693 297.2c.275.44.638.8.807.8.169 0 .082-.36-.193-.8-.275-.44-.638-.8-.807-.8-.169 0-.082.36.193.8m128.416 5.6c0 .99.078 1.395.173.9a5.661 5.661 0 0 0 0-1.8c-.095-.495-.173-.09-.173.9m-99.703 26.517c-.003.174.177.534.401.8.224.266.766.917 1.203 1.447.437.53.867.89.955.8.088-.09-.45-.884-1.196-1.764-.747-.88-1.36-1.457-1.363-1.283m18.007 20.561c.019.443 1.57 2.273 1.763 2.079.086-.087-.279-.662-.81-1.279-.531-.618-.96-.978-.953-.8m49.692 30.809c.609.092 1.509.09 2-.005.492-.095-.005-.171-1.105-.168-1.1.003-1.503.081-.895.173"/><path fill="#145c75" d="M199.236 192.339c-.31.213-.805.294-1.101.181-.718-.276-2.619.22-2.372.619.107.174-.337.238-.988.143-.65-.096-1.42.023-1.71.264-.29.241-.914.497-1.386.569-.472.072-.983.256-1.135.408-.153.152-.614.277-1.025.277-.411 0-1.191.291-1.733.646-.542.355-.989.49-.992.3-.003-.19-.138-.165-.3.055-.387.529-4.441 2.999-4.921 2.999-.205 0-.373.138-.373.306 0 .168-.72.75-1.6 1.294-.88.544-1.6 1.126-1.6 1.294 0 .168-.258.306-.573.306-.315 0-.678.331-.807.736-.128.405-.68.975-1.227 1.268-.546.292-.993.681-.993.864 0 .182-.281.332-.624.332-.343 0-.512.18-.376.4.136.22.068.4-.152.4-.452 0-4.437 3.977-10.048 10.029a438.081 438.081 0 0 1-6.4 6.757 145.245 145.245 0 0 0-4.8 5.191c-1.21 1.393-2.38 2.738-2.6 2.988-1.842 2.094-3.239 4.253-3.634 5.613-.847 2.919-1.055 3.422-1.413 3.422-.194 0-.353.36-.353.8 0 .44-.18.8-.4.8-.22 0-.4.36-.4.8 0 .44-.18.8-.4.8-.22 0-.4.36-.4.8 0 .44-.18.8-.4.8-.22 0-.4.439-.4.976 0 .537-.172 1.083-.383 1.213-.689.426.052 1.429 1.532 2.071.883.383 1.237.709.905.833-.301.113-.703-.042-.894-.344-.191-.302-.351-.392-.354-.2-.003.192-.284.119-.623-.163-1.043-.866-2.324 2.288-2.85 7.014-.098.88-.357 1.964-.575 2.409-.762 1.557.045 18.591.881 18.591.198 0 .359.405.357.9-.005 1.072 2.074 7.242 2.504 7.433.165.074.3.479.3.9 0 .422.18.767.4.767.22 0 .4.32.4.712 0 .391.36.971.8 1.288.44.317.8.897.8 1.288 0 .392.18.712.4.712.22 0 .4.27.4.6 0 .33.199.6.443.6.243 0 .334.283.201.63-.251.654.229 1.265 1.571 1.999 3.072 1.682 3.618 2.015 3.879 2.371.162.22.297.237.3.038.003-.199.346-.054.761.321.416.376 1.136.713 1.6.748.465.035.845.205.845.378 0 .173.19.315.423.315.462 0 3.031 2.562 5.052 5.038a70.841 70.841 0 0 0 2.8 3.176 75.03 75.03 0 0 1 3.113 3.575c.873 1.078 2.133 2.519 2.8 3.203.667.684 2.147 2.335 3.289 3.668 1.142 1.333 2.672 3.05 3.4 3.815.728.765 1.683 1.845 2.123 2.4.822 1.038 4.34 5.072 7.237 8.301a350.54 350.54 0 0 1 2.8 3.157c.64.733 1.907 2.123 2.816 3.088a97.658 97.658 0 0 1 3.398 3.867c.96 1.162 1.926 2.309 2.147 2.551.221.241 1.482 1.67 2.802 3.176 3.427 3.91 6.768 7.64 9.144 10.208 5.736 6.203 8.679 10.864 4.339 6.873-.301-.277-.693-.414-.87-.304-.177.11-.545-.069-.817-.396-.272-.328-.727-.596-1.012-.596-.284 0-.577-.167-.651-.37-.073-.204-.673-.475-1.333-.603-.66-.127-.975-.126-.7.004s.5.51.5.845c0 .387.227.522.621.371.341-.131.54-.105.442.058-.099.162.072.527.379.811.307.283.558.4.558.258 0-.141.65.314 1.444 1.011.795.698 1.875 1.432 2.4 1.632.526.2.956.548.956.773 0 .226.248.41.551.41.303 0 .773.268 1.045.596.272.327.634.509.804.404.17-.105.532.077.804.404.272.328.832.596 1.245.596.413 0 .751.21.751.467 0 .256.101.365.224.242.124-.123.655.207 1.182.733.997.998 1.794 1.245 1.794.558 0-.22-.144-.4-.319-.4-.481 0-4.348-3.824-7.281-7.2a613.189 613.189 0 0 0-7.207-8.185c-2.09-2.331-7.242-8.173-8.993-10.198-.66-.763-2.015-2.294-3.011-3.402a722.934 722.934 0 0 1-4.446-5.015c-6.421-7.313-9.406-10.697-10.582-12-.696-.77-2.771-3.121-4.613-5.225a4194.59 4194.59 0 0 0-10.348-11.743c-11.902-13.463-14.381-17.645-16.621-28.032-1.073-4.978-.601-20.643.662-21.98.197-.209.359-.796.359-1.305 0-.509.162-1.238.361-1.62.199-.382.601-1.505.894-2.495 2.091-7.064 7.712-15.533 16.326-24.599 21.664-22.801 23.84-24.648 34.219-29.046 2.663-1.129 8.614-2.252 13.574-2.562 2.37-.148 7.506.607 8.526 1.254.695.442.898.456.891.062-.015-.872-1.316-2.157-3.191-3.153-.99-.526-1.89-1.046-2-1.157-.53-.531-3.499-1.701-4.678-1.842-.484-.058-1.288-.325-1.789-.593-1.146-.613-13.886-.982-14.697-.425M225.35 207.8c.001 2.42.066 3.358.146 2.085.08-1.273.079-3.253-.002-4.4-.08-1.147-.145-.105-.144 2.315m-.383 13.2c0 4.18.059 5.836.131 3.679.073-2.156.072-5.576 0-7.6-.073-2.023-.132-.259-.131 3.921m-8.367 4.864c.44.093 1.16.323 1.6.512 2.52 1.079 3.727 1.685 4.8 2.409.66.445 1.335.811 1.5.812.571.005.297-.609-.446-1.002-.411-.217-1.672-.894-2.803-1.503-1.131-.609-2.82-1.173-3.753-1.252-.934-.08-1.338-.068-.898.024m59.846 23.403c-.025.367-.15.997-.276 1.4-.218.695-.207.696.227.02.251-.391.376-1.021.276-1.4-.162-.619-.185-.621-.227-.02m-130.923 1.163c-.078.237-.314.43-.523.43-.209 0-.444-.193-.523-.43-.079-.236.156-.43.523-.43s.602.194.523.43m2.177 1.016c.385.136.7.406.7.601 0 .194.36.353.8.353.44 0 .8.18.8.4 0 .22.396.4.88.4.694 0 .777.103.39.49-.357.357-.677.374-1.18.062-.379-.235-1.14-.68-1.69-.99-.55-.309-1.11-.712-1.245-.896-.134-.184-.4-.305-.59-.27-.19.035-.417-.152-.505-.416-.095-.286.063-.379.39-.23.303.137.865.361 1.25.496m31.658 2.254c-1.227 1.329-2.661 3.222-1.895 2.5.854-.805 3.425-3.8 3.262-3.8-.092 0-.708.585-1.367 1.3M148.8 266.624c0 .563-.163.922-.362.799-.2-.123-.269-.584-.154-1.023.288-1.101.516-1.002.516.224m24.134 2.976c0 1.65.071 2.325.157 1.5.087-.825.087-2.175 0-3-.086-.825-.157-.15-.157 1.5m91.911 4.8c-.036 1.028 1.11 2.611 4.355 6.014.99 1.038 2.374 2.585 3.076 3.437.702.852 1.962 2.306 2.8 3.232 8.555 9.449 8.562 9.461 4.332 7.136-1.382-.759-2.624-1.269-2.76-1.133-.137.136-.248.028-.248-.24 0-.532-2.748-1.831-3.11-1.469-.123.122-.013.223.243.223.257 0 .467.236.467.525 0 .288.33.878.732 1.31.403.433.702 1.203.664 1.713-.037.509.184 1.023.493 1.141.328.126.515.65.45 1.264-.06.576.047 1.3.238 1.609.237.384.2.471-.115.276-.275-.17-.462-.028-.462.351 0 .35.225.722.5.828.452.174.501.694.347 3.707-.026.508-.227.812-.447.676s-.4-.057-.4.176c0 .233.202.424.449.424.312 0 .298.182-.045.595-.271.327-.384.88-.25 1.229.134.349.026 1.026-.239 1.505-.266.479-.437 1.096-.381 1.371.055.275-.087.5-.316.5-.23 0-.418.234-.418.52 0 .736-.941 2.673-1.3 2.677-.165.002-.3.185-.3.408 0 .223-1.665 2.088-3.7 4.146-2.035 2.057-5.32 5.5-7.3 7.651-1.98 2.15-5.805 6.169-8.5 8.929-2.695 2.76-4.9 5.178-4.9 5.372 0 .747-5.063 4.297-6.128 4.297-.281 0-.686.174-.899.387-.212.212-.982.431-1.71.487-.728.055-1.411.241-1.517.413-.106.172-.813.313-1.57.313-3.544 0 1.137 4.183 6.652 5.944 1.688.539 6.344.604 7.653.107a61.236 61.236 0 0 1 2.519-.857c2.409-.766 5.692-3.011 7.757-5.304 2.181-2.422 7.466-8.03 13.082-13.882 12.859-13.397 13.861-15.094 13.861-23.471 0-7.273-.758-8.547-13.896-23.376a1231.276 1231.276 0 0 0-4.8-5.4c-2.277-2.476-4.453-5.237-4.664-5.92-.238-.77-.263-.757-.295.159m-91.217.892c-.046.473 1.258 3.556 1.43 3.383.087-.087-.192-.95-.621-1.917-.429-.967-.793-1.627-.809-1.466m-24.828 2.775c0 1.456-.175 1.403-.551-.167-.157-.653-.099-1.1.143-1.1.225 0 .408.57.408 1.267m26.764 1.866c.216.403.707.988 1.091 1.3.432.351.335.071-.254-.733-1.05-1.435-1.444-1.702-.837-.567M181 286.4c.859.88 1.652 1.6 1.762 1.6.11 0-.503-.72-1.362-1.6-.859-.88-1.652-1.6-1.762-1.6-.11 0 .503.72 1.362 1.6m1.8 2.125c0 .069.585.654 1.3 1.3l1.3 1.175-1.175-1.3c-1.095-1.212-1.425-1.484-1.425-1.175m5.202 5.877c1.144 1.321 2.287 2.528 2.539 2.681.253.154-.598-.926-1.89-2.401-1.292-1.475-2.435-2.682-2.539-2.682-.105 0 .745 1.081 1.89 2.402m55.703 85.885c.609.092 1.509.09 2-.005.492-.095-.005-.171-1.105-.168-1.1.003-1.503.081-.895.173"/><path fill="#165371" d="M225.75 203.8c.001 2.42.066 3.358.146 2.085.08-1.273.079-3.253-.002-4.4-.08-1.147-.145-.105-.144 2.315m-.426 10.4c.002 1.32.077 1.812.166 1.093.089-.719.087-1.799-.004-2.4s-.164-.013-.162 1.307M215.2 226.231c0 .128.681.893 1.513 1.7.832.808 1.95 2.09 2.485 2.85 3.21 4.561 5.342 5.11 5.513 1.419.122-2.655.196-2.57-4.111-4.707a592.38 592.38 0 0 1-2.295-1.143c-.774-.39-3.105-.479-3.105-.119m-70.246 11.898c-.24.479-.968 1.861-1.618 3.071-1.518 2.828-1.801 3.6-1.323 3.6.213 0 .387-.36.387-.8 0-.44.18-.8.4-.8.22 0 .4-.36.4-.8 0-.44.18-.8.4-.8.22 0 .4-.36.4-.8 0-.44.136-.8.302-.8.34 0 1.468-2.364 1.238-2.594-.082-.081-.345.244-.586.723m-4.632 10.071c-.972 2.99-1.216 3.912-2.271 8.6-.945 4.193-.786 14.945.287 19.4 1.424 5.919 3.28 10.533 5.647 14.04.675.999 1.131 1.972 1.014 2.161-.269.436 1.615 3.251 1.951 2.915.138-.137.25-.026.25.246s.225.733.5 1.025c.275.291.95 1.108 1.5 1.815.55.707 1.81 2.148 2.8 3.203 3.73 3.972 5.6 6.037 5.6 6.183 0 .083.495.66 1.1 1.282.605.623 1.73 1.924 2.5 2.891.77.967 1.944 2.316 2.608 2.998a47.832 47.832 0 0 1 2.344 2.641c1.544 1.901 5.611 6.423 8.048 8.947 1.1 1.139 3.069 3.405 4.375 5.034 2.632 3.282 4.03 4.846 7.725 8.638 1.375 1.412 2.5 2.729 2.5 2.927 0 .199 1.125 1.541 2.5 2.983 1.375 1.442 3.039 3.308 3.698 4.147.659.838 2.117 2.514 3.241 3.724 1.123 1.21 2.384 2.626 2.802 3.147 1.908 2.379 4.573 4.854 5.233 4.859.442.004.554.121.287.3-.29.194-.12.604.5 1.208.668.65.939.746.939.333 0-.319-.225-.686-.5-.816-.275-.13.04-.131.7-.004.66.128 1.26.399 1.333.603.074.203.367.37.651.37.285 0 .74.268 1.012.596.272.327.64.506.817.396.177-.11.569.027.87.304 4.34 3.991 1.397-.67-4.339-6.873-2.376-2.568-5.717-6.298-9.144-10.208a426.85 426.85 0 0 0-2.802-3.176 127.553 127.553 0 0 1-2.147-2.551 97.658 97.658 0 0 0-3.398-3.867 136.64 136.64 0 0 1-2.816-3.088 350.54 350.54 0 0 0-2.8-3.157c-2.897-3.229-6.415-7.263-7.237-8.301-.44-.555-1.395-1.635-2.123-2.4-.728-.765-2.258-2.482-3.4-3.815-1.142-1.333-2.622-2.984-3.289-3.668-.667-.684-1.927-2.125-2.8-3.203a75.03 75.03 0 0 0-3.113-3.575 70.841 70.841 0 0 1-2.8-3.176c-2.021-2.476-4.59-5.038-5.052-5.038-.233 0-.423-.142-.423-.315 0-.173-.38-.343-.845-.378-.464-.035-1.184-.372-1.6-.748-.415-.375-.758-.52-.761-.321-.003.199-.138.182-.3-.038-.261-.356-.807-.689-3.879-2.371-1.342-.734-1.822-1.345-1.571-1.999.133-.347.042-.63-.201-.63-.244 0-.443-.27-.443-.6 0-.33-.18-.6-.4-.6-.22 0-.4-.32-.4-.712 0-.391-.36-.971-.8-1.288-.44-.317-.8-.897-.8-1.288 0-.392-.18-.712-.4-.712-.22 0-.4-.345-.4-.767 0-.421-.135-.826-.3-.9-.43-.191-2.509-6.361-2.504-7.433.002-.495-.159-.9-.357-.9-.836 0-1.643-17.034-.881-18.591.218-.445.477-1.529.575-2.409.526-4.726 1.807-7.88 2.85-7.014.339.282.62.355.623.163.003-.192.163-.102.354.2.191.302.593.457.894.344.332-.124-.022-.45-.905-.833-1.561-.677-2.133-1.516-1.48-2.169.223-.223.336-.74.249-1.149-.089-.421-.605.64-1.196 2.458m4.155 2.23c.079.237.314.43.523.43.209 0 .445-.193.523-.43.079-.236-.156-.43-.523-.43s-.602.194-.523.43m1.583.75c.088.264.315.451.505.416.19-.035.456.086.59.27.135.184.695.587 1.245.896.55.31 1.311.755 1.69.99.503.312.823.295 1.18-.062.387-.387.304-.49-.39-.49-.484 0-.88-.18-.88-.4 0-.22-.36-.4-.8-.4-.44 0-.8-.159-.8-.353 0-.195-.315-.465-.7-.601a18.751 18.751 0 0 1-1.25-.496c-.327-.149-.485-.056-.39.23m2.224 15.22c-.115.439-.046.9.154 1.023.199.123.362-.236.362-.799 0-1.226-.228-1.325-.516-.224m114.998 9.62c-2.176 2.591-2.066 2.819 4.955 10.362a207.056 207.056 0 0 1 3.557 3.907c.615.709 1.265 1.198 1.445 1.087.505-.312 3.161.923 3.161 1.47 0 .268.111.376.248.24.136-.136 1.378.374 2.76 1.133 4.23 2.325 4.223 2.313-4.332-7.136-.838-.926-2.098-2.38-2.8-3.232-.702-.852-2.086-2.402-3.076-3.445-2.525-2.659-3.653-4.018-4.181-5.035-.448-.864-.476-.854-1.737.649m-115.033 1.88c.376 1.57.551 1.623.551.167 0-.697-.183-1.267-.408-1.267-.242 0-.3.447-.143 1.1m125.981 14.851c-.215.348.854 2.849 1.217 2.849.353 0-.046-1.398-.551-1.932-.277-.293-.401-.698-.276-.9.125-.203.137-.368.027-.368-.11 0-.298.158-.417.351m-85.83 1.774c0 .069.585.654 1.3 1.3L191 297l-1.175-1.3c-1.095-1.212-1.425-1.484-1.425-1.175m87.206 2.375c.014 1.142.782 1.726.788.6.003-.605-.174-1.1-.394-1.1-.22 0-.397.225-.394.5m.794 6.167c0 1.246.102 2.164.227 2.039.356-.355.434-4.306.085-4.306-.172 0-.312 1.02-.312 2.267m-67.833 61.386c-.153.249.007.613.357.808.35.196.87.586 1.156.867.678.665 4.197 3.072 4.492 3.072.637 0 .104-.867-.728-1.183-.525-.2-1.605-.934-2.4-1.632-.794-.697-1.444-1.152-1.444-1.011 0 .142-.251.025-.558-.258-.307-.284-.476-.651-.376-.816.099-.165.091-.3-.019-.3s-.326.204-.48.453m6.633 5.049c0 .167.585.56 1.3.874.715.314 2.153 1.072 3.195 1.685 1.546.908 1.808.972 1.42.352-.261-.419-.619-.672-.795-.564-.176.109-.32.008-.32-.225s-.338-.424-.751-.424-.973-.268-1.245-.596c-.272-.327-.634-.509-.804-.404-.17.105-.532-.077-.804-.404-.525-.633-1.196-.798-1.196-.294"/><path fill="#444" d="M236.623 35.035c-.311.311-1.029.565-1.594.565-.566 0-1.029.18-1.029.4 0 .22-.54.4-1.2.4-.66 0-1.2.18-1.2.4 0 .22-.54.4-1.2.4-.66 0-1.2.18-1.2.4 0 .22-.54.4-1.2.4-.66 0-1.2.18-1.2.4 0 .22-.45.4-1 .4s-1 .18-1 .4c0 .22.36.4.8.4.44 0 .8.18.8.4 0 .22.27.4.6.4.33 0 .6.18.6.4 0 .22.236.4.525.4.288 0 .873.322 1.3.717.426.394 1.675 1.327 2.775 2.073 1.1.747 2.09 1.468 2.2 1.603.11.135.817.677 1.571 1.204 14.059 9.829 28.277 33.07 29.91 48.888.144 1.398.391 1.947.957 2.127.792.251 1.062.988.362.988-.22 0-.4.54-.4 1.2 0 .66.18 1.2.4 1.2.22 0 .4-.18.4-.4 0-.22.54-.4 1.2-.4.66 0 1.2-.18 1.2-.4 0-.22.54-.4 1.2-.4.66 0 1.2-.18 1.2-.4 0-.22.54-.4 1.2-.4.66 0 1.2-.18 1.2-.4 0-.22.54-.4 1.2-.4.66 0 1.2-.18 1.2-.4 0-.22.45-.4 1-.4s1-.18 1-.4c0-.22.36-.4.8-.4.622 0 .8-.267.8-1.2 0-.66-.174-1.2-.387-1.2-.214 0-.28-.282-.147-.627.17-.444.365-.502.667-.2.61.61 1.25.529.734-.093-.238-.286-.429-1.591-.425-2.9.004-1.309-.194-3.28-.44-4.38a84.143 84.143 0 0 1-.668-3.304c-.122-.717-.383-1.402-.578-1.523-.196-.121-.356-.649-.356-1.173s-.18-1.064-.4-1.2c-.22-.136-.4-.687-.4-1.224 0-.537-.18-.976-.4-.976-.22 0-.4-.439-.4-.976 0-.537-.18-1.088-.4-1.224-.22-.136-.4-.597-.4-1.024 0-.427-.18-.776-.4-.776-.22 0-.4-.272-.4-.605 0-.333-.167-.918-.371-1.3-.433-.812-.907-2.227-.821-2.45.033-.086-.105-.266-.308-.4-.203-.135-1.143-1.595-2.09-3.245-.947-1.65-1.996-3.316-2.33-3.703a11.034 11.034 0 0 1-1.044-1.465c-.24-.419-1.01-1.58-1.711-2.58-1.19-1.697-2.102-2.771-5.125-6.038-.66-.714-1.679-1.818-2.264-2.456-.585-.637-1.725-1.698-2.532-2.358a80.545 80.545 0 0 1-3.085-2.7c-.89-.825-1.751-1.5-1.914-1.5-.163 0-.906-.542-1.651-1.204-.745-.663-2.299-1.691-3.454-2.284-1.155-.594-2.1-1.216-2.1-1.383 0-.167-.241-.211-.536-.098-.295.113-.765-.071-1.045-.408-.28-.338-.674-.512-.875-.388-.202.124-.715-.193-1.142-.704-.426-.512-.781-.721-.789-.464-.007.256.212.547.487.645.275.098.381.308.235.465-.146.158-.739-.023-1.317-.402-1.377-.902-2.89-1.046-3.595-.34M141.56 83.112c-.308.083-.83.262-1.16.397-.33.135-.78.27-1 .3-.22.03-1.48.562-2.8 1.182-1.32.62-2.67 1.179-3 1.242-.33.062-1.635.424-2.9.804l-2.3.69-.026 13.036c-.026 13.041-.145 16.944-.537 17.577-.115.185-.229 7.115-.255 15.399-.025 8.283-.196 15.061-.379 15.061s-.356 6.21-.384 13.8c-.051 13.642-.042 13.8.765 13.8 1.005 0 1.082.805.101 1.062-.786.205-1.808 3.615-1.197 3.993.193.119.166.439-.06.711-.263.317-.42 5.691-.438 14.952-.015 7.952-.171 14.547-.346 14.655-.176.109-.357 2.724-.402 5.812l-.083 5.615h.997c.548 0 1.108-.18 1.244-.4.136-.22.687-.4 1.224-.4.537 0 .976-.18.976-.4 0-.22.439-.4.976-.4.537 0 1.088-.18 1.224-.4.136-.22.676-.4 1.2-.4.524 0 1.045-.149 1.158-.332.112-.182 1.165-.562 2.339-.843 2.872-.689 3.669-1.31 3.344-2.605-.141-.561-.106-1.02.077-1.02s.376-.843.43-1.874c.053-1.031.204-2.049.336-2.262.143-.231.026-.256-.29-.06-.368.227-.463.152-.31-.246.121-.315.098-1.29-.05-2.166-.149-.875-.131-2.363.038-3.306.642-3.56.782-5.766.35-5.5-.232.144-.422.081-.422-.139 0-.22.144-.489.319-.597.642-.397.338-6.06-.319-5.944-.526.093-.525.043.009-.4.427-.354.628-1.346.672-3.306.034-1.54.145-4.06.248-5.6.117-1.771.017-3.011-.272-3.375-.362-.455-.331-.528.151-.348.486.182.606-.123.6-1.525-.005-1.112-.187-1.752-.498-1.752-.33 0-.393-.294-.191-.9.164-.495.283-1.26.265-1.7-.019-.44.146-1.039.365-1.33.276-.367.24-.63-.117-.85-.382-.236-.396-.395-.055-.606.343-.212.328-.45-.058-.926-.389-.481-.394-.566-.019-.341.315.189.5.069.5-.323 0-.343-.191-.624-.424-.624-.244 0-.287-.211-.1-.5.47-.726.48-12.3.011-12.3-.241 0-.245-.187-.011-.5.206-.275.341-1.4.301-2.5-.041-1.1.098-2.216.307-2.481.21-.264.266-.848.123-1.296-.142-.449-.115-1.042.06-1.319.43-.68.519-2.704.12-2.704-.176 0-.413.225-.527.5-.207.503.029-1.494.382-3.234.119-.582.034-.836-.226-.676-.229.142-.416.067-.416-.166s.258-.424.574-.424c.545 0 .533-1.579-.018-2.472-.112-.18-.051-.328.134-.328.186 0 .358-2.835.382-6.3.078-10.95.281-15.299.716-15.313.227-.007.063-.277-.364-.6-.678-.512-.69-.587-.1-.587.372 0 .676-.191.676-.424 0-.233-.193-.304-.43-.158-.236.146-.191-.119.1-.588.448-.723.438-.913-.07-1.236-.33-.21-.429-.385-.22-.388.209-.003.164-.222-.1-.486s-.477-.759-.474-1.1c.005-.532.059-.537.374-.039.241.381.324-.187.242-1.659-.068-1.232-.237-2.423-.376-2.647-.138-.224-.047-.475.202-.558.675-.225.908-11.17.247-11.59-.369-.235-.342-.323.105-.349.404-.023.339-.146-.2-.378-.684-.294-.699-.348-.1-.372.724-.029.949-2.476.822-8.928-.025-1.279.115-2.201.317-2.076.198.123.361-.021.361-.32 0-.52-1.235-.719-2.44-.392m133.352 12.774c-.216.562-1.712.72-1.712.181 0-.516.294-.696 1.136-.696.466 0 .695.205.576.515m-2.399.796c-.242.63-2.113.697-2.113.075 0-.243.279-.335.621-.204.341.131.517.071.391-.133-.126-.205.115-.346.535-.314.449.034.683.272.566.576m-2.513.942c0 .207-.45.376-1 .376-1.138 0-1.358-.66-.3-.9.827-.188 1.3.002 1.3.524m11 5.081c-.44.078-1.07.25-1.4.382-.33.132-.77.2-.978.151-.347-.083-1.323.296-3.117 1.209a3.88 3.88 0 0 1-1.476.353c-.43 0-.893.18-1.029.4-.136.22-.651.4-1.144.4-.493 0-1.067.149-1.276.33-.209.182-1.129.566-2.044.853l-1.664.521-.244 7.848a4961.36 4961.36 0 0 0-.634 23.448l-.801 32c-.226 9.02-.585 23.6-.797 32.4-.62 25.631-.771 28.693-1.435 29.179-.703.514-.665 14.885.039 14.737.22-.046.455-.432.522-.857.089-.564.346-.714.951-.556.513.134.961-.02 1.177-.406.209-.375.665-.54 1.144-.414.497.129.886-.026 1.034-.412.134-.348.499-.52.832-.393.327.126.987.041 1.467-.189.48-.229 1.218-.529 1.64-.666.594-.193.659-.357.29-.726-.369-.369-.654-.366-1.262.013-.431.27-1.136.49-1.566.49-.43 0-.893.18-1.029.4-.136.22-.676.4-1.2.4-.524 0-1.064.18-1.2.4-.136.22-.721.4-1.3.4-1.012 0-1.023-.023-.276-.587.427-.323 1.17-.593 1.652-.6.482-.007.988-.193 1.124-.413.136-.22.687-.4 1.224-.4.537 0 .976-.18.976-.4 0-.22.431-.4.957-.4.527 0 1.061-.27 1.188-.6.126-.33.506-.6.842-.6.337 0 .613-.18.613-.4 0-.22.302-.4.672-.4.632 0 2.179-.434 4.578-1.284 1.109-.393 1.668-3.749.722-4.334-.252-.155-.271-.611-.051-1.215.193-.532.335-2.435.315-4.229-.02-1.793.088-3.185.239-3.091.151.093.191-.293.089-.859-.103-.565-.058-1.236.1-1.491.479-.776.506-2.268.046-2.552-.277-.172-.317-.079-.11.255.214.346.167.427-.138.238-.566-.35-.616-1.838-.062-1.838.22 0 .4.21.4.467 0 .256.116.351.257.209.141-.141.03-.53-.247-.864-.278-.334-.41-.969-.295-1.409.116-.441.076-.885-.087-.986-.49-.303-.213-1.855.4-2.243.434-.274.445-.363.048-.368-.288-.003-.401-.203-.252-.445.52-.841.567-9.16.052-9.167-.311-.004-.283-.128.078-.357.633-.401.296-2.43-.486-2.927-.321-.204-.273-.3.152-.304.512-.005.606-.543.544-3.106-.041-1.705.067-3.28.241-3.5.174-.22.267-1.349.208-2.509-.059-1.16.042-2.201.225-2.314.183-.113-.018-.829-.446-1.591-.444-.791-.591-1.386-.342-1.386.239 0 .328-.279.197-.621-.153-.399-.076-.521.216-.34.322.199.367-.056.157-.879-.386-1.507-.494-4.13-.162-3.924.142.087.367-.124.5-.471.334-.871.329-.884-.458-1.089-.667-.174-.667-.185 0-.23.807-.053.883-.556.26-1.721-.273-.51-.285-.726-.031-.569.572.354.478-7.063-.095-7.45-.278-.188-.219-.298.166-.306.497-.01.505-.072.049-.361-.355-.225-.426-.544-.201-.894.193-.3.382-1.445.42-2.545.038-1.1.139-2.775.225-3.723s.001-1.819-.188-1.936c-.189-.117-.122-.48.15-.807.397-.479.353-.856-.225-1.931-.396-.734-.623-1.575-.506-1.869.117-.294.227-.118.244.39.019.542.207.815.455.662.243-.151.315-.758.169-1.424-.155-.706-.091-1.162.164-1.162.23 0 .316-.269.19-.598-.127-.328-.39-.498-.587-.377-.196.121-.168-.275.062-.881.531-1.397.765-4.583.317-4.306-.186.115-.338.029-.338-.191s.189-.516.419-.659c.287-.177.29-.415.01-.753-.283-.341-.264-.64.061-.965.36-.36.347-.47-.057-.47-.512 0-.469-.563.164-2.1.213-.515.093-.707-.454-.728-.59-.022-.619-.084-.143-.3.846-.383.865-2.862.02-2.575-.389.132-.327-.017.165-.4.667-.519.705-.707.251-1.254-.384-.462-.414-.787-.107-1.157.369-.445.55-2.446.48-5.286-.019-.792.007-1.84.076-3 .02-.33.218-.718.439-.863.508-.331-.458-2.825-.97-2.508-.195.12-.351-.197-.348-.705.005-.761.081-.818.428-.324.324.46.386.297.264-.7-.187-1.521-.017-1.66.49-.4.258.644.369.709.387.229.014-.37-.243-.94-.571-1.268-.353-.353-.428-.653-.183-.735.228-.076.408-.495.401-.932-.038-2.188.032-5.778.141-7.282.078-1.065-.026-1.596-.282-1.439-.238.147-.281.05-.104-.236.692-1.119.674-2.917-.036-3.702-.514-.568-.558-.757-.156-.665.369.085.6-.274.67-1.039.138-1.503-.253-2.104-1.255-1.926m-54.08 2.495c0 1.21.075 1.705.167 1.1a8.899 8.899 0 0 0 0-2.2c-.092-.605-.167-.11-.167 1.1m-.027 9.6c0 .77.082 1.085.183.7.1-.385.1-1.015 0-1.4-.101-.385-.183-.07-.183.7m-.751 27.4c-.001 1.98.066 2.84.15 1.912.084-.928.085-2.548.003-3.6-.083-1.052-.152-.292-.153 1.688m-.022 15.8c0 1.21.075 1.705.167 1.1a8.899 8.899 0 0 0 0-2.2c-.092-.605-.167-.11-.167 1.1m-86.318 14.803c.137.221-.04.514-.394.649-.766.294-1.193-.03-.824-.625.332-.538.894-.549 1.218-.024m-2.835.64c.974.373.75.957-.367.957-.971 0-1.277-.389-.733-.933.324-.325.317-.325 1.1-.024m-1.455 1.292c.091.273-.271.465-.879.465-.972 0-1.317-.382-.806-.894.368-.368 1.516-.076 1.685.429m-2.312.908c0 .457-1.085.467-1.366.013-.117-.19-.11-.447.016-.573.312-.312 1.35.118 1.35.56m-2.617.329c.296.479-.457.953-.99.624-.447-.277-.153-.996.407-.996.194 0 .456.168.583.372m94.751 14.828c0 1.65.071 2.325.157 1.5.087-.825.087-2.175 0-3-.086-.825-.157-.15-.157 1.5m.352 19.838a732.55 732.55 0 0 1-.271 7.2c-.161 3.809-.135 4.058.205 1.962.214-1.32.336-4.56.271-7.2-.066-2.707-.156-3.562-.205-1.962M139.4 222.4c-.15.473-.377.756-.505.629-.127-.128-.641.037-1.142.365-.564.369-1.005.446-1.156.202-.387-.627-.996-.46-.742.204.148.385-.008.6-.436.6-.426 0-.558-.18-.366-.5.332-.552-1.06.438-1.547 1.1-.18.246-.296.202-.3-.114-.004-.36-.216-.406-.706-.154-.385.198-.95.271-1.256.162-.339-.121-.447-.022-.276.254.163.264.014.452-.357.452-.35 0-.735.259-.857.575a.615.615 0 0 1-.792.355c-.315-.121-.869.026-1.232.325-.564.466-.632.458-.465-.055.107-.33.777-.792 1.488-1.028 1.29-.426 1.58-.8 1.016-1.305-.163-.147-.168-.042-.01.233.208.36-.11.5-1.135.5-.783 0-1.424.18-1.424.4 0 .22-.193.4-.429.4-.519 0-1.334.836-1.471 1.51-.055.269.046.49.224.49s.337.902.353 2.003c.017 1.102.206 2.227.421 2.5.214.274.498 1.069.63 1.768.804 4.252 9.181 15.729 11.48 15.729.216 0 .404.675.418 1.5.026 1.463.041 1.447.6-.631.753-2.8 2.373-6.817 3.877-9.617 2.626-4.89 2.495-4.309 1.443-6.385-.52-1.027-1.081-1.927-1.246-2-.165-.074-.3-.479-.3-.9 0-.422-.18-.767-.4-.767-.22 0-.4-.349-.4-.776 0-.427-.18-.888-.4-1.024-.22-.136-.4-.777-.4-1.424 0-.647-.2-1.176-.444-1.176-.27 0-.381-.538-.283-1.372.091-.783-.012-1.341-.241-1.3-.221.04-.417-.416-.435-1.013-.044-1.427-.454-1.795-.797-.715m85.528 9.2c0 1.43.073 2.015.161 1.3.089-.715.089-1.885 0-2.6-.088-.715-.161-.13-.161 1.3m46.098 13.958c-.266.43.893.939 1.41.62.2-.124.364-.395.364-.602 0-.479-1.48-.494-1.774-.018m-2.226.799c0 .197.225.44.5.541.703.259 1.55-.094 1.279-.532-.291-.471-1.779-.479-1.779-.009m-2.4.8c0 .461.857.775 1.5.551.872-.304.54-.908-.5-.908-.55 0-1 .161-1 .357m-2.2.843c-.14.227.196.4.776.4.563 0 1.024-.18 1.024-.4 0-.22-.349-.4-.776-.4-.427 0-.888.18-1.024.4m9.4 0c0 .22.36.4.8.4.44 0 .8-.18.8-.4 0-.22-.36-.4-.8-.4-.44 0-.8.18-.8.4m-11.586 1.174c-1.068 1.996-.362 4.382.99 3.345.551-.423.642-.669.296-.798-.591-.222-.682-2.521-.1-2.521.22 0 .4-.18.4-.4 0-.702-1.156-.429-1.586.374m9.186-.374c0 .22.36.4.8.4.44 0 .8-.18.8-.4 0-.22-.36-.4-.8-.4-.44 0-.8.18-.8.4m-2.4.8c0 .22.36.4.8.4.44 0 .8-.18.8-.4 0-.22-.36-.4-.8-.4-.44 0-.8.18-.8.4m-2 .8c0 .22.36.4.8.4.44 0 .8-.18.8-.4 0-.22-.36-.4-.8-.4-.44 0-.8.18-.8.4m-2.4.8c0 .22.36.4.8.4.44 0 .8-.18.8-.4 0-.22-.36-.4-.8-.4-.44 0-.8.18-.8.4m9.2 0c0 .22.27.4.6.4.33 0 .6-.18.6-.4 0-.22-.27-.4-.6-.4-.33 0-.6.18-.6.4m-2.4.8c0 .22.27.4.6.4.33 0 .6-.18.6-.4 0-.22-.27-.4-.6-.4-.33 0-.6.18-.6.4m-2.4.8c0 .22.259.4.576.4.317 0 .688-.18.824-.4.136-.22-.123-.4-.576-.4-.453 0-.824.18-.824.4m-130.551 1.015c-.137.358-.228 1.131-.203 1.718.034.799.124.665.358-.533.331-1.7.258-2.26-.155-1.185M266.4 253.6c0 .22.259.4.576.4.317 0 .688-.18.824-.4.136-.22-.123-.4-.576-.4-.453 0-.824.18-.824.4m-87.739 1.44c-1.033 1.417-.661 1.502.469.107.512-.631.782-1.141.6-1.134-.181.006-.663.469-1.069 1.027m82.359-.726c-.374.374-.242 2.025.183 2.288.221.137.511-.033.643-.377s.49-.625.797-.625c.306 0 .556-.135.554-.3-.004-.404-1.9-1.263-2.177-.986m3.18.086c.136.22.507.4.824.4.317 0 .576-.18.576-.4 0-.22-.371-.4-.824-.4-.453 0-.712.18-.576.4m6.52.88c.373.373.587.373.96 0s.267-.48-.48-.48-.853.107-.48.48m-10.586 2.947c-.132.345-.042.825.2 1.067.32.32.51.258.696-.227.14-.367.551-.68.913-.695.513-.022.482-.104-.143-.372-1.167-.501-1.398-.47-1.666.227M137.328 261.2c0 1.43.073 2.015.161 1.3.089-.715.089-1.885 0-2.6-.088-.715-.161-.13-.161 1.3m122.047-.673c-.406 1.048.289 1.578 1.457 1.111.532-.213.718-.399.412-.413-.306-.014-.788-.34-1.071-.725-.49-.664-.53-.663-.798.027m-.702 2.134c-.493.492-.286 1.339.327 1.339.667 0 .75-.345.267-1.106-.177-.278-.444-.383-.594-.233M136.901 265.8c.004.88.086 1.193.182.695.096-.497.092-1.217-.008-1.6-.1-.382-.179.025-.174.905m120.759-.62c.088.264.29.467.45.45.478-.049.386-.598-.13-.77-.264-.088-.408.056-.32.32m-120.326 5.22c0 1.65.071 2.325.157 1.5.087-.825.087-2.175 0-3-.086-.825-.157-.15-.157 1.5m35.959-.8c0 .77.082 1.085.183.7.1-.385.1-1.015 0-1.4-.101-.385-.183-.07-.183.7m-35.247 6.481c-.025.595.122 1.495.326 2 .205.506.484 1.435.62 2.066.136.631.318 1.076.405.989.087-.087-.025-.873-.25-1.747-.224-.874-.553-2.219-.731-2.989-.288-1.246-.329-1.281-.37-.319m43.154 9.841c0 .209.299.627.665.929.366.302 1.716 1.769 3 3.259 1.284 1.491 2.335 2.586 2.335 2.435 0-.152-1.123-1.552-2.497-3.111-3.322-3.771-3.503-3.953-3.503-3.512m6.4 7.403c0 .069.585.654 1.3 1.3l1.3 1.175-1.175-1.3c-1.095-1.212-1.425-1.484-1.425-1.175"/></g></svg>