<svg xmlns="http://www.w3.org/2000/svg" id="Layer_1" x="0" y="0" style="enable-background:new 0 0 396.1 409" version="1.1" viewBox="0 0 396.1 409" xml:space="preserve"><style></style><linearGradient id="SVGID_1_" x1="22.205" x2="372.282" y1="343.781" y2="61.918" gradientUnits="userSpaceOnUse"><stop offset="0" style="stop-color:#5105cf"/><stop offset="1" style="stop-color:#444efc"/></linearGradient><path d="M359.8 77.8 225.3 27c-4.9-1.8-10.6-1.1-14.8 2l-42.4 30.7-21.9 16.6L97 112l140.2 53.9c6.6 2.6 11 9.1 11 16.1v77.3c0 8.2-4 15.7-10.4 20.5l-9.7 7.1v-88.3c0-7.3-4.4-13.7-11.3-16.1l-130-49.3c-7.7-2.9-16.3-1.8-23 3.1l-38.6 28 140.2 53.9c6.6 2.6 11 9.1 11 16.1V383l51.4-37.3 20.1-15 44.8-32.5c4.2-3.1 6.6-7.9 6.6-13V146.5c0-7.3-4.4-13.7-11.3-16.1l-91.9-35.1 11.3-8.4c6.6-4.9 15.5-6.2 23.2-3.1l77.5 29.8c6.6 2.6 11 9.1 11 16.1v148.6l40.6-29.6c6.8-4.9 10.8-12.8 10.8-21.2V93.9c.5-7-4.1-13.4-10.7-16.1z" style="fill:url(#SVGID_1_)"/><linearGradient id="SVGID_2_" x1="2.974" x2="353.051" y1="319.896" y2="38.032" gradientUnits="userSpaceOnUse"><stop offset="0" style="stop-color:#5105cf"/><stop offset="1" style="stop-color:#444efc"/></linearGradient><path d="m100.1 263.3-42.4-17c-1.5-.7-3.5-.7-5.1 0-1.5.7-2.9 2-3.5 3.5-.7 1.5-.7 3.5 0 5.1.7 1.5 2 2.9 3.5 3.5l42.4 17c.9.2 1.5.4 2.4.4 2.6 0 5.1-1.5 6.2-4.2.7-1.5.7-3.5 0-5.1-.4-1.2-1.7-2.5-3.5-3.2z" style="fill:url(#SVGID_2_)"/><linearGradient id="SVGID_3_" x1="19.41" x2="369.488" y1="340.31" y2="58.447" gradientUnits="userSpaceOnUse"><stop offset="0" style="stop-color:#5105cf"/><stop offset="1" style="stop-color:#444efc"/></linearGradient><path d="m99.7 297.3-42.4-17c-1.5-.7-3.5-.7-5.1 0-1.5.7-2.9 2-3.5 3.5-.7 1.5-.7 3.5 0 5.1.7 1.5 2 2.9 3.5 3.5l42.4 17c.9.2 1.5.4 2.4.4 2.6 0 5.1-1.5 6.2-4.2.7-1.5.7-3.5 0-5.1-.5-1.4-1.8-2.5-3.5-3.2z" style="fill:url(#SVGID_3_)"/><linearGradient id="SVGID_4_" x1="28.861" x2="378.938" y1="352.048" y2="70.185" gradientUnits="userSpaceOnUse"><stop offset="0" style="stop-color:#5105cf"/><stop offset="1" style="stop-color:#444efc"/></linearGradient><path d="m73.4 321.6-15.7-6.2c-3.3-1.3-7.3.2-8.6 3.8-.7 1.5-.7 3.5 0 5.1s2 2.9 3.5 3.5l15.5 6.2c.9.2 1.5.4 2.4.4 2.6 0 5.1-1.5 6.2-4.2 1.5-3.3 0-7.3-3.3-8.6z" style="fill:url(#SVGID_4_)"/></svg>