<svg xmlns="http://www.w3.org/2000/svg" viewBox="0 0 800 151.14"><path d="M776 57.86V32.24h-73.73a22.86 22.86 0 0 0-23 22.95V106a22.88 22.88 0 0 0 23 23H776v-25.68h-71.06v-10H776v-25.6h-71.06v-9.86Zm-103.85 0V32.24h-73.73a22.86 22.86 0 0 0-22.95 22.95V106a22.86 22.86 0 0 0 22.95 23h50.8a22 22 0 0 0 16.27-6.82 22.33 22.33 0 0 0 6.68-16.18V67.72h-46v25.63h20.39v10h-45.47V57.86ZM470.47 32.24v96.7h68.68c11 0 18.37-6 22.72-15.85s5.3-22 5.3-32.56c0-10.34-.76-22.83-4.87-32.42C558 38 550.32 32.24 539.15 32.24Zm67.48 26c.89.78 1.49 2.83 1.76 4 1.33 5.79 1.41 12.37 1.41 18.3S541 93 539.66 98.74c-.29 1.26-.95 3.6-2 4.37l-.39.29-41.18-.08V57.86h41.44l.42.37ZM462 57.86V32.24h-73.72a22.84 22.84 0 0 0-22.95 22.95V106a22.86 22.86 0 0 0 22.95 23H462v-25.68h-71v-10h71v-25.6h-71v-9.86Zm-92.71-41.77H775a13.38 13.38 0 0 1 13.34 13.35v101.11A13.38 13.38 0 0 1 775 143.9H369.29A13.38 13.38 0 0 1 356 130.55V29.44a13.38 13.38 0 0 1 13.34-13.35Zm-90.1 41.07v12.21h39.72V57.16Zm-34.52 72.7h-28.24V31.68h28.24v98.18ZM178.58 66.6V31.68h28.24v98.18h-28.24v-35h-30.64v35H119.7V31.68h28.24V66.6Zm100.61 28.24v35H251V31.68h72.1a23.5 23.5 0 0 1 16.94 7 23.24 23.24 0 0 1 7.16 17.09v15a24 24 0 0 1-24.1 24.09ZM85.7 101.62v-6.78H39.86a23.41 23.41 0 0 1-17.07-7 23.37 23.37 0 0 1-7-17.06v-15a24 24 0 0 1 24.1-24.1h74.08v28.25H44v6.67h45.84a24 24 0 0 1 24.1 24.1v15.06a23.56 23.56 0 0 1-7 16.94 23.23 23.23 0 0 1-17.09 7.16H15.76v-28.24ZM24.24 4.43h751.52A24.31 24.31 0 0 1 800 28.67v102.66a24.31 24.31 0 0 1-24.24 24.24H24.24A24.31 24.31 0 0 1 0 131.33V28.67A24.31 24.31 0 0 1 24.24 4.43Z" data-name="Blue Logo" style="fill:#1c7bb7;fill-rule:evenodd" transform="translate(0 -4.43)"/></svg>