<svg xmlns="http://www.w3.org/2000/svg" id="Layer_1" x="0" y="0" version="1.1" viewBox="0 0 157.8 212.2" xml:space="preserve"><style>.st0{fill:#00aae7}</style><path d="M149.6 68.6c-2.5 0-4.5 2-4.5 4.5v41.8c0 16.1-12.5 29.2-27.9 29.2H39.4c-16.1 0-29.2-12.6-29.2-27.9V38.4v-.1c0-16.1 12.5-29.2 27.9-29.2h43.1c2.5 0 4.5-2 4.5-4.5S83.7.1 81.2.1h-43c-20.4 0-37 17.2-37 38.3v78c0 20.4 17.2 37 38.3 37H118.8v-.1c18.5-.9 33.5-16 35.1-35V72.4c-.3-2.2-2.1-3.8-4.3-3.8z" class="st0"/><path fill="#ed1944" d="M46.1 21.5C33.2 21.5 22.7 32 22.7 45v68c.2 2.6.8 6.1 2.6 9.4L147.9 0H113L46.1 67.4V21.5z"/><path d="M31.3 129.1c3.3 1.7 6.8 2.4 9.4 2.6h68c12.9 0 23.4-10.5 23.4-23.4H86.3L154 41.6V7.3L31.3 129.1z" class="st0"/><g><path d="M22.5 207.8c-12.7 0-21.2-9.1-21.2-20.9S9.8 166 22.5 166s21.2 9.1 21.2 20.9c0 11.8-8.5 20.9-21.2 20.9zm0-33.9c-7.3 0-11.5 4.9-11.5 13 0 8.2 4.3 13 11.5 13s11.5-4.8 11.5-13c0-8.1-4.3-13-11.5-13zM71.2 193.2c.6-1.7 1.3-3.2 2.1-4.7L83.8 168c.8-1.4 1.5-1.5 3.1-1.5h7.2v40.8h-8.4v-23.5c0-1.1.1-2.4.2-3.7l-10.8 21c-.7 1.3-1.9 2-3.3 2h-1.3c-1.5 0-2.6-.7-3.3-2l-10.9-21c.1 1.3.2 2.6.2 3.7v23.5h-8.4v-40.8h7.2c1.7 0 2.4 0 3.1 1.5l10.5 20.7c1 1.4 1.6 2.9 2.3 4.5zM109 168l19.4 24.5c-.1-1.6-.2-3.1-.2-4.4v-21.6h8.4v40.8h-4.9c-1.5 0-2.4-.4-3.3-1.6L109 181.4c.1 1.4.2 2.8.2 4v21.9h-8.4v-40.8h5c1.7 0 2.1.2 3.2 1.5zM153.6 207.3h-9.5v-40.8h9.5v40.8z" class="st0"/></g></svg>