<svg xmlns="http://www.w3.org/2000/svg" viewBox="0 0 1040.594 1041.289"><g data-name="Group 652"><g data-name="Group 625"><path fill="#7e62d1" d="M402.609.304h235.064v1040.283H402.609z" data-name="Rectangle 2330" opacity=".6"/><path fill="#7e62d1" d="M0 402.039h1040.283v235.064H0z" data-name="Rectangle 2331" opacity=".8"/><path fill="#7e62d1" d="M69.859 235.511 236.074 69.296l735.592 735.59L805.45 971.103z" data-name="Rectangle 2332"/><path fill="#7e62d1" d="M69.854 803.646 805.445 68.055 971.661 234.27 236.069 969.861z" data-name="Rectangle 2333"/><path fill="#679ce0" d="M402.549 0h234.93v164.414h-234.93z" data-name="Rectangle 2334"/><path fill="#679ce0" d="m70.304 235.677 165.86-166.33L352.57 185.423l-165.86 166.33z" data-name="Rectangle 2335"/><path fill="#679ce0" d="m689.395 854.768 165.86-166.33 116.406 116.076-165.86 166.33z" data-name="Rectangle 2336"/><g fill="#679ce0" data-name="Group 624"><path d="M688.895 184.509 805.3 68.433l165.86 166.33L854.757 350.84z" data-name="Rectangle 2337"/><path d="m69.806 803.6 116.405-116.076 165.86 166.33L235.668 969.93z" data-name="Rectangle 2338"/></g><path fill="#679ce0" d="M402.549 876.875h234.93v164.414h-234.93z" data-name="Rectangle 2339"/><path fill="#679ce0" d="M.131 402.224h164.414v234.93H.131z" data-name="Rectangle 2340"/><path fill="#679ce0" d="M876.18 402.205h164.414v234.93H876.18z" data-name="Rectangle 2341"/></g></g></svg>